<?xml version="1.0" encoding="UTF-8"?>
<svg width="34px" height="40px" viewBox="0 0 34 40" version="1.1" xmlns="http://www.w3.org/2000/svg" xmlns:xlink="http://www.w3.org/1999/xlink">
    <!-- Generator: Sketch 48.2 (47327) - http://www.bohemiancoding.com/sketch -->
    <title>Fill 1</title>
    <desc>Created with Sketch.</desc>
    <defs>
        <path d="M9.8,30.0005208 C9.8,30.9171397 10.565,31.6671007 11.5,31.6671007 L13.2,31.6671007 L13.2,37.5001302 C13.2,38.8833915 14.339,40 15.75,40 C17.161,40 18.3,38.8833915 18.3,37.5001302 L18.3,31.6671007 L21.7,31.6671007 L21.7,37.5001302 C21.7,38.8833915 22.839,40 24.25,40 C25.661,40 26.8,38.8833915 26.8,37.5001302 L26.8,31.6671007 L28.5,31.6671007 C29.435,31.6671007 30.2,30.9171397 30.2,30.0005208 L30.2,13.3347221 L9.8,13.3347221 L9.8,30.0005208 Z M5.55,13.3347221 C4.139,13.3347221 3,14.4513307 3,15.8345919 L3,27.500651 C3,28.8839123 4.139,30.0005208 5.55,30.0005208 C6.961,30.0005208 8.1,28.8839123 8.1,27.500651 L8.1,15.8345919 C8.1,14.4513307 6.961,13.3347221 5.55,13.3347221 Z M34.45,13.3347221 C33.039,13.3347221 31.9,14.4513307 31.9,15.8345919 L31.9,27.500651 C31.9,28.8839123 33.039,30.0005208 34.45,30.0005208 C35.861,30.0005208 37,28.8839123 37,27.500651 L37,15.8345919 C37,14.4513307 35.861,13.3347221 34.45,13.3347221 Z M26.001,3.60189573 L28.2195,1.42700901 C28.551,1.10202594 28.551,0.577053278 28.2195,0.252070205 C27.888,-0.0729128691 27.3525,-0.0729128691 27.021,0.252070205 L24.505,2.71027551 C23.145,2.05197646 21.6235,1.66866309 20,1.66866309 C18.368,1.66866309 16.838,2.05197646 15.4695,2.71860841 L12.945,0.243737305 C12.6135,-0.0812457684 12.078,-0.0812457684 11.7465,0.243737305 C11.415,0.568720379 11.415,1.09369304 11.7465,1.41867611 L13.9735,3.60189573 C11.449,5.42680069 9.8,8.35998125 9.8,11.6681423 L30.2,11.6681423 C30.2,8.35164835 28.5425,5.41846779 26.001,3.60189573 Z M16.6,8.33498255 L14.9,8.33498255 L14.9,6.66840269 L16.6,6.66840269 L16.6,8.33498255 Z M25.1,8.33498255 L23.4,8.33498255 L23.4,6.66840269 L25.1,6.66840269 L25.1,8.33498255 Z" id="path-1"></path>
    </defs>
    <g id="01-icons/os/android" stroke="none" stroke-width="1" fill="none" fill-rule="evenodd" transform="translate(-3.000000, 0.000000)">
        <mask id="mask-2" fill="white">
            <use xlink:href="#path-1"></use>
        </mask>
        <use id="Fill-1" fill-opacity="0.87" fill="#212121" xlink:href="#path-1"></use>
    </g>
</svg>