<?xml version="1.0" encoding="UTF-8"?>
<svg width="32px" height="40px" viewBox="0 0 32 40" version="1.1" xmlns="http://www.w3.org/2000/svg" xmlns:xlink="http://www.w3.org/1999/xlink">
    <!-- Generator: Sketch 48.2 (47327) - http://www.bohemiancoding.com/sketch -->
    <title>Fill 3</title>
    <desc>Created with Sketch.</desc>
    <defs>
        <path d="M33.2351311,35.0525843 C31.6461849,37.5155056 29.8831543,40 27.2070343,40 C24.6589175,40 23.7441213,38.3586517 20.8051681,38.3586517 C17.6511695,38.3586517 16.7585606,40 14.3418604,40 C11.6640337,40 9.77129324,37.3824719 8.09359811,34.9429213 C5.91754389,31.7483146 4.06747114,26.734382 4.00261619,21.92 C3.95994846,19.3689888 4.43612032,16.8611236 5.65641739,14.7307865 C7.37678025,11.7608989 10.4437367,9.74022472 13.7991269,9.67370787 C16.3660175,9.58382022 18.6513011,11.4714607 20.2197669,11.4714607 C21.721671,11.4714607 24.5275009,9.67370787 27.7071001,9.67370787 C29.0758808,9.67370787 32.7333586,10.0961798 34.996455,13.6449438 C34.8240774,13.7546067 30.6665338,16.1078652 30.6665338,21.3213483 C30.8628054,27.2665169 35.9129578,29.3519101 36,29.3519101 C35.9129578,29.461573 35.237101,32.1923596 33.2351311,35.0525843 M21.9827975,3.01842697 C23.4829948,1.22247191 25.8553206,0 27.9033716,0 C28.0313748,2.33168539 27.2070343,4.61483146 25.7034235,6.27955056 C24.397791,8.07550562 22.1108006,9.43101124 20.0013081,9.16494382 C19.5456167,6.83325843 20.8051681,4.50516854 21.9827975,3.01842697" id="path-1"></path>
    </defs>
    <g id="01-icons/os/ios" stroke="none" stroke-width="1" fill="none" fill-rule="evenodd" transform="translate(-4.000000, 0.000000)">
        <mask id="mask-2" fill="white">
            <use xlink:href="#path-1"></use>
        </mask>
        <use id="Fill-3" fill-opacity="0.87" fill="#212121" xlink:href="#path-1"></use>
    </g>
</svg>