<?xml version="1.0" encoding="UTF-8"?>
<svg width="167px" height="30px" viewBox="0 0 167 30" version="1.1" xmlns="http://www.w3.org/2000/svg" xmlns:xlink="http://www.w3.org/1999/xlink">
    <!-- Generator: Sketch 48.2 (47327) - http://www.bohemiancoding.com/sketch -->
    <title>codepen-logo</title>
    <desc>Created with Sketch.</desc>
    <defs>
        <polygon id="path-1" points="0.00161538247 30 167 30 167 0 0.00161538247 0 0.00161538247 30"></polygon>
    </defs>
    <g id="viewport/05-social" stroke="none" stroke-width="1" fill="none" fill-rule="evenodd" transform="translate(-628.000000, -625.000000)">
        <g id="confiance" transform="translate(0.000000, 548.000000)">
            <g id="logos" transform="translate(354.000000, 77.000000)">
                <g id="codepen-logo" transform="translate(274.000000, 0.000000)">
                    <mask id="mask-2" fill="white">
                        <use xlink:href="#path-1"></use>
                    </mask>
                    <g id="Clip-2"></g>
                    <path d="M10.5250145,7.37806622 C12.3940371,7.37806622 14.1411659,8.06722703 15.4413564,9.16177703 L17.2697463,7.01321757 C15.4413564,5.47274189 13.0847629,4.54035 10.5250145,4.54035 C4.71480007,4.58088649 0.00161538247,9.28339459 0.00161538247,15.0399081 C0.00161538247,20.8369622 4.71480007,25.5394662 10.5250145,25.5394662 C13.0847629,25.5394662 15.4413564,24.6070743 17.2697463,23.0665986 L15.4413564,20.9180392 C14.1005373,22.0531257 12.3940371,22.7017459 10.5250145,22.7017459 C6.25877399,22.7017459 2.84577792,19.2559459 2.84577792,15.0399081 C2.84577792,10.8238703 6.25877399,7.37806622 10.5250145,7.37806622 Z" id="Fill-1" fill="#FFFFFF" mask="url(#mask-2)"></path>
                    <path d="M68.6678401,5.18897027 L63.0201521,5.18897027 C62.2481326,5.18897027 61.5980516,5.83759054 61.5980516,6.60782838 L61.5980516,23.5125243 C61.5980516,24.2827622 62.2481326,24.9313824 63.0201521,24.9313824 L68.6678401,24.9313824 C74.1123652,24.9313824 78.5817484,20.51265 78.5817484,15.0399081 C78.5817484,9.6077027 74.1123652,5.18897027 68.6678401,5.18897027 Z M68.6678401,22.0936662 L64.4422119,22.0936662 L64.4422119,7.98615 L68.6678401,7.98615 C72.5684075,7.98615 75.7375881,11.1481784 75.7375881,15.0399081 C75.7375881,18.9316338 72.5684075,22.0936662 68.6678401,22.0936662 Z" id="Fill-3" fill="#FFFFFF" mask="url(#mask-2)"></path>
                    <path d="M86.2203528,6.56729189 L86.2203528,23.5125243 C86.2203528,24.2827622 86.8704745,24.9313824 87.6424533,24.9313824 L99.4254207,24.9313824 L99.4254207,22.0936662 L89.0645131,22.0936662 L89.0645131,16.4587662 L95.6467511,16.4587662 L95.6467511,13.6210459 L89.0645131,13.6210459 L89.0645131,7.98615 L99.4254207,7.98615 L99.4254207,5.14843378 L87.6424533,5.14843378 C86.8704745,5.18897027 86.2203528,5.79705405 86.2203528,6.56729189 Z" id="Fill-4" fill="#FFFFFF" mask="url(#mask-2)"></path>
                    <path d="M129.045329,6.56729189 L129.045329,23.5125243 C129.045329,24.2827622 129.69541,24.9313824 130.467429,24.9313824 L142.250356,24.9313824 L142.250356,22.0936662 L131.889489,22.0936662 L131.889489,16.4587662 L138.471687,16.4587662 L138.471687,13.6210459 L131.889489,13.6210459 L131.889489,7.98615 L142.250356,7.98615 L142.250356,5.14843378 L130.467429,5.14843378 C129.654777,5.18897027 129.045329,5.79705405 129.045329,6.56729189 Z" id="Fill-5" fill="#FFFFFF" mask="url(#mask-2)"></path>
                    <path d="M115.555873,5.18897027 L109.420594,5.18897027 C108.648615,5.18897027 107.998534,5.83759054 107.998534,6.60782838 L107.998534,24.9313824 L110.842695,24.9313824 L110.842695,16.4587662 L115.555873,16.4587662 C118.684462,16.4587662 121.203562,13.9453581 121.203562,10.8238662 C121.244194,7.70237838 118.684462,5.18897027 115.555873,5.18897027 Z M115.555873,13.6210459 L110.842695,13.6210459 L110.842695,7.98615 L115.555873,7.98615 C117.099831,7.98615 118.400034,9.24285405 118.400034,10.8238703 C118.400034,12.4048824 117.140464,13.6210459 115.555873,13.6210459 Z" id="Fill-6" fill="#FFFFFF" mask="url(#mask-2)"></path>
                    <path d="M164.353558,5.18897027 L164.353558,19.6207946 L152.692488,5.67543649 C152.326836,5.22951081 151.676714,5.0673527 151.107898,5.2700473 C150.539082,5.47274189 150.173389,5.99974865 150.173389,6.60782838 L150.173389,24.9313824 L153.017549,24.9313824 L153.017549,10.4995581 L164.678619,24.4449162 C164.963047,24.7692284 165.369373,24.971923 165.775658,24.971923 C165.938189,24.971923 166.100719,24.9313824 166.26325,24.8908459 C166.832065,24.6881514 167.197759,24.1611446 167.197759,23.5530649 L167.197759,5.18897027 L164.353558,5.18897027 Z" id="Fill-7" fill="#FFFFFF" mask="url(#mask-2)"></path>
                    <path d="M53.5531212,10.256323 C53.5531212,10.2157865 53.5531212,10.1752459 53.5124886,10.1347095 L53.5124886,10.0536324 C53.5124886,10.0130919 53.471856,9.97255135 53.471856,9.97255135 C53.471856,9.93201486 53.471856,9.93201486 53.4312234,9.89147432 C53.4312234,9.85093378 53.3905908,9.85093378 53.3905908,9.8103973 C53.3905908,9.76985676 53.3499582,9.76985676 53.3499582,9.76985676 C53.3499582,9.72932027 53.3093255,9.72932027 53.3093255,9.68877973 L53.2686929,9.64823919 C53.2686929,9.6077027 53.2280603,9.6077027 53.1874277,9.56716216 L53.1467951,9.52662162 C53.1061625,9.48608514 53.1061625,9.48608514 53.0655299,9.44554459 L53.0248973,9.40500811 C53.0248973,9.40500811 53.0248973,9.40500811 52.9842647,9.40500811 L39.2104257,0.202694595 C38.7634874,-0.081077027 38.1946553,-0.081077027 37.7883455,0.202694595 L23.9738414,9.40500811 C23.9738414,9.40500811 23.9738414,9.40500811 23.9332129,9.40500811 L23.8925803,9.44554865 C23.8519518,9.44554865 23.8519518,9.48608919 23.8113191,9.52662568 L23.7706906,9.56716622 C23.730058,9.6077027 23.730058,9.6077027 23.6894254,9.64824324 L23.6487969,9.68878378 C23.6487969,9.72932027 23.6081683,9.72932027 23.6081683,9.76986081 L23.5675357,9.81040135 C23.5675357,9.85093784 23.5269072,9.85093784 23.5269072,9.89147838 C23.5269072,9.93201486 23.5269072,9.93201486 23.4862746,9.97255541 C23.4862746,10.0130959 23.445646,10.0536324 23.445646,10.0536324 L23.445646,10.1347135 C23.445646,10.17525 23.445646,10.2157905 23.4050134,10.256327 L23.4050134,10.2968676 L23.4050134,10.4590216 L23.4050134,19.6207986 L23.4050134,19.7829568 L23.4050134,19.8234932 C23.4050134,19.8640297 23.4050134,19.9045703 23.445646,19.9451108 L23.445646,20.0261878 C23.445646,20.0667243 23.4862746,20.1072649 23.4862746,20.1072649 C23.4862746,20.1478054 23.4862746,20.1478054 23.5269072,20.1883419 C23.5269072,20.2288824 23.5675357,20.2288824 23.5675357,20.269423 L23.6081683,20.3099595 C23.6081683,20.3504959 23.6487969,20.3504959 23.6487969,20.3910365 L23.6894254,20.431577 C23.730058,20.4721135 23.730058,20.4721135 23.7706906,20.5126541 L23.8113191,20.5531905 C23.8519518,20.5937311 23.8519518,20.5937311 23.8925803,20.6342716 L23.9332129,20.6748081 L23.9738414,20.6748081 L37.7883455,29.8771192 C37.9915004,30.0392752 38.2759165,30.0798134 38.519704,30.0798134 C38.7634874,30.0798134 39.0072708,29.9987372 39.2510583,29.8771192 L53.024938,20.7153446 L53.0655706,20.7153446 L53.1062032,20.6748041 C53.1468358,20.6748041 53.1468358,20.6342676 53.1874684,20.593727 L53.228101,20.5531905 C53.2687336,20.51265 53.2687336,20.51265 53.3093662,20.4721095 L53.3499988,20.431573 C53.3499988,20.3910365 53.3906314,20.3910365 53.3906314,20.3504959 L53.431264,20.3099554 C53.431264,20.2694189 53.4718966,20.2694189 53.4718966,20.2288784 C53.4718966,20.1883419 53.4718966,20.1883419 53.5125292,20.1478014 C53.5125292,20.1072608 53.5531618,20.0667243 53.5531618,20.0667243 L53.5531618,19.9856432 C53.5531618,19.9451068 53.5531618,19.9045662 53.5937944,19.8640297 L53.5937944,19.8234892 L53.5937944,19.6613351 L53.5937944,10.4590176 L53.5937944,10.2968635 C53.5531212,10.2968635 53.5531212,10.256323 53.5531212,10.256323 Z M38.4790714,18.1208595 L33.8877782,15.0804446 L38.4790714,12.0400338 L43.0703564,15.0804446 L38.4790714,18.1208595 Z M37.2195135,9.72932027 L31.6124499,13.4994324 L27.0617893,10.4590176 L37.2195135,3.68903514 L37.2195135,9.72932027 Z M29.2558564,15.0399081 L26.0053863,17.1884635 L26.0053863,12.8913486 L29.2558564,15.0399081 Z M31.5718173,16.6209203 L37.1788809,20.3910324 L37.1788809,26.4313184 L27.0211607,19.6613311 L31.5718173,16.6209203 Z M39.7792618,20.3504959 L45.3863336,16.5803838 L49.936982,19.6207946 L39.7792618,26.3907831 L39.7792618,20.3504959 Z M47.7429027,15.0399081 L50.9933891,12.8913486 L50.9933891,17.2290041 L47.7429027,15.0399081 Z M45.4269662,13.4994324 L39.7792618,9.72932027 L39.7792618,3.72957162 L49.936982,10.4995581 L45.4269662,13.4994324 Z" id="Fill-8" fill="#FFFFFF" mask="url(#mask-2)"></path>
                </g>
            </g>
        </g>
    </g>
</svg>