<?xml version="1.0" encoding="UTF-8"?>
<svg width="306px" height="336px" viewBox="0 0 306 336" version="1.1" xmlns="http://www.w3.org/2000/svg" xmlns:xlink="http://www.w3.org/1999/xlink">
    <!-- Generator: Sketch 48.2 (47327) - http://www.bohemiancoding.com/sketch -->
    <title>illus</title>
    <desc>Created with Sketch.</desc>
    <defs>
        <polygon id="path-1" points="0 317.002184 304.493528 317.002184 304.493528 0.130185702 0 0.130185702"></polygon>
    </defs>
    <g id="illus/modal/success" stroke="none" stroke-width="1" fill="none" fill-rule="evenodd" transform="translate(1.000000, -1.000000)">
        <g id="illus">
            <g id="ornement" transform="translate(33.251157, 0.520743)">
                <path d="M105.384877,208.072608 C105.384877,235.33089 83.3002531,257.427961 56.0573246,257.427961 C28.8137454,257.427961 6.7291219,235.33089 6.7291219,208.072608 C6.7291219,180.814326 28.8137454,158.717256 56.0573246,158.717256 C83.3002531,158.717256 105.384877,180.814326 105.384877,208.072608" id="Fill-1" fill-opacity="0.5" fill="#673AB7"></path>
                <path d="M268.025342,68.773907 C268.025342,96.0321893 245.940719,118.129259 218.69779,118.129259 C191.454211,118.129259 169.369588,96.0321893 169.369588,68.773907 C169.369588,41.5156248 191.454211,19.4185546 218.69779,19.4185546 C245.940719,19.4185546 268.025342,41.5156248 268.025342,68.773907" id="Fill-3" fill-opacity="0.5" fill="#FFC107"></path>
                <path d="M234.425774,228.366435 C234.425774,242.746294 222.775231,254.403403 208.403471,254.403403 C194.031368,254.403403 182.380825,242.746294 182.380825,228.366435 C182.380825,213.986575 194.031368,202.329466 208.403471,202.329466 C222.775231,202.329466 234.425774,213.986575 234.425774,228.366435" id="Fill-3" fill-opacity="0.5" fill="#FFC107"></path>
                <path d="M52.2684523,26.5785966 C52.2684523,40.9584562 40.6179093,52.6155653 26.2461494,52.6155653 C11.8740462,52.6155653 0.223503271,40.9584562 0.223503271,26.5785966 C0.223503271,12.1987369 11.8740462,0.541627859 26.2461494,0.541627859 C40.6179093,0.541627859 52.2684523,12.1987369 52.2684523,26.5785966" id="Fill-3" fill-opacity="0.5" fill="#673AB7"></path>
                <path d="M184.848666,275.298161 L197.209342,275.298161 C198.287323,275.298161 199.161027,276.172358 199.161027,277.250947 L199.161027,314.353872 C199.161027,315.43246 200.034732,316.306657 201.112713,316.306657 L216.075636,316.306657" id="Stroke-5" stroke="#BDBDBD" stroke-width="1.61372951"></path>
                <path d="M120.443042,290.269582 L135.405965,290.269582 C136.483946,290.269582 137.35765,289.395385 137.35765,288.316797 L137.35765,272.694512 C137.35765,271.615924 138.231355,270.741727 139.309336,270.741727 L152.971135,270.741727" id="Stroke-7" stroke="#BDBDBD" stroke-width="1.61372951"></path>
                <path d="M199.811654,187.422878 L199.811654,208.25259 C199.811654,209.331178 198.937949,210.205375 197.859968,210.205375 L138.658839,210.205375 C137.580858,210.205375 136.707153,211.079572 136.707153,212.158161 L136.707153,226.478588 C136.707153,227.557177 135.833449,228.431374 134.755468,228.431374 L120.443107,228.431374" id="Stroke-9" stroke="#BDBDBD" stroke-width="1.61372951"></path>
                <path d="M18.3048293,89.1326726 L33.918314,89.1326726 C34.996295,89.1326726 35.8699996,90.0068696 35.8699996,91.0854581 L35.8699996,137.301382 C35.8699996,138.379971 36.7437042,139.254168 37.8216852,139.254168 L60.5913504,139.254168" id="Stroke-11" stroke="#BDBDBD" stroke-width="1.61372951"></path>
                <path d="M19.3467692,95.3164934 C15.9391262,95.3164934 13.1664315,92.5422361 13.1664315,89.1326726 C13.1664315,85.7231091 15.9391262,82.9488517 19.3467692,82.9488517 C22.7544123,82.9488517 25.5271069,85.7231091 25.5271069,89.1326726 C25.5271069,92.5422361 22.7544123,95.3164934 19.3467692,95.3164934" id="Fill-13" fill="#673AB7"></path>
                <path d="M19.3467692,81.972459 C15.4011115,81.972459 12.1905887,85.1847912 12.1905887,89.1326726 C12.1905887,93.080554 15.4011115,96.2928862 19.3467692,96.2928862 C23.2924269,96.2928862 26.5029497,93.080554 26.5029497,89.1326726 C26.5029497,85.1847912 23.2924269,81.972459 19.3467692,81.972459 M19.3467692,83.9252445 C22.2209515,83.9252445 24.5512641,86.2568704 24.5512641,89.1326726 C24.5512641,92.0084747 22.2209515,94.3401007 19.3467692,94.3401007 C16.4725869,94.3401007 14.1422743,92.0084747 14.1422743,89.1326726 C14.1422743,86.2568704 16.4725869,83.9252445 19.3467692,83.9252445" id="Fill-15" fill="#FFFFFF"></path>
                <path d="M120.184183,234.615195 C116.77654,234.615195 114.003845,231.840937 114.003845,228.431374 C114.003845,225.02181 116.77654,222.247553 120.184183,222.247553 C123.591826,222.247553 126.364521,225.02181 126.364521,228.431374 C126.364521,231.840937 123.591826,234.615195 120.184183,234.615195" id="Fill-17" fill="#673AB7"></path>
                <path d="M120.184183,221.27116 C116.238525,221.27116 113.028003,224.483492 113.028003,228.431374 C113.028003,232.379255 116.238525,235.591587 120.184183,235.591587 C124.129841,235.591587 127.340364,232.379255 127.340364,228.431374 C127.340364,224.483492 124.129841,221.27116 120.184183,221.27116 M120.184183,223.223946 C123.058365,223.223946 125.388678,225.555572 125.388678,228.431374 C125.388678,231.307176 123.058365,233.638802 120.184183,233.638802 C117.310001,233.638802 114.979688,231.307176 114.979688,228.431374 C114.979688,225.555572 117.310001,223.223946 120.184183,223.223946" id="Fill-19" fill="#FFFFFF"></path>
                <path d="M120.184183,296.453403 C116.77654,296.453403 114.003845,293.679146 114.003845,290.269582 C114.003845,286.860019 116.77654,284.085761 120.184183,284.085761 C123.591826,284.085761 126.364521,286.860019 126.364521,290.269582 C126.364521,293.679146 123.591826,296.453403 120.184183,296.453403" id="Fill-21" fill="#673AB7"></path>
                <path d="M120.184183,283.109369 C116.238525,283.109369 113.028003,286.321701 113.028003,290.269582 C113.028003,294.217464 116.238525,297.429796 120.184183,297.429796 C124.129841,297.429796 127.340364,294.217464 127.340364,290.269582 C127.340364,286.321701 124.129841,283.109369 120.184183,283.109369 M120.184183,285.062154 C123.058365,285.062154 125.388678,287.39378 125.388678,290.269582 C125.388678,293.145384 123.058365,295.47701 120.184183,295.47701 C117.310001,295.47701 114.979688,293.145384 114.979688,290.269582 C114.979688,287.39378 117.310001,285.062154 120.184183,285.062154" id="Fill-23" fill="#FFFFFF"></path>
                <path d="M216.467339,322.490543 C213.059696,322.490543 210.287001,319.716286 210.287001,316.306723 C210.287001,312.897159 213.059696,310.122902 216.467339,310.122902 C219.874982,310.122902 222.647677,312.897159 222.647677,316.306723 C222.647677,319.716286 219.874982,322.490543 216.467339,322.490543" id="Fill-25" fill="#673AB7"></path>
                <path d="M216.467339,309.146509 C212.521681,309.146509 209.311158,312.358841 209.311158,316.306723 C209.311158,320.254604 212.521681,323.466936 216.467339,323.466936 C220.412997,323.466936 223.623519,320.254604 223.623519,316.306723 C223.623519,312.358841 220.412997,309.146509 216.467339,309.146509 M216.467339,311.099294 C219.341521,311.099294 221.671834,313.43092 221.671834,316.306723 C221.671834,319.182525 219.341521,321.514151 216.467339,321.514151 C213.593157,321.514151 211.262844,319.182525 211.262844,316.306723 C211.262844,313.43092 213.593157,311.099294 216.467339,311.099294" id="Fill-27" fill="#FFFFFF"></path>
                <path d="M55.7782335,145.437989 C52.3705905,145.437989 49.5978958,142.663731 49.5978958,139.254168 C49.5978958,135.844604 52.3705905,133.070347 55.7782335,133.070347 C59.1858766,133.070347 61.9585712,135.844604 61.9585712,139.254168 C61.9585712,142.663731 59.1858766,145.437989 55.7782335,145.437989" id="Fill-29" fill="#FFC107"></path>
                <path d="M55.7782335,132.093954 C51.8325758,132.093954 48.622053,135.306286 48.622053,139.254168 C48.622053,143.202049 51.8325758,146.414381 55.7782335,146.414381 C59.7238912,146.414381 62.934414,143.202049 62.934414,139.254168 C62.934414,135.306286 59.7238912,132.093954 55.7782335,132.093954 M55.7782335,134.04674 C58.6524158,134.04674 60.9827284,136.378366 60.9827284,139.254168 C60.9827284,142.12997 58.6524158,144.461596 55.7782335,144.461596 C52.9040512,144.461596 50.5737386,142.12997 50.5737386,139.254168 C50.5737386,136.378366 52.9040512,134.04674 55.7782335,134.04674" id="Fill-31" fill="#FFFFFF"></path>
                <path d="M152.711951,276.925548 C149.304308,276.925548 146.531613,274.15129 146.531613,270.741727 C146.531613,267.332163 149.304308,264.557906 152.711951,264.557906 C156.119594,264.557906 158.892289,267.332163 158.892289,270.741727 C158.892289,274.15129 156.119594,276.925548 152.711951,276.925548" id="Fill-33" fill="#FFC107"></path>
                <path d="M152.711951,263.581513 C148.766293,263.581513 145.555771,266.793845 145.555771,270.741727 C145.555771,274.689608 148.766293,277.90194 152.711951,277.90194 C156.657609,277.90194 159.868132,274.689608 159.868132,270.741727 C159.868132,266.793845 156.657609,263.581513 152.711951,263.581513 M152.711951,265.534299 C155.586133,265.534299 157.916446,267.865925 157.916446,270.741727 C157.916446,273.617529 155.586133,275.949155 152.711951,275.949155 C149.837769,275.949155 147.507456,273.617529 147.507456,270.741727 C147.507456,267.865925 149.837769,265.534299 152.711951,265.534299" id="Fill-35" fill="#FFFFFF"></path>
                <path d="M184.589482,281.482047 C181.181839,281.482047 178.409145,278.70779 178.409145,275.298226 C178.409145,271.888663 181.181839,269.114406 184.589482,269.114406 C187.997125,269.114406 190.76982,271.888663 190.76982,275.298226 C190.76982,278.70779 187.997125,281.482047 184.589482,281.482047" id="Fill-37" fill="#FFC107"></path>
                <path d="M184.589482,268.138013 C180.643825,268.138013 177.433302,271.350345 177.433302,275.298226 C177.433302,279.246108 180.643825,282.45844 184.589482,282.45844 C188.53514,282.45844 191.745663,279.246108 191.745663,275.298226 C191.745663,271.350345 188.53514,268.138013 184.589482,268.138013 M184.589482,270.090798 C187.463665,270.090798 189.793977,272.422424 189.793977,275.298226 C189.793977,278.174029 187.463665,280.505654 184.589482,280.505654 C181.7153,280.505654 179.384987,278.174029 179.384987,275.298226 C179.384987,272.422424 181.7153,270.090798 184.589482,270.090798" id="Fill-39" fill="#FFFFFF"></path>
                <path d="M199.811589,193.606698 C196.403946,193.606698 193.631251,190.832441 193.631251,187.422878 C193.631251,184.013314 196.403946,181.239057 199.811589,181.239057 C203.219232,181.239057 205.991927,184.013314 205.991927,187.422878 C205.991927,190.832441 203.219232,193.606698 199.811589,193.606698" id="Fill-41" fill="#FFC107"></path>
                <path d="M199.811589,180.262664 C195.865931,180.262664 192.655408,183.474996 192.655408,187.422878 C192.655408,191.370759 195.865931,194.583091 199.811589,194.583091 C203.757247,194.583091 206.967769,191.370759 206.967769,187.422878 C206.967769,183.474996 203.757247,180.262664 199.811589,180.262664 M199.811589,182.215449 C202.685771,182.215449 205.016084,184.547075 205.016084,187.422878 C205.016084,190.29868 202.685771,192.630306 199.811589,192.630306 C196.937407,192.630306 194.607094,190.29868 194.607094,187.422878 C194.607094,184.547075 196.937407,182.215449 199.811589,182.215449" id="Fill-43" fill="#FFFFFF"></path>
            </g>
            <g id="macboock" transform="translate(0.000000, 19.808786)">
                <path d="M295.404268,168.101246 L75.2821079,168.101246 C70.6572637,168.101246 66.9080756,164.349945 66.9080756,159.723145 L66.9080756,157.360926 L303.77765,157.360926 L303.77765,159.723145 C303.77765,164.349945 300.029112,168.101246 295.404268,168.101246 Z" id="Fill-46" fill="#BDBDBD"></path>
                <path d="M295.404268,168.101246 L75.2821079,168.101246 C70.6572637,168.101246 66.9080756,164.349945 66.9080756,159.723145 L66.9080756,157.360926 L303.77765,157.360926 L303.77765,159.723145 C303.77765,164.349945 300.029112,168.101246 295.404268,168.101246 Z" id="Stroke-48" stroke="#212121" stroke-width="1.77510246"></path>
                <path d="M196.850196,163.089097 L173.120302,163.089097 C169.989798,163.089097 167.452607,160.550475 167.452607,157.418207 L167.452607,157.360926 L202.517891,157.360926 L202.517891,157.418207 C202.517891,160.550475 199.9807,163.089097 196.850196,163.089097" id="Fill-50" fill="#BDBDBD"></path>
                <path d="M196.850196,163.089097 L173.120302,163.089097 C169.989798,163.089097 167.452607,160.550475 167.452607,157.418207 L167.452607,157.360926 L202.517891,157.360926 L202.517891,157.418207 C202.517891,160.550475 199.9807,163.089097 196.850196,163.089097 Z" id="Stroke-52" stroke="#212121" stroke-width="1.77510246"></path>
                <path d="M282.309303,157.003957 L89.0924303,157.003957 L89.0924303,40.0047644 C89.0924303,35.4183221 92.8084397,31.7002184 97.3922986,31.7002184 L274.009435,31.7002184 C278.593294,31.7002184 282.309303,35.4183221 282.309303,40.0047644 L282.309303,157.003957 Z" id="Fill-54" fill="#BDBDBD"></path>
                <path d="M282.309303,157.003957 L89.0924303,157.003957 L89.0924303,40.0047644 C89.0924303,35.4183221 92.8084397,31.7002184 97.3922986,31.7002184 L274.009435,31.7002184 C278.593294,31.7002184 282.309303,35.4183221 282.309303,40.0047644 L282.309303,157.003957 Z" id="Stroke-56" stroke="#212121" stroke-width="1.77510246"></path>
                <path d="M187.60916,36.1265323 C187.60916,37.1810365 186.754972,38.0357056 185.701062,38.0357056 C184.647152,38.0357056 183.792314,37.1810365 183.792314,36.1265323 C183.792314,35.0720281 184.647152,34.217359 185.701062,34.217359 C186.754972,34.217359 187.60916,35.0720281 187.60916,36.1265323" id="Fill-58" fill="#212121"></path>
                <mask id="mask-2" fill="white">
                    <use xlink:href="#path-1"></use>
                </mask>
                <g id="Clip-61"></g>
                <polygon id="Fill-60" fill="#FFC107" mask="url(#mask-2)" points="97.4668168 151.952751 273.11852 151.952751 273.11852 41.2949047 97.4668168 41.2949047"></polygon>
                <g id="Page-1" mask="url(#mask-2)" fill="#FFFFFF">
                    <g transform="translate(150.437913, 60.354091)">
                        <path d="M34.9609234,64.7071156 C18.5396482,64.7071156 5.17939606,51.3541552 5.17939606,34.9418424 C5.17939606,18.5295296 18.5396482,5.17656925 34.9609234,5.17656925 C51.3821986,5.17656925 64.7424508,18.5295296 64.7424508,34.9418424 C64.7424508,51.3541552 51.3821986,64.7071156 34.9609234,64.7071156 M34.9609234,0 C15.6521349,0 0,15.6435923 0,34.9418424 C0,54.2400926 15.6521349,69.8836848 34.9609234,69.8836848 C54.2697119,69.8836848 69.9218468,54.2400926 69.9218468,34.9418424 C69.9218468,15.6435923 54.2697119,0 34.9609234,0" id="Fill-3"></path>
                        <path d="M47.8866242,22.6247135 L29.1346208,41.3664825 L22.0349636,34.2719943 C20.771191,33.0076173 18.7227399,33.0076173 17.4576724,34.2719943 C16.1926049,35.5363714 16.1926049,37.5837045 17.4576724,38.8467874 L26.8453277,48.2293192 C27.4772141,48.8608606 28.3059174,49.1779255 29.1346208,49.1779255 C29.9620293,49.1779255 30.7907327,48.8608606 31.422619,48.2293192 L52.4639155,27.1995066 C53.728983,25.9364237 53.728983,23.8890906 52.4639155,22.6247135 C51.2001429,21.3603365 49.1516917,21.3603365 47.8866242,22.6247135" id="Fill-5"></path>
                    </g>
                </g>
                <polygon id="Stroke-62" stroke="#212121" stroke-width="1.61372951" mask="url(#mask-2)" points="97.7456187 151.861621 273.397322 151.861621 273.397322 41.2037747 97.7456187 41.2037747"></polygon>
            </g>
            <g id="android" transform="translate(249.165193, 235.266123)">
                <path d="M48.895579,100.828826 L4.18636559,100.828826 C2.10651931,100.828826 0.420913525,99.1422704 0.420913525,97.061252 L0.420913525,4.35340987 C0.420913525,2.27239143 2.10651931,0.585835659 4.18636559,0.585835659 L48.895579,0.585835659 C50.9754253,0.585835659 52.6610311,2.27239143 52.6610311,4.35340987 L52.6610311,97.061252 C52.6610311,99.1422704 50.9754253,100.828826 48.895579,100.828826" id="Fill-65" fill="#BDBDBD"></path>
                <path d="M48.895579,100.828826 L4.18636559,100.828826 C2.10651931,100.828826 0.420913525,99.1422704 0.420913525,97.061252 L0.420913525,4.35340987 C0.420913525,2.27239143 2.10651931,0.585835659 4.18636559,0.585835659 L48.895579,0.585835659 C50.9754253,0.585835659 52.6610311,2.27239143 52.6610311,4.35340987 L52.6610311,97.061252 C52.6610311,99.1422704 50.9754253,100.828826 48.895579,100.828826 Z" id="Stroke-66" stroke="#212121" stroke-width="1.77510246"></path>
                <path d="M17.076208,6.3790994 L39.1953113,6.3790994" id="Stroke-67" stroke="#757575" stroke-width="0.806864754" stroke-linecap="round" stroke-linejoin="round"></path>
                <path d="M13.1728368,6.3790994 L13.8233987,6.3790994" id="Stroke-68" stroke="#757575" stroke-width="0.806864754" stroke-linecap="round" stroke-linejoin="round"></path>
                <polygon id="Fill-69" fill="#673AB7" points="3.41414865 90.6743414 48.953479 90.6743414 48.953479 11.9119917 3.41414865 11.9119917"></polygon>
                <path d="M3.17826577,91.7114875 L50.0187199,91.7114875 L50.0187199,11.6472808 L3.17826577,11.6472808 L3.17826577,91.7114875 Z M4.47938949,90.4096305 L48.7175961,90.4096305 L48.7175961,12.9491378 L4.47938949,12.9491378 L4.47938949,90.4096305 Z" id="Fill-70" fill="#212121"></path>
                <g id="Page-1" transform="translate(12.713063, 38.118374)" fill="#FFFFFF">
                    <path d="M13.772485,25.4906819 C7.30349778,25.4906819 2.04036815,20.2304248 2.04036815,13.7649682 C2.04036815,7.29951167 7.30349778,2.03925455 13.772485,2.03925455 C20.2414722,2.03925455 25.5046018,7.29951167 25.5046018,13.7649682 C25.5046018,20.2304248 20.2414722,25.4906819 13.772485,25.4906819 M13.772485,0 C6.16599254,0 0,6.16262725 0,13.7649682 C0,21.3673092 6.16599254,27.5299364 13.772485,27.5299364 C21.3789774,27.5299364 27.54497,21.3673092 27.54497,13.7649682 C27.54497,6.16262725 21.3789774,0 13.772485,0" id="Fill-3"></path>
                    <path d="M18.8644277,8.91276594 L11.4772749,16.295887 L8.68044022,13.5010887 C8.18259039,13.0030008 7.37562479,13.0030008 6.87726487,13.5010887 C6.37890495,13.9991766 6.37890495,14.8057018 6.87726487,15.3032799 L10.5754321,18.9994288 C10.8243571,19.2482178 11.150816,19.3731222 11.4772749,19.3731222 C11.8032237,19.3731222 12.1296826,19.2482178 12.3786075,18.9994288 L20.6676031,10.7149572 C21.165963,10.217379 21.165963,9.41085387 20.6676031,8.91276594 C20.1697533,8.41467802 19.3627876,8.41467802 18.8644277,8.91276594" id="Fill-5"></path>
                </g>
                <path d="M20.3290173,96.2072338 L32.6896927,96.2072338" id="Stroke-72" stroke="#757575" stroke-width="0.806864754" stroke-linecap="round" stroke-linejoin="round"></path>
            </g>
            <g id="iphone" transform="translate(0.000000, 21.110643)">
                <path d="M0.715618049,15.5278996 L2.14685415,15.5278996 C2.34462495,15.5278996 2.50466317,15.3677712 2.50466317,15.1698889 L2.50466317,13.0218248 C2.50466317,12.8239426 2.34462495,12.6638142 2.14685415,12.6638142 L0.715618049,12.6638142 C0.517847243,12.6638142 0.357809024,12.8239426 0.357809024,13.0218248 L0.357809024,15.1698889 C0.357809024,15.3677712 0.517847243,15.5278996 0.715618049,15.5278996" id="Fill-73" fill="#D1C4E9"></path>
                <path d="M0.715618049,15.5278996 L2.14685415,15.5278996 C2.34462495,15.5278996 2.50466317,15.3677712 2.50466317,15.1698889 L2.50466317,13.0218248 C2.50466317,12.8239426 2.34462495,12.6638142 2.14685415,12.6638142 L0.715618049,12.6638142 C0.517847243,12.6638142 0.357809024,12.8239426 0.357809024,13.0218248 L0.357809024,15.1698889 C0.357809024,15.3677712 0.517847243,15.5278996 0.715618049,15.5278996 Z" id="Stroke-74" stroke="#212121" stroke-width="0.88755123"></path>
                <path d="M0.715618049,26.9842414 L2.14685415,26.9842414 C2.34462495,26.9842414 2.50466317,26.824113 2.50466317,26.6262307 L2.50466317,20.1820384 C2.50466317,19.9841562 2.34462495,19.8240278 2.14685415,19.8240278 L0.715618049,19.8240278 C0.517847243,19.8240278 0.357809024,19.9841562 0.357809024,20.1820384 L0.357809024,26.6262307 C0.357809024,26.824113 0.517847243,26.9842414 0.715618049,26.9842414" id="Fill-75" fill="#D1C4E9"></path>
                <path d="M0.715618049,26.9842414 L2.14685415,26.9842414 C2.34462495,26.9842414 2.50466317,26.824113 2.50466317,26.6262307 L2.50466317,20.1820384 C2.50466317,19.9841562 2.34462495,19.8240278 2.14685415,19.8240278 L0.715618049,19.8240278 C0.517847243,19.8240278 0.357809024,19.9841562 0.357809024,20.1820384 L0.357809024,26.6262307 C0.357809024,26.824113 0.517847243,26.9842414 0.715618049,26.9842414 Z" id="Stroke-76" stroke="#212121" stroke-width="0.88755123"></path>
                <path d="M54.3869717,26.9842414 L52.9557356,26.9842414 C52.7579648,26.9842414 52.5979266,26.824113 52.5979266,26.6262307 L52.5979266,21.6140812 C52.5979266,21.4161989 52.7579648,21.2560705 52.9557356,21.2560705 L54.3869717,21.2560705 C54.5847425,21.2560705 54.7447807,21.4161989 54.7447807,21.6140812 L54.7447807,26.6262307 C54.7447807,26.824113 54.5847425,26.9842414 54.3869717,26.9842414" id="Fill-77" fill="#D1C4E9"></path>
                <path d="M54.3869717,26.9842414 L52.9557356,26.9842414 C52.7579648,26.9842414 52.5979266,26.824113 52.5979266,26.6262307 L52.5979266,21.6140812 C52.5979266,21.4161989 52.7579648,21.2560705 52.9557356,21.2560705 L54.3869717,21.2560705 C54.5847425,21.2560705 54.7447807,21.4161989 54.7447807,21.6140812 L54.7447807,26.6262307 C54.7447807,26.824113 54.5847425,26.9842414 54.3869717,26.9842414 Z" id="Stroke-78" stroke="#212121" stroke-width="0.88755123"></path>
                <path d="M0.715618049,28.4162841 L2.14685415,28.4162841 C2.34462495,28.4162841 2.50466317,28.5764125 2.50466317,28.7742948 L2.50466317,34.5024657 C2.50466317,34.7003479 2.34462495,34.8604763 2.14685415,34.8604763 L0.715618049,34.8604763 C0.517847243,34.8604763 0.357809024,34.7003479 0.357809024,34.5024657 L0.357809024,28.7742948 C0.357809024,28.5764125 0.517847243,28.4162841 0.715618049,28.4162841" id="Fill-79" fill="#D1C4E9"></path>
                <path d="M0.715618049,28.4162841 L2.14685415,28.4162841 C2.34462495,28.4162841 2.50466317,28.5764125 2.50466317,28.7742948 L2.50466317,34.5024657 C2.50466317,34.7003479 2.34462495,34.8604763 2.14685415,34.8604763 L0.715618049,34.8604763 C0.517847243,34.8604763 0.357809024,34.7003479 0.357809024,34.5024657 L0.357809024,28.7742948 C0.357809024,28.5764125 0.517847243,28.4162841 0.715618049,28.4162841 Z" id="Stroke-80" stroke="#212121" stroke-width="0.88755123"></path>
                <path d="M45.0746991,97.834555 L10.2188956,97.834555 C6.04424015,97.834555 2.66001734,94.3436254 2.66001734,90.0364315 L2.66001734,8.25377351 C2.66001734,3.94657956 6.04424015,0.455649957 10.2188956,0.455649957 L45.0746991,0.455649957 C49.2493546,0.455649957 52.6335774,3.94657956 52.6335774,8.25377351 L52.6335774,90.0364315 C52.6335774,94.3436254 49.2493546,97.834555 45.0746991,97.834555" id="Fill-81" fill="#BDBDBD"></path>
                <path d="M45.0746991,97.834555 L10.2188956,97.834555 C6.04424015,97.834555 2.66001734,94.3436254 2.66001734,90.0364315 L2.66001734,8.25377351 C2.66001734,3.94657956 6.04424015,0.455649957 10.2188956,0.455649957 L45.0746991,0.455649957 C49.2493546,0.455649957 52.6335774,3.94657956 52.6335774,8.25377351 L52.6335774,90.0364315 C52.6335774,94.3436254 49.2493546,97.834555 45.0746991,97.834555 Z" id="Stroke-82" stroke="#212121" stroke-width="1.77510246"></path>
                <path d="M21.630141,8.98281344 L35.942502,8.98281344" id="Stroke-83" stroke="#757575" stroke-width="0.806864754" stroke-linecap="round" stroke-linejoin="round"></path>
                <path d="M28.1357597,8.98281344 L28.7863215,8.98281344" id="Stroke-84" stroke="#868A96" stroke-width="0.806864754" stroke-linecap="round" stroke-linejoin="round"></path>
                <path d="M19.0278936,8.98281344 L19.6784554,8.98281344" id="Stroke-85" stroke="#868A96" stroke-width="0.806864754" stroke-linecap="round" stroke-linejoin="round"></path>
                <path d="M5.65491863,84.3082606 C5.45714783,84.3082606 5.29710961,84.1481322 5.29710961,83.9502499 L5.29710961,13.0641352 C5.29710961,12.8662529 5.45714783,12.7061245 5.65491863,12.7061245 L49.3076196,12.7061245 C49.5053904,12.7061245 49.6654286,12.8662529 49.6654286,13.0641352 L49.6654286,83.9502499 C49.6654286,84.1481322 49.5053904,84.3082606 49.3076196,84.3082606 L5.65491863,84.3082606 Z" id="Fill-89" fill="#673AB7"></path>
                <path d="M49.3776454,84.2659502 L5.72494439,84.2659502 C5.52717358,84.2659502 5.36713537,84.1058218 5.36713537,83.9079396 L5.36713537,13.0218248 C5.36713537,12.8239426 5.52717358,12.6638142 5.72494439,12.6638142 L49.3776454,12.6638142 C49.5754162,12.6638142 49.7354544,12.8239426 49.7354544,13.0218248 L49.7354544,83.9079396 C49.7354544,84.1058218 49.5754162,84.2659502 49.3776454,84.2659502 Z" id="Stroke-90" stroke="#212121" stroke-width="1.77510246"></path>
                <path d="M30.5025037,88.190268 C33.6362602,92.3809458 28.9346496,97.0845552 24.7463324,93.9496835 C24.7183582,93.9282029 24.6929863,93.9028166 24.6715177,93.8741758 C21.5377612,89.684149 26.2393718,84.9798886 30.4276891,88.1154113 C30.4556633,88.136241 30.4816857,88.1622781 30.5025037,88.190268" id="Fill-91" fill="#757575"></path>
                <g id="Page-1" transform="translate(13.772485, 34.941842)" fill="#FFFFFF">
                    <path d="M13.772485,25.4906819 C7.30349778,25.4906819 2.04036815,20.2304248 2.04036815,13.7649682 C2.04036815,7.29951167 7.30349778,2.03925455 13.772485,2.03925455 C20.2414722,2.03925455 25.5046018,7.29951167 25.5046018,13.7649682 C25.5046018,20.2304248 20.2414722,25.4906819 13.772485,25.4906819 M13.772485,0 C6.16599254,0 0,6.16262725 0,13.7649682 C0,21.3673092 6.16599254,27.5299364 13.772485,27.5299364 C21.3789774,27.5299364 27.54497,21.3673092 27.54497,13.7649682 C27.54497,6.16262725 21.3789774,0 13.772485,0" id="Fill-3"></path>
                    <path d="M18.8644277,8.91276594 L11.4772749,16.295887 L8.68044022,13.5010887 C8.18259039,13.0030008 7.37562479,13.0030008 6.87726487,13.5010887 C6.37890495,13.9991766 6.37890495,14.8057018 6.87726487,15.3032799 L10.5754321,18.9994288 C10.8243571,19.2482178 11.150816,19.3731222 11.4772749,19.3731222 C11.8032237,19.3731222 12.1296826,19.2482178 12.3786075,18.9994288 L20.6676031,10.7149572 C21.165963,10.217379 21.165963,9.41085387 20.6676031,8.91276594 C20.1697533,8.41467802 19.3627876,8.41467802 18.8644277,8.91276594" id="Fill-5"></path>
                </g>
            </g>
            <g id="ipad" transform="translate(5.204495, 209.879911)">
                <path d="M0.162640466,90.2287809 L0.162640466,9.31966894 C0.162640466,4.30751941 4.34965661,0.243772727 9.5151178,0.243772727 L138.82795,0.243772727 C143.993411,0.243772727 148.180427,4.30751941 148.180427,9.31966894 L148.180427,90.2287809 C148.180427,95.2415813 143.993411,99.3046771 138.82795,99.3046771 L9.5151178,99.3046771 C4.34965661,99.3046771 0.162640466,95.2415813 0.162640466,90.2287809" id="Fill-93" fill="#BDBDBD"></path>
                <path d="M0.162640466,90.2287809 L0.162640466,9.31966894 C0.162640466,4.30751941 4.34965661,0.243772727 9.5151178,0.243772727 L138.82795,0.243772727 C143.993411,0.243772727 148.180427,4.30751941 148.180427,9.31966894 L148.180427,90.2287809 C148.180427,95.2415813 143.993411,99.3046771 138.82795,99.3046771 L9.5151178,99.3046771 C4.34965661,99.3046771 0.162640466,95.2415813 0.162640466,90.2287809 Z" id="Stroke-94" stroke="#212121" stroke-width="1.77510246"></path>
                <path d="M20.1290165,8.85609935 C20.1290165,8.64324573 20.322884,8.47074967 20.5629413,8.47074967 L137.967238,8.47074967 C138.207296,8.47074967 138.401163,8.64324573 138.401163,8.85609935 L138.401163,90.8027913 C138.401163,91.0156449 138.207296,91.1874901 137.967238,91.1874901 L20.5629413,91.1874901 C20.322884,91.1874901 20.1290165,91.0156449 20.1290165,90.8027913 L20.1290165,8.85609935 Z" id="Fill-95" fill="#673AB7"></path>
                <path d="M19.6794963,90.6332027 L19.6794963,8.68651078 C19.6794963,8.47365716 19.8733638,8.3011611 20.1134211,8.3011611 L137.517718,8.3011611 C137.757776,8.3011611 137.951643,8.47365716 137.951643,8.68651078 L137.951643,90.6332027 C137.951643,90.8460564 137.757776,91.0179015 137.517718,91.0179015 L20.1134211,91.0179015 C19.8733638,91.0179015 19.6794963,90.8460564 19.6794963,90.6332027 Z" id="Stroke-96" stroke="#212121" stroke-width="1.68876793"></path>
                <path d="M13.2907186,53.1602899 C8.26512824,56.9226567 2.62345577,51.2778047 6.38370333,46.2493819 C6.40907524,46.2155336 6.43965165,46.18494 6.47348087,46.1595538 C11.4990713,42.3965361 17.1407437,48.042039 13.3804962,53.0704618 C13.3551243,53.1043101 13.3245478,53.1349037 13.2907186,53.1602899" id="Fill-97" fill="#757575"></path>
                <g id="Page-1" transform="translate(55.089940, 24.353405)" fill="#FFFFFF">
                    <path d="M24.3667042,45.0988987 C12.921573,45.0988987 3.6098821,35.79229 3.6098821,24.3534053 C3.6098821,12.9145206 12.921573,3.6079119 24.3667042,3.6079119 C35.8118354,3.6079119 45.1235263,12.9145206 45.1235263,24.3534053 C45.1235263,35.79229 35.8118354,45.0988987 24.3667042,45.0988987 M24.3667042,0 C10.9090637,0 0,10.9031098 0,24.3534053 C0,37.8037009 10.9090637,48.7068106 24.3667042,48.7068106 C37.8243447,48.7068106 48.7334084,37.8037009 48.7334084,24.3534053 C48.7334084,10.9031098 37.8243447,0 24.3667042,0" id="Fill-3"></path>
                    <path d="M33.375526,15.7687397 L20.3059478,28.8311848 L15.3577019,23.8865415 C14.4768907,23.005309 13.0491823,23.005309 12.1674686,23.8865415 C11.2857549,24.767774 11.2857549,26.1947032 12.1674686,27.0750337 L18.7103799,33.614374 C19.1507856,34.0545392 19.7283667,34.2755238 20.3059478,34.2755238 C20.8826265,34.2755238 21.4602076,34.0545392 21.9006132,33.614374 L36.5657593,18.9572319 C37.447473,18.0769014 37.447473,16.6499722 36.5657593,15.7687397 C35.6849481,14.8875073 34.2572397,14.8875073 33.375526,15.7687397" id="Fill-5"></path>
                </g>
            </g>
            <g id="iswatch" transform="translate(185.410131, 243.077265)">
                <path d="M33.3880709,23.9834609 C32.580073,23.9834609 31.4363853,22.817648 31.4363853,21.3797469 C31.4363853,19.9418458 32.580073,18.7760329 33.3880709,18.7760329 L33.3880709,23.9834609 Z" id="Fill-100" fill="#D1C4E9"></path>
                <path d="M33.3880709,23.9834609 C32.580073,23.9834609 31.4363853,22.817648 31.4363853,21.3797469 C31.4363853,19.9418458 32.580073,18.7760329 33.3880709,18.7760329 L33.3880709,23.9834609 Z" id="Stroke-101" stroke="#212121" stroke-width="0.88755123"></path>
                <path d="M4.7633489,10.6101347 L27.2077332,10.6101347 C27.2077332,9.30827769 24.1754643,0.195278553 22.9042664,0.195278553 L9.06681562,0.195278553 C7.79561774,0.195278553 4.7633489,9.30827769 4.7633489,10.6101347" id="Fill-102" fill="#BDBDBD"></path>
                <path d="M4.7633489,10.6101347 L27.2077332,10.6101347 C27.2077332,9.30827769 24.1754643,0.195278553 22.9042664,0.195278553 L9.06681562,0.195278553 C7.79561774,0.195278553 4.7633489,9.30827769 4.7633489,10.6101347 Z" id="Stroke-103" stroke="#212121" stroke-width="1.61372951"></path>
                <path d="M22.9052423,56.8260589 L9.06779146,56.8260589 C7.79269021,56.8260589 4.76107193,47.0621313 4.76107193,46.4112028 L27.2054562,46.4112028 C27.2054562,47.0621313 24.1738379,56.8260589 22.9052423,56.8260589" id="Fill-104" fill="#BDBDBD"></path>
                <path d="M22.9052423,56.8260589 L9.06779146,56.8260589 C7.79269021,56.8260589 4.76107193,47.0621313 4.76107193,46.4112028 L27.2054562,46.4112028 C27.2054562,47.0621313 24.1738379,56.8260589 22.9052423,56.8260589 Z" id="Stroke-105" stroke="#212121" stroke-width="1.61372951"></path>
                <path d="M5.41391076,9.98849798 L26.8824522,9.98849798 C29.5770795,9.98849798 31.7616662,12.1743159 31.7616662,14.8704618 L31.7616662,41.2330665 C31.7616662,43.9292123 29.5770795,46.1150303 26.8824522,46.1150303 L5.41391076,46.1150303 C2.71928353,46.1150303 0.534696795,43.9292123 0.534696795,41.2330665 L0.534696795,14.8704618 C0.534696795,12.1743159 2.71928353,9.98849798 5.41391076,9.98849798" id="Fill-106" fill="#BDBDBD"></path>
                <path d="M5.41391076,9.98849798 L26.8824522,9.98849798 C29.5770795,9.98849798 31.7616662,12.1743159 31.7616662,14.8704618 L31.7616662,41.2330665 C31.7616662,43.9292123 29.5770795,46.1150303 26.8824522,46.1150303 L5.41391076,46.1150303 C2.71928353,46.1150303 0.534696795,43.9292123 0.534696795,41.2330665 L0.534696795,14.8704618 C0.534696795,12.1743159 2.71928353,9.98849798 5.41391076,9.98849798 Z" id="Stroke-107" stroke="#212121" stroke-width="1.77510246"></path>
                <path d="M7.75626959,11.6472808 L25.4567567,11.6472808 C27.9854907,11.6472808 30.0347606,13.6983565 30.0347606,16.2278647 L30.0347606,39.1294825 C30.0347606,41.6589907 27.9854907,43.7100664 25.4567567,43.7100664 L7.75626959,43.7100664 C5.22818619,43.7100664 3.17826577,41.6589907 3.17826577,39.1294825 L3.17826577,16.2278647 C3.17826577,13.6983565 5.22818619,11.6472808 7.75626959,11.6472808" id="Fill-108" fill="#FFC107"></path>
                <g id="Page-1" transform="translate(8.475375, 19.059187)" fill="#FFFFFF">
                    <path d="M8.47537538,15.6865735 C4.49446017,15.6865735 1.25561117,12.4494922 1.25561117,8.47074967 C1.25561117,4.49200718 4.49446017,1.25492588 8.47537538,1.25492588 C12.4562906,1.25492588 15.6951396,4.49200718 15.6951396,8.47074967 C15.6951396,12.4494922 12.4562906,15.6865735 8.47537538,15.6865735 M8.47537538,0 C3.79445695,0 0,3.792386 0,8.47074967 C0,13.1491133 3.79445695,16.9414993 8.47537538,16.9414993 C13.1562938,16.9414993 16.9507508,13.1491133 16.9507508,8.47074967 C16.9507508,3.792386 13.1562938,0 8.47537538,0" id="Fill-3"></path>
                    <path d="M11.6088786,5.48477904 L7.06293837,10.0282382 L5.34180937,8.30836227 C5.03544024,8.00184662 4.53884603,8.00184662 4.232163,8.30836227 C3.92547997,8.61487791 3.92547997,9.1112011 4.232163,9.41740301 L6.50795824,11.6919562 C6.6611428,11.8450571 6.86204059,11.9219213 7.06293837,11.9219213 C7.26352226,11.9219213 7.46442004,11.8450571 7.61760461,11.6919562 L12.718525,6.59381979 C13.025208,6.28761787 13.025208,5.79129469 12.718525,5.48477904 C12.4121558,5.1782634 11.9155616,5.1782634 11.6088786,5.48477904" id="Fill-5"></path>
                </g>
                <path d="M7.2978078,12.0205015 L24.998295,12.0205015 C27.5270289,12.0205015 29.5762988,14.0715772 29.5762988,16.6010854 L29.5762988,39.5027032 C29.5762988,42.0322114 27.5270289,44.0832871 24.998295,44.0832871 L7.2978078,44.0832871 C4.76972441,44.0832871 2.71980398,42.0322114 2.71980398,39.5027032 L2.71980398,16.6010854 C2.71980398,14.0715772 4.76972441,12.0205015 7.2978078,12.0205015 Z" id="Stroke-109" stroke="#212121" stroke-width="0.806864754"></path>
            </g>
        </g>
    </g>
</svg>