<?xml version="1.0" encoding="UTF-8"?>
<svg width="469px" height="517px" viewBox="0 0 469 517" version="1.1" xmlns="http://www.w3.org/2000/svg" xmlns:xlink="http://www.w3.org/1999/xlink">
    <!-- Generator: Sketch 48.2 (47327) - http://www.bohemiancoding.com/sketch -->
    <title>illus/share</title>
    <desc>Created with Sketch.</desc>
    <defs>
        <polygon id="path-1" points="0 153.314168 81.5214592 153.314168 81.5214592 0 0 0"></polygon>
        <polygon id="path-3" points="0 153.206504 229.367812 153.206504 229.367812 0.0250858155 0 0.0250858155"></polygon>
        <polygon id="path-5" points="0 211.323486 366.343348 211.323486 366.343348 0.00164667652 0 0.00164667652"></polygon>
        <path d="M40.7292784,51.6364568 C34.9795003,55.699378 27.9522835,58.0877823 20.3646392,58.0877823 C12.7771042,58.0877823 5.74984482,55.6993117 -1.54614099e-11,51.6362875 L2.61946759e-13,0 L40.7292784,0 L40.7292784,51.6364568 L40.7292784,51.6364568 Z" id="path-7"></path>
        <path d="M40.7292784,51.6364568 C34.9795003,55.699378 27.9522835,58.0877823 20.3646392,58.0877823 C12.7771042,58.0877823 5.74984482,55.6993117 -1.54614099e-11,51.6362875 L2.61946759e-13,0 L40.7292784,0 L40.7292784,51.6364568 L40.7292784,51.6364568 Z" id="path-9"></path>
        <path d="M40.7292784,51.6364568 C34.9795003,55.699378 27.9522835,58.0877823 20.3646392,58.0877823 C12.7771042,58.0877823 5.74984482,55.6993117 -1.54614099e-11,51.6362875 L2.61946759e-13,0 L40.7292784,0 L40.7292784,51.6364568 L40.7292784,51.6364568 Z" id="path-11"></path>
        <path d="M20.3646392,58.0877823 C12.7771042,58.0877823 5.74984482,55.6993117 -1.54614099e-11,51.6362875 L2.61946759e-13,0 L40.7292784,0 L40.7292784,51.6364568 C34.9795003,55.699378 27.9522835,58.0877823 20.3646392,58.0877823 Z" id="path-13"></path>
        <path d="M40.7292784,51.6364568 C34.9795003,55.699378 27.9522835,58.0877823 20.3646392,58.0877823 C12.7771042,58.0877823 5.74984482,55.6993117 -1.54614099e-11,51.6362875 L2.61946759e-13,0 L40.7292784,0 L40.7292784,51.6364568 L40.7292784,51.6364568 Z" id="path-15"></path>
        <path d="M40.7292784,51.6364568 C34.9795003,55.699378 27.9522835,58.0877823 20.3646392,58.0877823 C12.7771042,58.0877823 5.74984482,55.6993117 -1.54614099e-11,51.6362875 L2.61946759e-13,0 L40.7292784,0 L40.7292784,51.6364568 L40.7292784,51.6364568 Z" id="path-17"></path>
    </defs>
    <g id="illus/devicelab/share" stroke="none" stroke-width="1" fill="none" fill-rule="evenodd" transform="translate(0.000000, 29.000000)">
        <g id="illus/share">
            <g id="ornement" transform="translate(61.392704, 0.801643)">
                <path d="M153.081197,290.619031 C153.081197,332.581018 118.915655,366.597725 76.7700665,366.597725 C34.6234721,366.597725 0.457929185,332.581018 0.457929185,290.619031 C0.457929185,248.657043 34.6234721,214.640337 76.7700665,214.640337 C118.915655,214.640337 153.081197,248.657043 153.081197,290.619031" id="Fill-1" fill="#673AB7" opacity="0.5"></path>
                <path d="M404.690639,76.1796057 C404.690639,118.141593 370.525097,152.1583 328.379509,152.1583 C286.232914,152.1583 252.067371,118.141593 252.067371,76.1796057 C252.067371,34.2176181 286.232914,0.200911704 328.379509,0.200911704 C370.525097,0.200911704 404.690639,34.2176181 404.690639,76.1796057" id="Fill-3" fill="#673AB7" opacity="0.5"></path>
                <path d="M352.711148,321.859785 C352.711148,343.996451 334.687426,361.941656 312.453903,361.941656 C290.219849,361.941656 272.196127,343.996451 272.196127,321.859785 C272.196127,299.723119 290.219849,281.777914 312.453903,281.777914 C334.687426,281.777914 352.711148,299.723119 352.711148,321.859785" id="Fill-3" fill="#673AB7" opacity="0.5"></path>
                <path d="M70.908573,11.2232347 C70.908573,33.3599008 52.8848505,51.3051059 30.6513277,51.3051059 C8.41727392,51.3051059 -9.6064485,33.3599008 -9.6064485,11.2232347 C-9.6064485,-10.9134315 8.41727392,-28.8586366 30.6513277,-28.8586366 C52.8848505,-28.8586366 70.908573,-10.9134315 70.908573,11.2232347" id="Fill-3" fill="#673AB7" opacity="0.5"></path>
                <path d="M276.013948,394.107497 L295.136265,394.107497 C296.803933,394.107497 298.155579,395.453255 298.155579,397.113657 L298.155579,454.230701 C298.155579,455.891103 299.507224,457.236861 301.174892,457.236861 L324.322961,457.236861" id="Stroke-5" stroke="#BDBDBD" stroke-width="2"></path>
                <path d="M176.376609,417.154825 L199.524677,417.154825 C201.192345,417.154825 202.543991,415.809068 202.543991,414.148665 L202.543991,390.099384 C202.543991,388.438982 203.895636,387.093224 205.563304,387.093224 L226.698497,387.093224" id="Stroke-7" stroke="#BDBDBD" stroke-width="2"></path>
                <path d="M299.162117,258.83039 L299.162117,290.896099 C299.162117,292.556501 297.810471,293.902259 296.142804,293.902259 L204.556967,293.902259 C202.889299,293.902259 201.537653,295.248016 201.537653,296.908419 L201.537653,318.953593 C201.537653,320.613996 200.186008,321.959754 198.51834,321.959754 L176.376709,321.959754" id="Stroke-9" stroke="#BDBDBD" stroke-width="2"></path>
                <path d="M18.365879,107.520329 L42.5203854,107.520329 C44.1880528,107.520329 45.5396987,108.866086 45.5396987,110.526489 L45.5396987,181.672279 C45.5396987,183.332682 46.8913446,184.678439 48.559012,184.678439 L83.7843339,184.678439" id="Stroke-11" stroke="#BDBDBD" stroke-width="2"></path>
                <path d="M19.9777897,117.039836 C14.7060687,117.039836 10.4166309,112.769084 10.4166309,107.520329 C10.4166309,102.271573 14.7060687,98.0008214 19.9777897,98.0008214 C25.2495107,98.0008214 29.5389485,102.271573 29.5389485,107.520329 C29.5389485,112.769084 25.2495107,117.039836 19.9777897,117.039836" id="Fill-13" fill="#FFC107"></path>
                <path d="M19.9777897,96.4977413 C13.8737446,96.4977413 8.90697425,101.442875 8.90697425,107.520329 C8.90697425,113.597782 13.8737446,118.542916 19.9777897,118.542916 C26.0818348,118.542916 31.0486052,113.597782 31.0486052,107.520329 C31.0486052,101.442875 26.0818348,96.4977413 19.9777897,96.4977413 M19.9777897,99.5039014 C24.4242318,99.5039014 28.0292918,103.093257 28.0292918,107.520329 C28.0292918,111.9474 24.4242318,115.536756 19.9777897,115.536756 C15.5313476,115.536756 11.9262876,111.9474 11.9262876,107.520329 C11.9262876,103.093257 15.5313476,99.5039014 19.9777897,99.5039014" id="Fill-15" fill="#FFFFFF"></path>
                <path d="M175.976147,331.479261 C170.704426,331.479261 166.414988,327.208509 166.414988,321.959754 C166.414988,316.710998 170.704426,312.440246 175.976147,312.440246 C181.247868,312.440246 185.537306,316.710998 185.537306,321.959754 C185.537306,327.208509 181.247868,331.479261 175.976147,331.479261" id="Fill-17" fill="#FFC107"></path>
                <path d="M175.976147,310.937166 C169.872102,310.937166 164.905332,315.8823 164.905332,321.959754 C164.905332,328.037207 169.872102,332.982341 175.976147,332.982341 C182.080192,332.982341 187.046962,328.037207 187.046962,321.959754 C187.046962,315.8823 182.080192,310.937166 175.976147,310.937166 M175.976147,313.943326 C180.422589,313.943326 184.027649,317.532682 184.027649,321.959754 C184.027649,326.386825 180.422589,329.976181 175.976147,329.976181 C171.529705,329.976181 167.924645,326.386825 167.924645,321.959754 C167.924645,317.532682 171.529705,313.943326 175.976147,313.943326" id="Fill-19" fill="#FFFFFF"></path>
                <path d="M175.976147,426.674333 C170.704426,426.674333 166.414988,422.403581 166.414988,417.154825 C166.414988,411.90607 170.704426,407.635318 175.976147,407.635318 C181.247868,407.635318 185.537306,411.90607 185.537306,417.154825 C185.537306,422.403581 181.247868,426.674333 175.976147,426.674333" id="Fill-21" fill="#FFC107"></path>
                <path d="M175.976147,406.132238 C169.872102,406.132238 164.905332,411.077372 164.905332,417.154825 C164.905332,423.232279 169.872102,428.177413 175.976147,428.177413 C182.080192,428.177413 187.046962,423.232279 187.046962,417.154825 C187.046962,411.077372 182.080192,406.132238 175.976147,406.132238 M175.976147,409.138398 C180.422589,409.138398 184.027649,412.727754 184.027649,417.154825 C184.027649,421.581897 180.422589,425.171253 175.976147,425.171253 C171.529705,425.171253 167.924645,421.581897 167.924645,417.154825 C167.924645,412.727754 171.529705,409.138398 175.976147,409.138398" id="Fill-23" fill="#FFFFFF"></path>
                <path d="M324.928937,466.756468 C319.657216,466.756468 315.367778,462.485717 315.367778,457.236961 C315.367778,451.988205 319.657216,447.717454 324.928937,447.717454 C330.200658,447.717454 334.490095,451.988205 334.490095,457.236961 C334.490095,462.485717 330.200658,466.756468 324.928937,466.756468" id="Fill-25" fill="#FFC107"></path>
                <path d="M324.928937,446.214374 C318.824892,446.214374 313.858121,451.159507 313.858121,457.236961 C313.858121,463.314415 318.824892,468.259548 324.928937,468.259548 C331.032982,468.259548 335.999752,463.314415 335.999752,457.236961 C335.999752,451.159507 331.032982,446.214374 324.928937,446.214374 M324.928937,449.220534 C329.375379,449.220534 332.980439,452.809889 332.980439,457.236961 C332.980439,461.664033 329.375379,465.253388 324.928937,465.253388 C320.482495,465.253388 316.877435,461.664033 316.877435,457.236961 C316.877435,452.809889 320.482495,449.220534 324.928937,449.220534" id="Fill-27" fill="#FFFFFF"></path>
                <path d="M76.3383047,194.197947 C71.0665837,194.197947 66.7771459,189.927195 66.7771459,184.678439 C66.7771459,179.429684 71.0665837,175.158932 76.3383047,175.158932 C81.6100258,175.158932 85.8994635,179.429684 85.8994635,184.678439 C85.8994635,189.927195 81.6100258,194.197947 76.3383047,194.197947" id="Fill-29" fill="#FFC107"></path>
                <path d="M76.3383047,173.655852 C70.2342597,173.655852 65.2674893,178.600986 65.2674893,184.678439 C65.2674893,190.755893 70.2342597,195.701027 76.3383047,195.701027 C82.4423498,195.701027 87.4091202,190.755893 87.4091202,184.678439 C87.4091202,178.600986 82.4423498,173.655852 76.3383047,173.655852 M76.3383047,176.662012 C80.7847468,176.662012 84.3898069,180.251368 84.3898069,184.678439 C84.3898069,189.105511 80.7847468,192.694867 76.3383047,192.694867 C71.8918627,192.694867 68.2868026,189.105511 68.2868026,184.678439 C68.2868026,180.251368 71.8918627,176.662012 76.3383047,176.662012" id="Fill-31" fill="#FFFFFF"></path>
                <path d="M226.297532,396.612731 C221.025811,396.612731 216.736373,392.341979 216.736373,387.093224 C216.736373,381.844468 221.025811,377.573717 226.297532,377.573717 C231.569253,377.573717 235.858691,381.844468 235.858691,387.093224 C235.858691,392.341979 231.569253,396.612731 226.297532,396.612731" id="Fill-33" fill="#FFC107"></path>
                <path d="M226.297532,376.070637 C220.193487,376.070637 215.226717,381.01577 215.226717,387.093224 C215.226717,393.170678 220.193487,398.115811 226.297532,398.115811 C232.401577,398.115811 237.368348,393.170678 237.368348,387.093224 C237.368348,381.01577 232.401577,376.070637 226.297532,376.070637 M226.297532,379.076797 C230.743974,379.076797 234.349034,382.666152 234.349034,387.093224 C234.349034,391.520296 230.743974,395.109651 226.297532,395.109651 C221.85109,395.109651 218.24603,391.520296 218.24603,387.093224 C218.24603,382.666152 221.85109,379.076797 226.297532,379.076797" id="Fill-35" fill="#FFFFFF"></path>
                <path d="M275.612983,403.627105 C270.341262,403.627105 266.051824,399.356353 266.051824,394.107598 C266.051824,388.858842 270.341262,384.58809 275.612983,384.58809 C280.884704,384.58809 285.174142,388.858842 285.174142,394.107598 C285.174142,399.356353 280.884704,403.627105 275.612983,403.627105" id="Fill-37" fill="#FFC107"></path>
                <path d="M275.612983,383.08501 C269.508938,383.08501 264.542167,388.030144 264.542167,394.107598 C264.542167,400.185051 269.508938,405.130185 275.612983,405.130185 C281.717028,405.130185 286.683798,400.185051 286.683798,394.107598 C286.683798,388.030144 281.717028,383.08501 275.612983,383.08501 M275.612983,386.09117 C280.059425,386.09117 283.664485,389.680526 283.664485,394.107598 C283.664485,398.534669 280.059425,402.124025 275.612983,402.124025 C271.166541,402.124025 267.561481,398.534669 267.561481,394.107598 C267.561481,389.680526 271.166541,386.09117 275.612983,386.09117" id="Fill-39" fill="#FFFFFF"></path>
                <path d="M299.162016,268.349897 C293.890295,268.349897 289.600858,264.079146 289.600858,258.83039 C289.600858,253.581634 293.890295,249.310883 299.162016,249.310883 C304.433737,249.310883 308.723175,253.581634 308.723175,258.83039 C308.723175,264.079146 304.433737,268.349897 299.162016,268.349897" id="Fill-41" fill="#FFC107"></path>
                <path d="M299.162016,247.807803 C293.057971,247.807803 288.091201,252.752936 288.091201,258.83039 C288.091201,264.907844 293.057971,269.852977 299.162016,269.852977 C305.266061,269.852977 310.232832,264.907844 310.232832,258.83039 C310.232832,252.752936 305.266061,247.807803 299.162016,247.807803 M299.162016,250.813963 C303.608458,250.813963 307.213518,254.403318 307.213518,258.83039 C307.213518,263.257462 303.608458,266.846817 299.162016,266.846817 C294.715574,266.846817 291.110514,263.257462 291.110514,258.83039 C291.110514,254.403318 294.715574,250.813963 299.162016,250.813963" id="Fill-43" fill="#FFFFFF"></path>
            </g>
            <g id="android" transform="translate(385.465665, 334.685832)">
                <g id="Group-49">
                    <path d="M74.7152652,152.234491 L6.80615054,152.234491 C3.64757443,152.234491 1.08693105,149.690987 1.08693105,146.553553 L1.08693105,6.76061499 C1.08693105,3.62307292 3.64757443,1.07967724 6.80615054,1.07967724 L74.7152652,1.07967724 C77.87395,1.07967724 80.4344847,3.62307292 80.4344847,6.76061499 L80.4344847,146.553553 C80.4344847,149.690987 77.87395,152.234491 74.7152652,152.234491 Z" id="Fill-1" fill="#BDBDBD"></path>
                    <path d="M74.7152652,152.234491 L6.80615054,152.234491 C3.64757443,152.234491 1.08693105,149.690987 1.08693105,146.553553 L1.08693105,6.76061499 C1.08693105,3.62307292 3.64757443,1.07967724 6.80615054,1.07967724 L74.7152652,1.07967724 C77.87395,1.07967724 80.4344847,3.62307292 80.4344847,6.76061499 L80.4344847,146.553553 C80.4344847,149.690987 77.87395,152.234491 74.7152652,152.234491 Z" id="Stroke-3" stroke="#212121" stroke-width="2.16"></path>
                    <mask id="mask-2" fill="white">
                        <use xlink:href="#path-1"></use>
                    </mask>
                    <g id="Clip-6"></g>
                    <polygon id="Fill-5" fill="#FFC107" mask="url(#mask-2)" points="6.03862661 137.958759 75.764634 137.958759 75.764634 17.0349076 6.03862661 17.0349076"></polygon>
                </g>
                <g id="Group-21" transform="translate(20.128755, 10.020534)" stroke="#757575" stroke-linecap="round" stroke-linejoin="round">
                    <path d="M6.03862661,0 L40.2575107,0" id="Stroke-67"></path>
                    <path d="M0,0 L1.00643777,0" id="Stroke-68"></path>
                    <path d="M12.0772532,135.277207 L31.1995708,135.277207" id="Stroke-72"></path>
                </g>
                <path d="M4.47683245,138.198687 L76.2157166,138.198687 L76.2157166,17.2748359 L4.47683245,17.2748359 L4.47683245,138.198687 Z M6.65073803,136.039333 L74.041811,136.039333 L74.041811,19.4341904 L6.65073803,19.4341904 L6.65073803,136.039333 Z" id="Fill-52" fill="#212121"></path>
                <g id="Page-1" transform="translate(15.096567, 25.051335)">
                    <path d="M2.01287554,9.01848049 L48.3090129,9.01848049 C49.4201202,9.01848049 50.3218884,10.4250962 50.3218884,12.1582478 L50.3218884,100.071732 C50.3218884,101.806453 49.4201202,103.211499 48.3090129,103.211499 L2.01287554,103.211499 C0.90176824,103.211499 0,101.806453 0,100.071732 L0,12.1582478 C0,10.4250962 0.90176824,9.01848049 2.01287554,9.01848049 Z" id="Fill-4" fill="#FFFFFF"></path>
                    <path d="M40.2575107,5.01026694 L35.2253219,5.01026694 C35.2253219,5.01026694 32.1828605,3.31479261 32.2060086,2.00410678 C32.174809,0.703441478 31.3042403,0 30.193133,0 L20.1287554,0 C19.0176481,0 18.1309764,0.594217659 18.1158798,2.00410678 L15.0965665,5.01026694 L10.0643777,5.01026694 C8.3967103,5.01026694 7.04506438,6.35702669 7.04506438,8.0164271 L7.04506438,10.0205339 C7.04506438,11.6809363 8.3967103,13.026694 10.0643777,13.026694 L40.2575107,13.026694 C41.9251781,13.026694 43.276824,11.6809363 43.276824,10.0205339 L43.276824,8.0164271 C43.276824,6.35702669 41.9251781,5.01026694 40.2575107,5.01026694 Z" id="Fill-5" fill="#E4E7E8"></path>
                    <polygon id="Fill-6" fill="#CED0D0" points="7.04506438 11.0225873 43.276824 11.0225873 43.276824 13.026694 7.04506438 13.026694"></polygon>
                    <path d="M6.03862661,26.0533881 L13.083691,26.0533881 L13.083691,19.0390144 L6.03862661,19.0390144 L6.03862661,26.0533881 Z M16.1030043,19.0390144 L16.1030043,21.0431211 L44.2832618,21.0431211 L44.2832618,19.0390144 L16.1030043,19.0390144 Z M16.1030043,24.0492813 L34.2188841,24.0492813 L34.2188841,22.0451745 L16.1030043,22.0451745 L16.1030043,24.0492813 Z" id="Fill-7" fill="#ECECEC"></path>
                    <path d="M6.03862661,38.0780287 L13.083691,38.0780287 L13.083691,31.063655 L6.03862661,31.063655 L6.03862661,38.0780287 Z M16.1030043,31.063655 L16.1030043,33.0677618 L44.2832618,33.0677618 L44.2832618,31.063655 L16.1030043,31.063655 Z M16.1030043,36.073922 L39.251073,36.073922 L39.251073,34.0698152 L16.1030043,34.0698152 L16.1030043,36.073922 Z" id="Fill-8" fill="#673AB7"></path>
                    <path d="M6.03862661,50.1026694 L13.083691,50.1026694 L13.083691,43.0882957 L6.03862661,43.0882957 L6.03862661,50.1026694 Z M16.1030043,43.0882957 L16.1030043,45.0924025 L44.2832618,45.0924025 L44.2832618,43.0882957 L16.1030043,43.0882957 Z M16.1030043,48.0985626 L34.2188841,48.0985626 L34.2188841,46.0944559 L16.1030043,46.0944559 L16.1030043,48.0985626 Z" id="Fill-9" fill="#673AB7"></path>
                    <path d="M6.03862661,62.1273101 L13.083691,62.1273101 L13.083691,55.1129363 L6.03862661,55.1129363 L6.03862661,62.1273101 Z M16.1030043,55.1129363 L16.1030043,57.1170431 L44.2832618,57.1170431 L44.2832618,55.1129363 L16.1030043,55.1129363 Z M16.1030043,60.1232033 L39.251073,60.1232033 L39.251073,58.1190965 L16.1030043,58.1190965 L16.1030043,60.1232033 Z" id="Fill-10" fill="#ECECEC"></path>
                    <path d="M6.03862661,86.1765914 L13.083691,86.1765914 L13.083691,79.1622177 L6.03862661,79.1622177 L6.03862661,86.1765914 Z M16.1030043,79.1622177 L16.1030043,81.1663244 L44.2832618,81.1663244 L44.2832618,79.1622177 L16.1030043,79.1622177 Z M16.1030043,84.1724846 L39.251073,84.1724846 L39.251073,82.1683778 L16.1030043,82.1683778 L16.1030043,84.1724846 Z" id="Fill-10-Copy-2" fill="#ECECEC"></path>
                    <path d="M6.03862661,74.1519507 L13.083691,74.1519507 L13.083691,67.137577 L6.03862661,67.137577 L6.03862661,74.1519507 Z M16.1030043,67.137577 L16.1030043,69.1416838 L44.2832618,69.1416838 L44.2832618,67.137577 L16.1030043,67.137577 Z M16.1030043,72.1478439 L39.251073,72.1478439 L39.251073,70.1437372 L16.1030043,70.1437372 L16.1030043,72.1478439 Z" id="Fill-10-Copy" fill="#673AB7"></path>
                    <path d="M6.03862661,98.201232 L13.083691,98.201232 L13.083691,91.1868583 L6.03862661,91.1868583 L6.03862661,98.201232 Z M16.1030043,91.1868583 L16.1030043,93.1909651 L44.2832618,93.1909651 L44.2832618,91.1868583 L16.1030043,91.1868583 Z M16.1030043,96.1971253 L39.251073,96.1971253 L39.251073,94.1930185 L16.1030043,94.1930185 L16.1030043,96.1971253 Z" id="Fill-10-Copy-3" fill="#673AB7"></path>
                </g>
            </g>
            <g id="iphone" transform="translate(0.000000, 3.807803)">
                <g id="Group-94">
                    <path d="M1.11100273,23.3347737 C0.804254877,23.3347737 0.555501366,23.0876528 0.555501366,22.7829182 L0.555501366,19.4717853 C0.555501366,19.1670507 0.804254877,18.9199298 1.11100273,18.9199298 L3.33300819,18.9199298 C3.63975605,18.9199298 3.88850956,19.1670507 3.88850956,19.4717853 L3.88850956,22.7829182 C3.88850956,23.0876528 3.63975605,23.3347737 3.33300819,23.3347737 L1.11100273,23.3347737 Z" id="Fill-1" fill="#D1C4E9"></path>
                    <path d="M1.11100273,23.3347737 L3.33300819,23.3347737 C3.63975605,23.3347737 3.88850956,23.0876528 3.88850956,22.7829182 L3.88850956,19.4717853 C3.88850956,19.1670507 3.63975605,18.9199298 3.33300819,18.9199298 L1.11100273,18.9199298 C0.804254877,18.9199298 0.555501366,19.1670507 0.555501366,19.4717853 L0.555501366,22.7829182 C0.555501366,23.0876528 0.804254877,23.3347737 1.11100273,23.3347737 Z" id="Stroke-3" stroke="#212121" stroke-width="1.1038961"></path>
                    <path d="M1.11100273,40.9941493 L3.33300819,40.9941493 C3.63975605,40.9941493 3.88850956,40.7470284 3.88850956,40.4422938 L3.88850956,30.508895 C3.88850956,30.2041604 3.63975605,29.9570396 3.33300819,29.9570396 L1.11100273,29.9570396 C0.804254877,29.9570396 0.555501366,30.2041604 0.555501366,30.508895 L0.555501366,40.4422938 C0.555501366,40.7470284 0.804254877,40.9941493 1.11100273,40.9941493" id="Fill-5" fill="#D1C4E9"></path>
                    <path d="M1.11100273,40.9941493 L3.33300819,40.9941493 C3.63975605,40.9941493 3.88850956,40.7470284 3.88850956,40.4422938 L3.88850956,30.508895 C3.88850956,30.2041604 3.63975605,29.9570396 3.33300819,29.9570396 L1.11100273,29.9570396 C0.804254877,29.9570396 0.555501366,30.2041604 0.555501366,30.508895 L0.555501366,40.4422938 C0.555501366,40.7470284 0.804254877,40.9941493 1.11100273,40.9941493 Z" id="Stroke-7" stroke="#212121" stroke-width="1.1038961"></path>
                    <path d="M84.4362076,40.9941493 L82.2142021,40.9941493 C81.9074543,40.9941493 81.6587007,40.7470284 81.6587007,40.4422938 L81.6587007,32.716317 C81.6587007,32.4115824 81.9074543,32.1644615 82.2142021,32.1644615 L84.4362076,32.1644615 C84.7429554,32.1644615 84.9917089,32.4115824 84.9917089,32.716317 L84.9917089,40.4422938 C84.9917089,40.7470284 84.7429554,40.9941493 84.4362076,40.9941493" id="Fill-9" fill="#D1C4E9"></path>
                    <path d="M84.4362076,40.9941493 L82.2142021,40.9941493 C81.9074543,40.9941493 81.6587007,40.7470284 81.6587007,40.4422938 L81.6587007,32.716317 C81.6587007,32.4115824 81.9074543,32.1644615 82.2142021,32.1644615 L84.4362076,32.1644615 C84.7429554,32.1644615 84.9917089,32.4115824 84.9917089,32.716317 L84.9917089,40.4422938 C84.9917089,40.7470284 84.7429554,40.9941493 84.4362076,40.9941493 Z" id="Stroke-11" stroke="#212121" stroke-width="1.1038961"></path>
                    <path d="M1.11100273,43.2015713 L3.33300819,43.2015713 C3.63975605,43.2015713 3.88850956,43.4486922 3.88850956,43.7534268 L3.88850956,52.5831146 C3.88850956,52.8878492 3.63975605,53.1349701 3.33300819,53.1349701 L1.11100273,53.1349701 C0.804254877,53.1349701 0.555501366,52.8878492 0.555501366,52.5831146 L0.555501366,43.7534268 C0.555501366,43.4486922 0.804254877,43.2015713 1.11100273,43.2015713" id="Fill-13" fill="#D1C4E9"></path>
                    <path d="M1.11100273,43.2015713 L3.33300819,43.2015713 C3.63975605,43.2015713 3.88850956,43.4486922 3.88850956,43.7534268 L3.88850956,52.5831146 C3.88850956,52.8878492 3.63975605,53.1349701 3.33300819,53.1349701 L1.11100273,53.1349701 C0.804254877,53.1349701 0.555501366,52.8878492 0.555501366,52.5831146 L0.555501366,43.7534268 C0.555501366,43.4486922 0.804254877,43.2015713 1.11100273,43.2015713 Z" id="Stroke-15" stroke="#212121" stroke-width="1.1038961"></path>
                    <path d="M69.9788401,150.206351 L15.8646746,150.206351 C9.38330687,150.206351 4.12926385,144.824766 4.12926385,138.186276 L4.12926385,12.1217324 C4.12926385,5.48324195 9.38330687,0.10165759 15.8646746,0.10165759 L69.9788401,0.10165759 C76.4600968,0.10165759 81.7142509,5.48324195 81.7142509,12.1217324 L81.7142509,138.186276 C81.7142509,144.824766 76.4600968,150.206351 69.9788401,150.206351" id="Fill-17" fill="#BDBDBD"></path>
                    <path d="M69.9788401,150.206351 L15.8646746,150.206351 C9.38330687,150.206351 4.12926385,144.824766 4.12926385,138.186276 L4.12926385,12.1217324 C4.12926385,5.48324195 9.38330687,0.10165759 15.8646746,0.10165759 L69.9788401,0.10165759 C76.4600968,0.10165759 81.7142509,5.48324195 81.7142509,12.1217324 L81.7142509,138.186276 C81.7142509,144.824766 76.4600968,150.206351 69.9788401,150.206351 Z" id="Stroke-19" stroke="#212121" stroke-width="2.20779221"></path>
                    <path d="M76.6591885,129.291028 L8.88802185,129.291028 C8.581274,129.291028 8.33252048,129.043907 8.33252048,128.739172 L8.33252048,19.4717853 C8.33252048,19.1670507 8.581274,18.9199298 8.88802185,18.9199298 L76.6591885,18.9199298 C76.9659363,18.9199298 77.2146898,19.1670507 77.2146898,19.4717853 L77.2146898,128.739172 C77.2146898,129.043907 76.9659363,129.291028 76.6591885,129.291028" id="Fill-31" fill="#FFC107"></path>
                    <path d="M47.3554026,135.34018 C52.2203725,141.799428 44.9211956,149.050699 38.4192744,144.217659 C38.3753898,144.184989 38.335727,144.145587 38.3029524,144.10199 C33.4378714,137.642853 40.7371594,130.391472 47.2389695,135.224512 C47.2828542,135.257181 47.3226281,135.296584 47.3554026,135.34018" id="Fill-33" fill="#757575"></path>
                </g>
                <path d="M58.3733906,54.110883 L26.167382,54.110883 C23.9431545,54.110883 22.1617597,55.9045585 22.1617597,58.1190965 L22.1416309,94.1930185 L30.193133,86.1765914 L58.3733906,86.1765914 C60.597618,86.1765914 62.3991416,84.3829158 62.3991416,82.1683778 L62.3991416,58.1190965 C62.3991416,55.9045585 60.597618,54.110883 58.3733906,54.110883 Z M34.2188841,78.1601643 L30.193133,78.1601643 L30.193133,74.1519507 L34.2188841,74.1519507 L34.2188841,78.1601643 Z M34.2188841,72.1478439 L30.193133,72.1478439 L30.193133,68.1396304 L34.2188841,68.1396304 L34.2188841,72.1478439 Z M34.2188841,66.1355236 L30.193133,66.1355236 L30.193133,62.1273101 L34.2188841,62.1273101 L34.2188841,66.1355236 Z M48.3090129,78.1601643 L38.2446352,78.1601643 L38.2446352,74.1519507 L48.3090129,74.1519507 L48.3090129,78.1601643 Z M54.3476395,72.1478439 L38.2446352,72.1478439 L38.2446352,68.1396304 L54.3476395,68.1396304 L54.3476395,72.1478439 Z M54.3476395,66.1355236 L38.2446352,66.1355236 L38.2446352,62.1273101 L54.3476395,62.1273101 L54.3476395,66.1355236 Z" id="Page-1" fill="#FFFFFF"></path>
                <path d="M76.3781701,129.410112 L8.60700351,129.410112 C8.30025566,129.410112 8.05150215,129.162991 8.05150215,128.858257 L8.05150215,19.5908699 C8.05150215,19.2861353 8.30025566,19.0390144 8.60700351,19.0390144 L76.3781701,19.0390144 C76.684918,19.0390144 76.9336715,19.2861353 76.9336715,19.5908699 L76.9336715,128.858257 C76.9336715,129.162991 76.684918,129.410112 76.3781701,129.410112 Z" id="Stroke-97" stroke="#212121" stroke-width="2.20779221"></path>
            </g>
            <g id="ipad" transform="translate(8.051502, 293.401232)">
                <g id="Group-59" transform="translate(0.000000, 0.082902)">
                    <path d="M1.09830358,138.280638 L1.09830358,14.9509092 C1.09830358,7.31039422 7.52448571,1.11645875 15.4517427,1.11645875 L213.916156,1.11645875 C221.843304,1.11645875 228.269595,7.31039422 228.269595,14.9509092 L228.269595,138.280638 C228.269595,145.921152 221.843304,152.115088 213.916156,152.115088 L15.4517427,152.115088 C7.52448571,152.115088 1.09830358,145.921152 1.09830358,138.280638 Z" id="Fill-1" fill="#BDBDBD"></path>
                    <path d="M1.09830358,138.280638 L1.09830358,14.9509092 C1.09830358,7.31039422 7.52448571,1.11645875 15.4517427,1.11645875 L213.916156,1.11645875 C221.843304,1.11645875 228.269595,7.31039422 228.269595,14.9509092 L228.269595,138.280638 C228.269595,145.921152 221.843304,152.115088 213.916156,152.115088 L15.4517427,152.115088 C7.52448571,152.115088 1.09830358,145.921152 1.09830358,138.280638 Z" id="Stroke-3" stroke="#212121" stroke-width="2.1825779"></path>
                    <path d="M21.2466825,81.7769807 C13.5336171,87.512158 4.87472837,78.9074003 10.6459847,71.2425532 C10.6848794,71.1908742 10.732008,71.1440402 10.784012,71.105281 C18.4970774,65.3701037 27.1560745,73.9749691 21.3847099,81.6398162 C21.3458152,81.6914951 21.2986865,81.7383292 21.2466825,81.7769807" id="Fill-5" fill="#757575"></path>
                    <mask id="mask-4" fill="white">
                        <use xlink:href="#path-3"></use>
                    </mask>
                    <g id="Clip-8"></g>
                </g>
                <path d="M31.1995708,138.525323 L31.1995708,13.6133576 C31.1995708,13.2893953 31.4975106,13.026694 31.8651141,13.026694 L212.052925,13.026694 C212.420529,13.026694 212.718469,13.2893953 212.718469,13.6133576 L212.718469,138.525323 C212.718469,138.849285 212.420529,139.111986 212.052925,139.111986 L31.8651141,139.111986 C31.4975106,139.111986 31.1995708,138.849285 31.1995708,138.525323 Z" id="Stroke-64" fill="#FFC107"></path>
                <path d="M31.1995708,138.525323 L31.1995708,13.6133576 C31.1995708,13.2893953 31.4975106,13.026694 31.8651141,13.026694 L212.052925,13.026694 C212.420529,13.026694 212.718469,13.2893953 212.718469,13.6133576 L212.718469,138.525323 C212.718469,138.849285 212.420529,139.111986 212.052925,139.111986 L31.8651141,139.111986 C31.4975106,139.111986 31.1995708,138.849285 31.1995708,138.525323 Z" id="Stroke-64" stroke="#212121" stroke-width="2.07611331"></path>
            </g>
            <g id="montre" transform="translate(286.834764, 344.505955)">
                <path d="M51.6522985,36.9206571 C50.4023028,36.9206571 48.6329852,35.1259795 48.6329852,32.9124435 C48.6329852,30.6989076 50.4023028,28.90423 51.6522985,28.90423 L51.6522985,36.9206571 Z" id="Fill-100" fill="#D1C4E9"></path>
                <path d="M51.6522985,36.9206571 C50.4023028,36.9206571 48.6329852,35.1259795 48.6329852,32.9124435 C48.6329852,30.6989076 50.4023028,28.90423 51.6522985,28.90423 L51.6522985,36.9206571 Z" id="Stroke-101" stroke="#212121" stroke-width="1.1"></path>
                <path d="M7.3690367,16.3334702 L42.0911397,16.3334702 C42.0911397,14.3293634 37.4001333,0.300616016 35.4335539,0.300616016 L14.0266225,0.300616016 C12.0600431,0.300616016 7.3690367,14.3293634 7.3690367,16.3334702" id="Fill-102" fill="#BDBDBD"></path>
                <path d="M7.3690367,16.3334702 L42.0911397,16.3334702 C42.0911397,14.3293634 37.4001333,0.300616016 35.4335539,0.300616016 L14.0266225,0.300616016 C12.0600431,0.300616016 7.3690367,14.3293634 7.3690367,16.3334702 Z" id="Stroke-103" stroke="#212121" stroke-width="2"></path>
                <path d="M35.4350635,87.4792608 L14.0281322,87.4792608 C12.0555142,87.4792608 7.36551416,72.44846 7.36551416,71.4464066 L42.0876172,71.4464066 C42.0876172,72.44846 37.3976172,87.4792608 35.4350635,87.4792608" id="Fill-104" fill="#BDBDBD"></path>
                <path d="M35.4350635,87.4792608 L14.0281322,87.4792608 C12.0555142,87.4792608 7.36551416,72.44846 7.36551416,71.4464066 L42.0876172,71.4464066 C42.0876172,72.44846 37.3976172,87.4792608 35.4350635,87.4792608 Z" id="Stroke-105" stroke="#212121" stroke-width="2"></path>
                <path d="M8.37547446,15.3765092 L41.5879208,15.3765092 C45.7565861,15.3765092 49.1362041,18.7414045 49.1362041,22.8919097 L49.1362041,63.4750719 C49.1362041,67.625577 45.7565861,70.9904723 41.5879208,70.9904723 L8.37547446,70.9904723 C4.20680923,70.9904723 0.827191202,67.625577 0.827191202,63.4750719 L0.827191202,22.8919097 C0.827191202,18.7414045 4.20680923,15.3765092 8.37547446,15.3765092" id="Fill-106" fill="#BDBDBD"></path>
                <path d="M8.37547446,15.3765092 L41.5879208,15.3765092 C45.7565861,15.3765092 49.1362041,18.7414045 49.1362041,22.8919097 L49.1362041,63.4750719 C49.1362041,67.625577 45.7565861,70.9904723 41.5879208,70.9904723 L8.37547446,70.9904723 C4.20680923,70.9904723 0.827191202,67.625577 0.827191202,63.4750719 L0.827191202,22.8919097 C0.827191202,18.7414045 4.20680923,15.3765092 8.37547446,15.3765092 Z" id="Stroke-107" stroke="#212121" stroke-width="2.2"></path>
                <path d="M11.1080536,18.036961 L38.4912124,18.036961 C42.4032361,18.036961 45.573515,21.1944312 45.573515,25.0884107 L45.573515,60.343655 C45.573515,64.2376345 42.4032361,67.3951047 38.4912124,67.3951047 L11.1080536,67.3951047 C7.19703648,67.3951047 4.02575107,64.2376345 4.02575107,60.343655 L4.02575107,25.0884107 C4.02575107,21.1944312 7.19703648,18.036961 11.1080536,18.036961" id="Fill-108" fill="#FFC107"></path>
                <path d="M32.3737482,48.4899259 C31.3963853,48.4899259 30.5154727,48.8757567 29.8467507,49.4970097 L20.6839735,44.0626812 C20.7547037,43.7684035 20.7997139,43.4610468 20.7997139,43.1471506 C20.7997139,42.8332544 20.7547037,42.5258976 20.6839735,42.2316199 L29.7503004,36.8496075 C30.4383125,37.503558 31.3578052,37.9090073 32.3737482,37.9090073 C34.5020845,37.9090073 36.2317597,36.1498805 36.2317597,33.9853045 C36.2317597,31.8207284 34.5020845,30.0616016 32.3737482,30.0616016 C30.2454119,30.0616016 28.5157368,31.8207284 28.5157368,33.9853045 C28.5157368,34.2992007 28.5607469,34.6065574 28.6314771,34.9008351 L19.5651502,40.2828475 C18.8771382,39.628897 17.9576454,39.2234477 16.9417024,39.2234477 C14.8133668,39.2234477 13.083691,40.9825745 13.083691,43.1471506 C13.083691,45.3117266 14.8133668,47.0708534 16.9417024,47.0708534 C17.9576454,47.0708534 18.8771382,46.6654041 19.5651502,46.0114536 L28.7279274,51.4457821 C28.6636272,51.7204413 28.6250471,52.0081795 28.6250471,52.3024572 C28.6250471,54.4081783 30.3032821,56.1149897 32.3737482,56.1149897 C34.4442144,56.1149897 36.1224493,54.4081783 36.1224493,52.3024572 C36.1224493,50.1967367 34.4442144,48.4899259 32.3737482,48.4899259 Z" id="Page-1" fill="#FFFFFF"></path>
                <path d="M11.289917,18.5046193 L38.6730758,18.5046193 C42.5850994,18.5046193 45.7553783,21.6620895 45.7553783,25.556069 L45.7553783,60.8113133 C45.7553783,64.7052928 42.5850994,67.862763 38.6730758,67.862763 L11.289917,67.862763 C7.37889979,67.862763 4.20761438,64.7052928 4.20761438,60.8113133 L4.20761438,25.556069 C4.20761438,21.6620895 7.37889979,18.5046193 11.289917,18.5046193 Z" id="Stroke-109" stroke="#212121"></path>
            </g>
            <g id="ordi" transform="translate(102.656652, 50.102669)">
                <g id="Group-61" transform="translate(0.000000, 0.108681)">
                    <path d="M352.370407,210.225702 L13.9728963,210.225702 C6.86352513,210.225702 1.10016318,204.474629 1.10016318,197.380308 L1.10016318,193.758937 L365.24325,193.758937 L365.24325,197.380308 C365.24325,204.474629 359.479889,210.225702 352.370407,210.225702 Z" id="Fill-1" fill="#BDBDBD"></path>
                    <path d="M352.370407,210.225702 L13.9728963,210.225702 C6.86352513,210.225702 1.10016318,204.474629 1.10016318,197.380308 L1.10016318,193.758937 L365.24325,193.758937 L365.24325,197.380308 C365.24325,204.474629 359.479889,210.225702 352.370407,210.225702 Z" id="Stroke-3" stroke="#212121" stroke-width="2.18618619"></path>
                    <path d="M200.861767,202.541212 L164.38145,202.541212 C159.569371,202.541212 155.668419,198.648578 155.668419,193.84676 L155.668419,193.758937 L209.574798,193.758937 L209.574798,193.84676 C209.574798,198.648578 205.673846,202.541212 200.861767,202.541212" id="Fill-5" fill="#BDBDBD"></path>
                    <path d="M200.861767,202.541212 L164.38145,202.541212 C159.569371,202.541212 155.668419,198.648578 155.668419,193.84676 L155.668419,193.758937 L209.574798,193.758937 L209.574798,193.84676 C209.574798,198.648578 205.673846,202.541212 200.861767,202.541212 Z" id="Stroke-7" stroke="#212121" stroke-width="2.18618619"></path>
                    <path d="M332.239312,193.211637 L35.2041655,193.211637 L35.2041655,13.8318083 C35.2041655,6.7998409 40.9168115,1.09937613 47.9638053,1.09937613 L319.479672,1.09937613 C326.526666,1.09937613 332.239312,6.7998409 332.239312,13.8318083 L332.239312,193.211637 Z" id="Fill-9" fill="#BDBDBD"></path>
                    <path d="M332.239312,193.211637 L35.2041655,193.211637 L35.2041655,13.8318083 C35.2041655,6.7998409 40.9168115,1.09937613 47.9638053,1.09937613 L319.479672,1.09937613 C326.526666,1.09937613 332.239312,6.7998409 332.239312,13.8318083 L332.239312,193.211637 Z" id="Stroke-11" stroke="#212121" stroke-width="2.18618619"></path>
                    <path d="M186.655412,9.88165089 C186.655412,11.4984677 185.341967,12.8091124 183.721695,12.8091124 C182.101533,12.8091124 180.788088,11.4984677 180.788088,9.88165089 C180.788088,8.26483411 182.101533,6.95418938 183.721695,6.95418938 C185.341967,6.95418938 186.655412,8.26483411 186.655412,9.88165089" id="Fill-13" fill="#191C1E"></path>
                    <mask id="mask-6" fill="white">
                        <use xlink:href="#path-5"></use>
                    </mask>
                    <g id="Clip-16"></g>
                </g>
                <g id="Group-74" transform="translate(48.309013, 17.034908)" fill="#FFC107">
                    <polygon id="Stroke-73" points="0.10319221 169.058789 270.735215 169.058789 270.735215 0 0.10319221 0"></polygon>
                </g>
                <polygon id="Stroke-73" stroke="#212121" stroke-width="2.18618619" points="48.3989068 185.634235 319.030929 185.634235 319.030929 16.5754458 48.3989068 16.5754458"></polygon>
            </g>
            <g id="Group-24" transform="translate(73.469957, 76.156057)">
                <g id="Page-1" transform="translate(89.572961, 0.000000)">
                    <path d="M35.2253219,0 C54.6807075,0 70.4506438,15.717091 70.4506438,35.1048309 C70.4506438,54.4936678 54.6807075,70.2096617 35.2253219,70.2096617 C15.7710371,70.2096617 0,54.4936678 0,35.1048309 C0,15.717091 15.7710371,0 35.2253219,0 Z" id="Fill-1" fill="#FFFFFF"></path>
                    <g id="Group-11" transform="translate(14.860683, 8.059072)">
                        <path d="M20.3646392,33.0794016 C31.6125248,33.0794016 40.7292784,41.3065478 40.7292784,51.4545865 C40.7292784,61.6031731 31.6125248,69.8297714 20.3646392,69.8297714 C9.11675362,69.8297714 0,61.6031731 0,51.4545865 C0,41.3065478 9.11675362,33.0794016 20.3646392,33.0794016 Z" id="Fill-3" fill="#FFC107"></path>
                        <g id="Group-22" transform="translate(0.000000, 4.008214)">
                            <mask id="mask-8" fill="white">
                                <use xlink:href="#path-7"></use>
                            </mask>
                            <g id="Clip-4"></g>
                            <g id="badges" mask="url(#mask-8)">
                                <g transform="translate(24.154506, 41.084189)">
                                    <ellipse id="Oval-5" fill="#FFFFFF" cx="5.03218884" cy="5.01026694" rx="5.03218884" ry="5.01026694"></ellipse>
                                    <g id="ecv-logo" stroke-width="1" fill="none" transform="translate(3.019313, 3.006160)">
                                        <path d="M0,2.00410678 C0,2.00410678 0,1.95456678 0,1.89635729 L0,0.107749485 C0,0.0482410875 0.04975675,0 0.108220931,0 L1.90465461,0 C1.96442338,0 2.06263229,0 2.12109647,0 L3.91753014,0 C3.97729891,0 4.02575107,0.0495399929 4.02575107,0.107749485 L4.02575107,1.89635729 C4.02575107,1.95586569 4.02575107,2.05364677 4.02575107,2.11185626 L4.02575107,3.90046407 C4.02575107,3.95997246 3.97599432,4.00796198 3.91753014,4.00766639 L2.12109647,3.99858361" id="Rectangle-7" stroke="#673AB7" stroke-width="0.5" stroke-linecap="round" stroke-linejoin="round" transform="translate(2.012876, 2.004107) rotate(180.000000) translate(-2.012876, -2.004107) "></path>
                                        <path d="M2.6167382,0 C2.6167382,0 2.67728172,0 2.72730107,0 L3.9151882,0 C3.97625039,0 4.02575107,0.0500101642 4.02575107,0.117944173 L4.02575107,1.38513591 M2.32463536,1.75406314 L4.0029046,0.027287497" id="Rectangle-7" stroke="#FFC107" stroke-width="0.5" stroke-linecap="round" stroke-linejoin="round"></path>
                                        <rect id="Rectangle-7" stroke="#673AB7" stroke-width="0.5" x="0" y="2.00410678" width="2.01287554" height="2.00410678" rx="0.113333333"></rect>
                                    </g>
                                </g>
                            </g>
                        </g>
                        <path d="M6.87994568,14.4299602 L33.8493328,14.4299602 C36.7372588,14.4299602 39.0780915,16.7633344 39.0780915,19.6408335 C39.0780915,22.5188812 36.7372588,24.8517069 33.8493328,24.8517069 L6.87994568,24.8517069 C3.99201968,24.8517069 1.65118696,22.5188812 1.65118696,19.6408335 C1.65118696,16.7633344 3.99201968,14.4299602 6.87994568,14.4299602 Z" id="Fill-6" fill="#752C00"></path>
                        <path d="M7.24163425,12.0246407 L34.2110213,12.0246407 C37.0989473,12.0246407 39.43978,15.1745775 39.43978,19.0590554 C39.43978,22.9442738 37.0989473,26.0934702 34.2110213,26.0934702 L7.24163425,26.0934702 C4.35370826,26.0934702 2.01287554,22.9442738 2.01287554,19.0590554 C2.01287554,15.1745775 4.35370826,12.0246407 7.24163425,12.0246407 Z" id="Fill-6" fill="#752C00" transform="translate(20.726328, 19.059055) rotate(90.000000) translate(-20.726328, -19.059055) "></path>
                        <path d="M20.5376207,5.01026694 C29.6565759,5.01026694 37.0494903,13.3602801 37.0494903,23.6597083 C37.0494903,33.9591366 29.6565759,42.3091497 20.5376207,42.3091497 C11.4186655,42.3091497 4.02575107,33.9591366 4.02575107,23.6597083 C4.02575107,13.3602801 11.4186655,5.01026694 20.5376207,5.01026694 Z" id="Fill-7" fill="#E09274"></path>
                        <path d="M3.85387037,18.2679056 L3.95569357,18.2695511 C9.98692915,18.2695511 15.2745802,16.1994631 18.2500191,13.0893945 C21.307467,15.8659672 26.2929508,17.6755115 31.9312039,17.6755115 C33.4524975,17.6755115 34.9242555,17.5422229 36.3239116,17.295392 C33.9296905,9.54380657 27.6271099,4.00821355 20.2270403,4.00821355 C12.5220515,4.00821355 6.00536699,10.0105911 3.85387037,18.2679056 Z" id="Fill-8" fill="#752C00"></path>
                        <path d="M25.5933979,22.109142 C23.9218463,22.109142 22.5662218,23.4601294 22.5662218,25.1259634 C22.5662218,26.7923458 23.9218463,28.1427848 25.5933979,28.1427848 C27.2649495,28.1427848 28.620574,26.7923458 28.620574,25.1259634 C28.620574,23.4601294 27.2649495,22.109142 25.5933979,22.109142 Z M15.1358805,22.109142 C13.4643289,22.109142 12.1087044,23.4601294 12.1087044,25.1259634 C12.1087044,26.7923458 13.4643289,28.1427848 15.1358805,28.1427848 C16.8074321,28.1427848 18.1630566,26.7923458 18.1630566,25.1259634 C18.1630566,23.4601294 16.8074321,22.109142 15.1358805,22.109142 Z" id="Fill-9" fill="#FFFFFF"></path>
                        <path d="M15.1358805,23.7546809 C14.3757841,23.7546809 13.7598914,24.3684669 13.7598914,25.1259634 C13.7598914,25.8834598 14.3757841,26.4972458 15.1358805,26.4972458 C15.8959769,26.4972458 16.5118696,25.8834598 16.5118696,25.1259634 C16.5118696,24.3684669 15.8959769,23.7546809 15.1358805,23.7546809 Z M25.5933979,23.7546809 C24.8333015,23.7546809 24.2174088,24.3684669 24.2174088,25.1259634 C24.2174088,25.8834598 24.8333015,26.4972458 25.5933979,26.4972458 C26.3534943,26.4972458 26.9693871,25.8834598 26.9693871,25.1259634 C26.9693871,24.3684669 26.3534943,23.7546809 25.5933979,23.7546809 Z" id="Fill-10" fill="#73C11D"></path>
                    </g>
                    <path d="M35.288067,43.900785 C33.7772309,43.900785 32.6054386,43.1410946 32.532236,43.0922769 C32.1524629,42.8405095 32.049539,42.3298439 32.3016202,41.9513699 C32.5537014,41.574547 33.0644685,41.4719696 33.4425904,41.7199029 C33.5190954,41.7687151 35.2655008,42.8772653 36.8522914,41.7391009 C37.2216069,41.4752661 37.7373277,41.5580916 38.0048199,41.9266923 C38.270661,42.295293 38.1870009,42.8092497 37.8165846,43.0752785 C36.9541146,43.6945497 36.0751328,43.9007905 35.288067,43.9007905 L35.288067,43.900785 Z" id="Fill-12" fill="#9C6550"></path>
                </g>
                <g id="Page-1" transform="translate(180.152361, 0.000000)">
                    <path d="M35.2253219,0 C54.6801571,0 70.4506438,15.7023332 70.4506438,35.0718686 C70.4506438,54.441952 54.6801571,70.1437372 35.2253219,70.1437372 C15.7710371,70.1437372 0,54.441952 0,35.0718686 C0,15.7023332 15.7710371,0 35.2253219,0 Z" id="Fill-1" fill="#FFFFFF"></path>
                    <g id="Group-11" transform="translate(14.860683, 12.055955)">
                        <path d="M20.3646392,29.0438912 C31.6119744,29.0438912 40.7292784,37.2633124 40.7292784,47.4018224 C40.7292784,57.5408798 31.6119744,65.7597536 20.3646392,65.7597536 C9.11730402,65.7597536 0,57.5408798 0,47.4018224 C0,37.2633124 9.11730402,29.0438912 20.3646392,29.0438912 Z" id="Fill-3" fill="#FFC107"></path>
                        <g id="Group-22">
                            <mask id="mask-10" fill="white">
                                <use xlink:href="#path-9"></use>
                            </mask>
                            <g id="Clip-4"></g>
                            <g id="badges" mask="url(#mask-10)">
                                <g transform="translate(24.154506, 41.084189)">
                                    <ellipse id="Oval-5" fill="#FFFFFF" cx="5.03218884" cy="5.01026694" rx="5.03218884" ry="5.01026694"></ellipse>
                                    <g id="ecv-logo" stroke-width="1" fill="none" transform="translate(3.019313, 3.006160)">
                                        <path d="M0,2.00410678 C0,2.00410678 0,1.95456678 0,1.89635729 L0,0.107749485 C0,0.0482410875 0.04975675,0 0.108220931,0 L1.90465461,0 C1.96442338,0 2.06263229,0 2.12109647,0 L3.91753014,0 C3.97729891,0 4.02575107,0.0495399929 4.02575107,0.107749485 L4.02575107,1.89635729 C4.02575107,1.95586569 4.02575107,2.05364677 4.02575107,2.11185626 L4.02575107,3.90046407 C4.02575107,3.95997246 3.97599432,4.00796198 3.91753014,4.00766639 L2.12109647,3.99858361" id="Rectangle-7" stroke="#673AB7" stroke-width="0.5" stroke-linecap="round" stroke-linejoin="round" transform="translate(2.012876, 2.004107) rotate(180.000000) translate(-2.012876, -2.004107) "></path>
                                        <path d="M2.6167382,0 C2.6167382,0 2.67728172,0 2.72730107,0 L3.9151882,0 C3.97625039,0 4.02575107,0.0500101642 4.02575107,0.117944173 L4.02575107,1.38513591 M2.32463536,1.75406314 L4.0029046,0.027287497" id="Rectangle-7" stroke="#FFC107" stroke-width="0.5" stroke-linecap="round" stroke-linejoin="round"></path>
                                        <rect id="Rectangle-7" stroke="#673AB7" stroke-width="0.5" x="0" y="2.00410678" width="2.01287554" height="2.00410678" rx="0.113333333"></rect>
                                    </g>
                                </g>
                            </g>
                        </g>
                        <path d="M20.3646392,1.09599589 C29.4835944,1.09599589 36.8765089,9.43816863 36.8765089,19.7279261 C36.8765089,30.0182315 29.4835944,38.3598563 20.3646392,38.3598563 C11.245684,38.3598563 3.85276958,30.0182315 3.85276958,19.7279261 C3.85276958,9.43816863 11.245684,1.09599589 20.3646392,1.09599589 Z" id="Fill-6" fill="#EE9D7E"></path>
                        <path d="M3.85387037,14.2463026 L3.95569357,14.2479466 C9.98692915,14.2479466 25.6697064,12.9016331 28.6451453,9.79448473 C31.7025931,12.5684503 26.2940516,13.6544648 31.9317543,13.6544648 C33.4524975,13.6544648 34.9242555,13.5213013 36.324462,13.2747023 C33.9302409,5.53039528 27.6271099,0 20.2270403,0 C12.5215011,0 6.00536699,5.99674153 3.85387037,14.2463026 Z" id="Fill-7" fill="#414443"></path>
                        <path d="M25.5933979,18.0839322 C23.9218463,18.0839322 22.5662218,19.4336512 22.5662218,21.0979209 C22.5662218,22.7627387 23.9218463,24.1119097 25.5933979,24.1119097 C27.2649495,24.1119097 28.620574,22.7627387 28.620574,21.0979209 C28.620574,19.4336512 27.2649495,18.0839322 25.5933979,18.0839322 Z M15.1358805,18.0839322 C13.4643289,18.0839322 12.1087044,19.4336512 12.1087044,21.0979209 C12.1087044,22.7627387 13.4643289,24.1119097 15.1358805,24.1119097 C16.8074321,24.1119097 18.1630566,22.7627387 18.1630566,21.0979209 C18.1630566,19.4336512 16.8074321,18.0839322 15.1358805,18.0839322 Z" id="Fill-8" fill="#FFFFFF"></path>
                        <path d="M15.1358805,19.7279261 C14.3757841,19.7279261 13.7598914,20.3411358 13.7598914,21.0979209 C13.7598914,21.8547061 14.3757841,22.4679158 15.1358805,22.4679158 C15.8959769,22.4679158 16.5118696,21.8547061 16.5118696,21.0979209 C16.5118696,20.3411358 15.8959769,19.7279261 15.1358805,19.7279261 Z M25.5933979,19.7279261 C24.8333015,19.7279261 24.2174088,20.3411358 24.2174088,21.0979209 C24.2174088,21.8547061 24.8333015,22.4679158 25.5933979,22.4679158 C26.3534943,22.4679158 26.9693871,21.8547061 26.9693871,21.0979209 C26.9693871,20.3411358 26.3534943,19.7279261 25.5933979,19.7279261 Z" id="Fill-9" fill="#8B572A"></path>
                        <path d="M20.4273843,31.8036088 C18.9165482,31.8036088 17.7447559,31.0446317 17.6715533,30.9958599 C17.2917803,30.7443288 17.1888563,30.2341427 17.4409375,29.8560241 C17.6930187,29.479555 18.2037859,29.3770739 18.5819077,29.6247745 C18.6584127,29.6735408 20.4048181,30.7810501 21.9916088,29.6439544 C22.3609243,29.3803674 22.876645,29.4631151 23.1441373,29.8313697 C23.4099784,30.1996243 23.3263182,30.7130984 22.955902,30.9788774 C22.093432,31.5975671 21.2144501,31.8036143 20.4273843,31.8036143 L20.4273843,31.8036088 Z" id="Fill-10" fill="#9C6550"></path>
                    </g>
                </g>
                <g id="Page-1-Copy-4" transform="translate(269.725322, 81.166324)">
                    <path d="M35.2253219,0 C54.6801571,0 70.4506438,15.7023332 70.4506438,35.0718686 C70.4506438,54.441952 54.6801571,70.1437372 35.2253219,70.1437372 C15.7710371,70.1437372 0,54.441952 0,35.0718686 C0,15.7023332 15.7710371,0 35.2253219,0 Z" id="Fill-1" fill="#FFFFFF"></path>
                    <g id="Group-11" transform="translate(14.860683, 12.055955)">
                        <path d="M20.3646392,29.0438912 C31.6119744,29.0438912 40.7292784,36.8145213 40.7292784,46.3994555 C40.7292784,55.9849073 31.6119744,63.7550199 20.3646392,63.7550199 C9.11730402,63.7550199 0,55.9849073 0,46.3994555 C0,36.8145213 9.11730402,29.0438912 20.3646392,29.0438912 Z" id="Fill-3" fill="#FFC107"></path>
                        <g id="Group-22">
                            <mask id="mask-12" fill="white">
                                <use xlink:href="#path-11"></use>
                            </mask>
                            <g id="Clip-4"></g>
                            <g id="badges" mask="url(#mask-12)">
                                <g transform="translate(24.154506, 41.084189)">
                                    <ellipse id="Oval-5" fill="#FFFFFF" cx="5.03218884" cy="5.01026694" rx="5.03218884" ry="5.01026694"></ellipse>
                                    <g id="ecv-logo" stroke-width="1" fill="none" transform="translate(3.019313, 3.006160)">
                                        <path d="M0,2.00410678 C0,2.00410678 0,1.95456678 0,1.89635729 L0,0.107749485 C0,0.0482410875 0.04975675,0 0.108220931,0 L1.90465461,0 C1.96442338,0 2.06263229,0 2.12109647,0 L3.91753014,0 C3.97729891,0 4.02575107,0.0495399929 4.02575107,0.107749485 L4.02575107,1.89635729 C4.02575107,1.95586569 4.02575107,2.05364677 4.02575107,2.11185626 L4.02575107,3.90046407 C4.02575107,3.95997246 3.97599432,4.00796198 3.91753014,4.00766639 L2.12109647,3.99858361" id="Rectangle-7" stroke="#673AB7" stroke-width="0.5" stroke-linecap="round" stroke-linejoin="round" transform="translate(2.012876, 2.004107) rotate(180.000000) translate(-2.012876, -2.004107) "></path>
                                        <path d="M2.6167382,0 C2.6167382,0 2.67728172,0 2.72730107,0 L3.9151882,0 C3.97625039,0 4.02575107,0.0500101642 4.02575107,0.117944173 L4.02575107,1.38513591 M2.32463536,1.75406314 L4.0029046,0.027287497" id="Rectangle-7" stroke="#FFC107" stroke-width="0.5" stroke-linecap="round" stroke-linejoin="round"></path>
                                        <rect id="Rectangle-7" stroke="#673AB7" stroke-width="0.5" x="0" y="2.00410678" width="2.01287554" height="2.00410678" rx="0.113333333"></rect>
                                    </g>
                                </g>
                            </g>
                        </g>
                        <path d="M20.3646392,1.09599589 C29.4835944,1.09599589 36.8765089,9.43816863 36.8765089,19.7279261 C36.8765089,30.0182315 29.4835944,38.3598563 20.3646392,38.3598563 C11.245684,38.3598563 3.85276958,30.0182315 3.85276958,19.7279261 C3.85276958,9.43816863 11.245684,1.09599589 20.3646392,1.09599589 Z" id="Fill-6" fill="#E09274"></path>
                        <path d="M2.8474326,17.2524628 C11.2742653,12.5442601 28.2647826,11.473707 37.3308998,16.2808624 C34.9366787,8.53655544 35.2882242,0 20.2270403,0 C5.16585636,9.22893357e-16 4.99892922,9.00290169 2.8474326,17.2524628 Z" id="Fill-7" fill="#752C00"></path>
                        <path d="M25.5933979,18.0839322 C23.9218463,18.0839322 22.5662218,19.4336512 22.5662218,21.0979209 C22.5662218,22.7627387 23.9218463,24.1119097 25.5933979,24.1119097 C27.2649495,24.1119097 28.620574,22.7627387 28.620574,21.0979209 C28.620574,19.4336512 27.2649495,18.0839322 25.5933979,18.0839322 Z M15.1358805,18.0839322 C13.4643289,18.0839322 12.1087044,19.4336512 12.1087044,21.0979209 C12.1087044,22.7627387 13.4643289,24.1119097 15.1358805,24.1119097 C16.8074321,24.1119097 18.1630566,22.7627387 18.1630566,21.0979209 C18.1630566,19.4336512 16.8074321,18.0839322 15.1358805,18.0839322 Z" id="Fill-8" fill="#FFFFFF"></path>
                        <path d="M15.1358805,19.7279261 C14.3757841,19.7279261 13.7598914,20.3411358 13.7598914,21.0979209 C13.7598914,21.8547061 14.3757841,22.4679158 15.1358805,22.4679158 C15.8959769,22.4679158 16.5118696,21.8547061 16.5118696,21.0979209 C16.5118696,20.3411358 15.8959769,19.7279261 15.1358805,19.7279261 Z M25.5933979,19.7279261 C24.8333015,19.7279261 24.2174088,20.3411358 24.2174088,21.0979209 C24.2174088,21.8547061 24.8333015,22.4679158 25.5933979,22.4679158 C26.3534943,22.4679158 26.9693871,21.8547061 26.9693871,21.0979209 C26.9693871,20.3411358 26.3534943,19.7279261 25.5933979,19.7279261 Z" id="Fill-9" fill="#73C21C"></path>
                        <path d="M20.4273843,31.8036088 C18.9165482,31.8036088 17.7447559,31.0446317 17.6715533,30.9958599 C17.2917803,30.7443288 17.1888563,30.2341427 17.4409375,29.8560241 C17.6930187,29.479555 18.2037859,29.3770739 18.5819077,29.6247745 C18.6584127,29.6735408 20.4048181,30.7810501 21.9916088,29.6439544 C22.3609243,29.3803674 22.876645,29.4631151 23.1441373,29.8313697 C23.4099784,30.1996243 23.3263182,30.7130984 22.955902,30.9788774 C22.093432,31.5975671 21.2144501,31.8036143 20.4273843,31.8036143 L20.4273843,31.8036088 Z" id="Fill-10" fill="#9C6550"></path>
                    </g>
                </g>
                <g id="Page-1-Copy-4" transform="translate(89.572961, 81.166324)">
                    <path d="M35.2253219,0 C54.6801571,0 70.4506438,15.7023332 70.4506438,35.0718686 C70.4506438,54.441952 54.6801571,70.1437372 35.2253219,70.1437372 C15.7710371,70.1437372 0,54.441952 0,35.0718686 C0,15.7023332 15.7710371,0 35.2253219,0 Z" id="Fill-1" fill="#FFFFFF"></path>
                    <g id="Group-11" transform="translate(14.860683, 12.055955)">
                        <path d="M20.3646392,29.0438912 C31.6119744,29.0438912 40.7292784,36.8145213 40.7292784,46.3994555 C40.7292784,55.9849073 31.6119744,63.7550199 20.3646392,63.7550199 C9.11730402,63.7550199 0,55.9849073 0,46.3994555 C0,36.8145213 9.11730402,29.0438912 20.3646392,29.0438912 Z" id="Fill-3" fill="#FFC107"></path>
                        <g id="Group-22">
                            <mask id="mask-14" fill="white">
                                <use xlink:href="#path-13"></use>
                            </mask>
                            <g id="Clip-4"></g>
                            <g id="badges" mask="url(#mask-14)">
                                <g transform="translate(24.154506, 41.084189)">
                                    <ellipse id="Oval-5" fill="#FFFFFF" cx="5.03218884" cy="5.01026694" rx="5.03218884" ry="5.01026694"></ellipse>
                                    <g id="ecv-logo" stroke-width="1" fill="none" transform="translate(3.019313, 3.006160)">
                                        <path d="M0,2.00410678 C0,2.00410678 0,1.95456678 0,1.89635729 L0,0.107749485 C0,0.0482410875 0.04975675,0 0.108220931,0 L1.90465461,0 C1.96442338,0 2.06263229,0 2.12109647,0 L3.91753014,0 C3.97729891,0 4.02575107,0.0495399929 4.02575107,0.107749485 L4.02575107,1.89635729 C4.02575107,1.95586569 4.02575107,2.05364677 4.02575107,2.11185626 L4.02575107,3.90046407 C4.02575107,3.95997246 3.97599432,4.00796198 3.91753014,4.00766639 L2.12109647,3.99858361" id="Rectangle-7" stroke="#673AB7" stroke-width="0.5" stroke-linecap="round" stroke-linejoin="round" transform="translate(2.012876, 2.004107) rotate(180.000000) translate(-2.012876, -2.004107) "></path>
                                        <path d="M2.6167382,0 C2.6167382,0 2.67728172,0 2.72730107,0 L3.9151882,0 C3.97625039,0 4.02575107,0.0500101642 4.02575107,0.117944173 L4.02575107,1.38513591 M2.32463536,1.75406314 L4.0029046,0.027287497" id="Rectangle-7" stroke="#FFC107" stroke-width="0.5" stroke-linecap="round" stroke-linejoin="round"></path>
                                        <rect id="Rectangle-7" stroke="#673AB7" stroke-width="0.5" x="0" y="2.00410678" width="2.01287554" height="2.00410678" rx="0.113333333"></rect>
                                    </g>
                                </g>
                            </g>
                        </g>
                        <path d="M20.3646392,1.09599589 C29.4835944,1.09599589 36.8765089,9.43816863 36.8765089,19.7279261 C36.8765089,30.0182315 29.4835944,38.3598563 20.3646392,38.3598563 C11.245684,38.3598563 3.85276958,30.0182315 3.85276958,19.7279261 C3.85276958,9.43816863 11.245684,1.09599589 20.3646392,1.09599589 Z" id="Fill-6" fill="#F5B197"></path>
                        <path d="M3.85387037,14.2463026 L3.95569357,14.2479466 C9.98692915,14.2479466 15.2745802,12.1798024 18.2500191,9.072654 C21.307467,11.8466196 26.2940516,13.6544648 31.9317543,13.6544648 C33.4524975,13.6544648 34.9242555,13.5213013 36.324462,13.2747023 C33.9302409,5.53039528 27.6271099,0 20.2270403,0 C12.5215011,0 6.00536699,5.99674153 3.85387037,14.2463026 Z" id="Fill-7" fill="#F8E71C"></path>
                        <path d="M25.5933979,18.0839322 C23.9218463,18.0839322 22.5662218,19.4336512 22.5662218,21.0979209 C22.5662218,22.7627387 23.9218463,24.1119097 25.5933979,24.1119097 C27.2649495,24.1119097 28.620574,22.7627387 28.620574,21.0979209 C28.620574,19.4336512 27.2649495,18.0839322 25.5933979,18.0839322 Z M15.1358805,18.0839322 C13.4643289,18.0839322 12.1087044,19.4336512 12.1087044,21.0979209 C12.1087044,22.7627387 13.4643289,24.1119097 15.1358805,24.1119097 C16.8074321,24.1119097 18.1630566,22.7627387 18.1630566,21.0979209 C18.1630566,19.4336512 16.8074321,18.0839322 15.1358805,18.0839322 Z" id="Fill-8" fill="#FFFFFF"></path>
                        <path d="M15.1358805,19.7279261 C14.3757841,19.7279261 13.7598914,20.3411358 13.7598914,21.0979209 C13.7598914,21.8547061 14.3757841,22.4679158 15.1358805,22.4679158 C15.8959769,22.4679158 16.5118696,21.8547061 16.5118696,21.0979209 C16.5118696,20.3411358 15.8959769,19.7279261 15.1358805,19.7279261 Z M25.5933979,19.7279261 C24.8333015,19.7279261 24.2174088,20.3411358 24.2174088,21.0979209 C24.2174088,21.8547061 24.8333015,22.4679158 25.5933979,22.4679158 C26.3534943,22.4679158 26.9693871,21.8547061 26.9693871,21.0979209 C26.9693871,20.3411358 26.3534943,19.7279261 25.5933979,19.7279261 Z" id="Fill-9" fill="#3177C9"></path>
                        <path d="M20.4273843,31.8036088 C18.9165482,31.8036088 17.7447559,31.0446317 17.6715533,30.9958599 C17.2917803,30.7443288 17.1888563,30.2341427 17.4409375,29.8560241 C17.6930187,29.479555 18.2037859,29.3770739 18.5819077,29.6247745 C18.6584127,29.6735408 20.4048181,30.7810501 21.9916088,29.6439544 C22.3609243,29.3803674 22.876645,29.4631151 23.1441373,29.8313697 C23.4099784,30.1996243 23.3263182,30.7130984 22.955902,30.9788774 C22.093432,31.5975671 21.2144501,31.8036143 20.4273843,31.8036143 L20.4273843,31.8036088 Z" id="Fill-10" fill="#9C6550"></path>
                    </g>
                </g>
                <g id="Page-1-Copy-2" transform="translate(269.725322, 0.000000)">
                    <path d="M35.2253219,0 C54.6807075,0 70.4506438,15.717091 70.4506438,35.1048309 C70.4506438,54.4936678 54.6807075,70.2096617 35.2253219,70.2096617 C15.7710371,70.2096617 0,54.4936678 0,35.1048309 C0,15.717091 15.7710371,0 35.2253219,0 Z" id="Fill-1" fill="#FFFFFF"></path>
                    <g id="Group-11" transform="translate(14.860683, 7.057019)">
                        <path d="M20.3646392,34.081455 C31.6125248,34.081455 40.7292784,42.3086012 40.7292784,52.4566399 C40.7292784,62.6052265 31.6125248,70.8318248 20.3646392,70.8318248 C9.11675362,70.8318248 0,62.6052265 0,52.4566399 C0,42.3086012 9.11675362,34.081455 20.3646392,34.081455 Z" id="Fill-3" fill="#FFC107"></path>
                        <g id="Group-22" transform="translate(0.000000, 5.010267)">
                            <mask id="mask-16" fill="white">
                                <use xlink:href="#path-15"></use>
                            </mask>
                            <g id="Clip-4"></g>
                            <g id="badges" mask="url(#mask-16)">
                                <g transform="translate(24.154506, 41.084189)">
                                    <ellipse id="Oval-5" fill="#FFFFFF" cx="5.03218884" cy="5.01026694" rx="5.03218884" ry="5.01026694"></ellipse>
                                    <g id="ecv-logo" stroke-width="1" fill="none" transform="translate(3.019313, 3.006160)">
                                        <path d="M0,2.00410678 C0,2.00410678 0,1.95456678 0,1.89635729 L0,0.107749485 C0,0.0482410875 0.04975675,0 0.108220931,0 L1.90465461,0 C1.96442338,0 2.06263229,0 2.12109647,0 L3.91753014,0 C3.97729891,0 4.02575107,0.0495399929 4.02575107,0.107749485 L4.02575107,1.89635729 C4.02575107,1.95586569 4.02575107,2.05364677 4.02575107,2.11185626 L4.02575107,3.90046407 C4.02575107,3.95997246 3.97599432,4.00796198 3.91753014,4.00766639 L2.12109647,3.99858361" id="Rectangle-7" stroke="#673AB7" stroke-width="0.5" stroke-linecap="round" stroke-linejoin="round" transform="translate(2.012876, 2.004107) rotate(180.000000) translate(-2.012876, -2.004107) "></path>
                                        <path d="M2.6167382,0 C2.6167382,0 2.67728172,0 2.72730107,0 L3.9151882,0 C3.97625039,0 4.02575107,0.0500101642 4.02575107,0.117944173 L4.02575107,1.38513591 M2.32463536,1.75406314 L4.0029046,0.027287497" id="Rectangle-7" stroke="#FFC107" stroke-width="0.5" stroke-linecap="round" stroke-linejoin="round"></path>
                                        <rect id="Rectangle-7" stroke="#673AB7" stroke-width="0.5" x="0" y="2.00410678" width="2.01287554" height="2.00410678" rx="0.113333333"></rect>
                                    </g>
                                </g>
                            </g>
                        </g>
                        <path d="M6.87994568,13.4279068 L33.8493328,13.4279068 C36.7372588,13.4279068 39.0780915,15.7612811 39.0780915,18.6387802 C39.0780915,21.5168278 36.7372588,23.8496535 33.8493328,23.8496535 L6.87994568,23.8496535 C3.99201968,23.8496535 1.65118696,21.5168278 1.65118696,18.6387802 C1.65118696,15.7612811 3.99201968,13.4279068 6.87994568,13.4279068 Z" id="Fill-6" fill="#F8E71C" transform="translate(20.364639, 18.638780) rotate(90.000000) translate(-20.364639, -18.638780) "></path>
                        <path d="M20.3646392,6.10729291 C29.4835944,6.10729291 36.8765089,14.457306 36.8765089,24.7567343 C36.8765089,35.0561626 29.4835944,43.4061757 20.3646392,43.4061757 C11.245684,43.4061757 3.85276958,35.0561626 3.85276958,24.7567343 C3.85276958,14.457306 11.245684,6.10729291 20.3646392,6.10729291 Z" id="Fill-7" fill="#F6B197"></path>
                        <path d="M3.85387037,19.2699589 L3.95569357,19.2716045 C9.98692915,19.2716045 17.2516014,16.9914643 20.2270403,13.8813957 C23.2844882,16.6579684 25.8287904,18.2974454 36.3239116,18.2974454 C33.9296905,10.54586 27.6271099,5.01026694 20.2270403,5.01026694 C12.5220515,5.01026694 6.00536699,11.0126445 3.85387037,19.2699589 Z" id="Fill-8" fill="#F8E71C"></path>
                        <path d="M25.5933979,23.1111954 C23.9218463,23.1111954 22.5662218,24.4621828 22.5662218,26.1280168 C22.5662218,27.7943992 23.9218463,29.1448382 25.5933979,29.1448382 C27.2649495,29.1448382 28.620574,27.7943992 28.620574,26.1280168 C28.620574,24.4621828 27.2649495,23.1111954 25.5933979,23.1111954 Z M15.1358805,23.1111954 C13.4643289,23.1111954 12.1087044,24.4621828 12.1087044,26.1280168 C12.1087044,27.7943992 13.4643289,29.1448382 15.1358805,29.1448382 C16.8074321,29.1448382 18.1630566,27.7943992 18.1630566,26.1280168 C18.1630566,24.4621828 16.8074321,23.1111954 15.1358805,23.1111954 Z" id="Fill-9" fill="#FFFFFF"></path>
                        <path d="M15.1358805,24.7567343 C14.3757841,24.7567343 13.7598914,25.3705203 13.7598914,26.1280168 C13.7598914,26.8855132 14.3757841,27.4992992 15.1358805,27.4992992 C15.8959769,27.4992992 16.5118696,26.8855132 16.5118696,26.1280168 C16.5118696,25.3705203 15.8959769,24.7567343 15.1358805,24.7567343 Z M25.5933979,24.7567343 C24.8333015,24.7567343 24.2174088,25.3705203 24.2174088,26.1280168 C24.2174088,26.8855132 24.8333015,27.4992992 25.5933979,27.4992992 C26.3534943,27.4992992 26.9693871,26.8855132 26.9693871,26.1280168 C26.9693871,25.3705203 26.3534943,24.7567343 25.5933979,24.7567343 Z" id="Fill-10" fill="#3177C9"></path>
                    </g>
                    <path d="M35.288067,43.900785 C33.7772309,43.900785 32.6054386,43.1410946 32.532236,43.0922769 C32.1524629,42.8405095 32.049539,42.3298439 32.3016202,41.9513699 C32.5537014,41.574547 33.0644685,41.4719696 33.4425904,41.7199029 C33.5190954,41.7687151 35.2655008,42.8772653 36.8522914,41.7391009 C37.2216069,41.4752661 37.7373277,41.5580916 38.0048199,41.9266923 C38.270661,42.295293 38.1870009,42.8092497 37.8165846,43.0752785 C36.9541146,43.6945497 36.0751328,43.9007905 35.288067,43.9007905 L35.288067,43.900785 Z" id="Fill-12" fill="#9C6550"></path>
                </g>
                <g id="Page-1-Copy-5" transform="translate(180.152361, 80.164271)">
                    <path d="M35.2253219,0 C54.6807075,0 70.4506438,15.717091 70.4506438,35.1048309 C70.4506438,54.4936678 54.6807075,70.2096617 35.2253219,70.2096617 C15.7710371,70.2096617 0,54.4936678 0,35.1048309 C0,15.717091 15.7710371,0 35.2253219,0 Z" id="Fill-1" fill="#FFFFFF"></path>
                    <g id="Group-11" transform="translate(14.860683, 12.067286)">
                        <path d="M20.3646392,29.0711881 C31.6125248,29.0711881 40.7292784,37.2983343 40.7292784,47.446373 C40.7292784,57.5949596 31.6125248,65.8215579 20.3646392,65.8215579 C9.11675362,65.8215579 0,57.5949596 0,47.446373 C0,37.2983343 9.11675362,29.0711881 20.3646392,29.0711881 Z" id="Fill-3" fill="#FFC107"></path>
                        <g id="Group-22">
                            <mask id="mask-18" fill="white">
                                <use xlink:href="#path-17"></use>
                            </mask>
                            <g id="Clip-4"></g>
                            <g id="badges" mask="url(#mask-18)">
                                <g transform="translate(24.154506, 41.084189)">
                                    <ellipse id="Oval-5" fill="#FFFFFF" cx="5.03218884" cy="5.01026694" rx="5.03218884" ry="5.01026694"></ellipse>
                                    <g id="ecv-logo" stroke-width="1" fill="none" transform="translate(3.019313, 3.006160)">
                                        <path d="M0,2.00410678 C0,2.00410678 0,1.95456678 0,1.89635729 L0,0.107749485 C0,0.0482410875 0.04975675,0 0.108220931,0 L1.90465461,0 C1.96442338,0 2.06263229,0 2.12109647,0 L3.91753014,0 C3.97729891,0 4.02575107,0.0495399929 4.02575107,0.107749485 L4.02575107,1.89635729 C4.02575107,1.95586569 4.02575107,2.05364677 4.02575107,2.11185626 L4.02575107,3.90046407 C4.02575107,3.95997246 3.97599432,4.00796198 3.91753014,4.00766639 L2.12109647,3.99858361" id="Rectangle-7" stroke="#673AB7" stroke-width="0.5" stroke-linecap="round" stroke-linejoin="round" transform="translate(2.012876, 2.004107) rotate(180.000000) translate(-2.012876, -2.004107) "></path>
                                        <path d="M2.6167382,0 C2.6167382,0 2.67728172,0 2.72730107,0 L3.9151882,0 C3.97625039,0 4.02575107,0.0500101642 4.02575107,0.117944173 L4.02575107,1.38513591 M2.32463536,1.75406314 L4.0029046,0.027287497" id="Rectangle-7" stroke="#FFC107" stroke-width="0.5" stroke-linecap="round" stroke-linejoin="round"></path>
                                        <rect id="Rectangle-7" stroke="#673AB7" stroke-width="0.5" x="0" y="2.00410678" width="2.01287554" height="2.00410678" rx="0.113333333"></rect>
                                    </g>
                                </g>
                            </g>
                        </g>
                        <path d="M6.87994568,10.4217467 L33.8493328,10.4217467 C36.7372588,10.4217467 39.0780915,12.7551209 39.0780915,15.63262 C39.0780915,18.5106676 36.7372588,20.8434933 33.8493328,20.8434933 L6.87994568,20.8434933 C3.99201968,20.8434933 1.65118696,18.5106676 1.65118696,15.63262 C1.65118696,12.7551209 3.99201968,10.4217467 6.87994568,10.4217467 Z" id="Fill-6" fill="#414443"></path>
                        <path d="M20.3646392,1.09702596 C29.4835944,1.09702596 36.8765089,9.44703909 36.8765089,19.7464674 C36.8765089,30.0458956 29.4835944,38.3959088 20.3646392,38.3959088 C11.245684,38.3959088 3.85276958,30.0458956 3.85276958,19.7464674 C3.85276958,9.44703909 11.245684,1.09702596 20.3646392,1.09702596 Z" id="Fill-7" fill="#EF9D7E"></path>
                        <path d="M3.85387037,14.259692 L3.95569357,14.2613375 C9.98692915,14.2613375 15.2745802,12.1912495 18.2500191,9.08118093 C21.307467,11.8577537 26.2929508,13.667298 31.9312039,13.667298 C33.4524975,13.667298 34.9242555,13.5340093 36.3239116,13.2871785 C33.9296905,5.53559302 27.6271099,0 20.2270403,0 C12.5220515,0 6.00536699,6.00237757 3.85387037,14.259692 Z" id="Fill-8" fill="#414443"></path>
                        <path d="M25.5933979,18.1009284 C23.9218463,18.1009284 22.5662218,19.4519159 22.5662218,21.1177498 C22.5662218,22.7841323 23.9218463,24.1345712 25.5933979,24.1345712 C27.2649495,24.1345712 28.620574,22.7841323 28.620574,21.1177498 C28.620574,19.4519159 27.2649495,18.1009284 25.5933979,18.1009284 Z M15.1358805,18.1009284 C13.4643289,18.1009284 12.1087044,19.4519159 12.1087044,21.1177498 C12.1087044,22.7841323 13.4643289,24.1345712 15.1358805,24.1345712 C16.8074321,24.1345712 18.1630566,22.7841323 18.1630566,21.1177498 C18.1630566,19.4519159 16.8074321,18.1009284 15.1358805,18.1009284 Z" id="Fill-9" fill="#FFFFFF"></path>
                        <path d="M15.1358805,19.7464674 C14.3757841,19.7464674 13.7598914,20.3602534 13.7598914,21.1177498 C13.7598914,21.8752462 14.3757841,22.4890323 15.1358805,22.4890323 C15.8959769,22.4890323 16.5118696,21.8752462 16.5118696,21.1177498 C16.5118696,20.3602534 15.8959769,19.7464674 15.1358805,19.7464674 Z M25.5933979,19.7464674 C24.8333015,19.7464674 24.2174088,20.3602534 24.2174088,21.1177498 C24.2174088,21.8752462 24.8333015,22.4890323 25.5933979,22.4890323 C26.3534943,22.4890323 26.9693871,21.8752462 26.9693871,21.1177498 C26.9693871,20.3602534 26.3534943,19.7464674 25.5933979,19.7464674 Z" id="Fill-10" fill="#8B572A"></path>
                    </g>
                    <path d="M35.288067,43.900785 C33.7772309,43.900785 32.6054386,43.1410946 32.532236,43.0922769 C32.1524629,42.8405095 32.049539,42.3298439 32.3016202,41.9513699 C32.5537014,41.574547 33.0644685,41.4719696 33.4425904,41.7199029 C33.5190954,41.7687151 35.2655008,42.8772653 36.8522914,41.7391009 C37.2216069,41.4752661 37.7373277,41.5580916 38.0048199,41.9266923 C38.270661,42.295293 38.1870009,42.8092497 37.8165846,43.0752785 C36.9541146,43.6945497 36.0751328,43.9007905 35.288067,43.9007905 L35.288067,43.900785 Z" id="Fill-12" fill="#9C6550"></path>
                </g>
                <g id="Page-1" transform="translate(0.000000, 242.496920)">
                    <path d="M3.82105187,13.3670141 L89.7947188,13.3670141 C91.9039395,13.3670141 93.6157707,15.0779919 93.6157707,17.1861609 L93.6157707,89.7499516 C93.6157707,91.8581206 91.9039395,93.5690984 89.7947188,93.5690984 L3.82105187,93.5690984 C1.71183124,93.5690984 0,91.8581206 0,89.7499516 L0,17.1861609 C0,15.0779919 1.71183124,13.3670141 3.82105187,13.3670141 Z" id="Fill-4" fill="#E6E5E3"></path>
                    <path d="M89.7947188,13.3670141 L53.4947261,13.3670141 L53.4947261,93.5690984 L89.7947188,93.5690984 C91.9039395,93.5690984 93.6157707,91.8581206 93.6157707,89.7499516 L93.6157707,17.1861609 C93.6157707,15.0779919 91.9039395,13.3670141 89.7947188,13.3670141 Z" id="Fill-5" fill="#CFCECC"></path>
                    <path d="M10.5078926,17.1861609 C8.92597716,17.1861609 7.64210373,18.4693943 7.64210373,20.0505211 C7.64210373,21.6316479 8.92597716,22.9148813 10.5078926,22.9148813 C12.0898081,22.9148813 13.3736815,21.6316479 13.3736815,20.0505211 C13.3736815,18.4693943 12.0898081,17.1861609 10.5078926,17.1861609 Z M20.0605223,17.1861609 C18.4786068,17.1861609 17.1947334,18.4693943 17.1947334,20.0505211 C17.1947334,21.6316479 18.4786068,22.9148813 20.0605223,22.9148813 C21.6424378,22.9148813 22.9263112,21.6316479 22.9263112,20.0505211 C22.9263112,18.4693943 21.6424378,17.1861609 20.0605223,17.1861609 Z M29.613152,17.1861609 C28.0312365,17.1861609 26.7473631,18.4693943 26.7473631,20.0505211 C26.7473631,21.6316479 28.0312365,22.9148813 29.613152,22.9148813 C31.1950674,22.9148813 32.4789409,21.6316479 32.4789409,20.0505211 C32.4789409,18.4693943 31.1950674,17.1861609 29.613152,17.1861609 Z" id="Fill-6" fill="#C6C5C3"></path>
                    <polygon id="Fill-7" fill="#673AB7" points="7.64210373 26.7340281 76.4210373 26.7340281 76.4210373 85.9308047 7.64210373 85.9308047"></polygon>
                    <polygon id="Fill-8" fill="#FFFFFF" points="13.3736815 32.4627484 32.4789409 32.4627484 32.4789409 80.2020844 13.3736815 80.2020844"></polygon>
                    <polygon id="Fill-9" fill="#2D4552" points="53.4947261 26.7340281 76.4210373 26.7340281 76.4210373 85.9308047 53.4947261 85.9308047"></polygon>
                    <polygon id="Fill-10" fill="#FFC107" points="38.2105187 32.4627484 57.315778 32.4627484 57.315778 80.2020844 38.2105187 80.2020844"></polygon>
                    <polygon id="Fill-11" fill="#D7B354" points="53.4947261 32.4627484 57.315778 32.4627484 57.315778 80.2020844 53.4947261 80.2020844"></polygon>
                    <path d="M61.1368299,0 L108.899978,0 C111.009199,0 112.72103,1.7109778 112.72103,3.81914688 L112.72103,97.3882453 C112.72103,99.4964144 111.009199,101.207392 108.899978,101.207392 L61.1368299,101.207392 C59.0276092,101.207392 57.315778,99.4964144 57.315778,97.3882453 L57.315778,3.81914688 C57.315778,1.7109778 59.0276092,0 61.1368299,0 Z" id="Fill-12" fill="#F2F1EF"></path>
                    <path d="M85.973667,89.7499516 C83.8644464,89.7499516 82.1526151,91.4609294 82.1526151,93.5690984 C82.1526151,95.6772675 83.8644464,97.3882453 85.973667,97.3882453 C88.0828876,97.3882453 89.7947188,95.6772675 89.7947188,93.5690984 C89.7947188,91.4609294 88.0828876,89.7499516 85.973667,89.7499516 Z M91.7052448,5.72872031 L80.2420892,5.72872031 C79.1855683,5.72872031 78.3315633,6.58229964 78.3315633,7.63829375 C78.3315633,8.69428786 79.1855683,9.54786719 80.2420892,9.54786719 L91.7052448,9.54786719 C92.7617656,9.54786719 93.6157707,8.69428786 93.6157707,7.63829375 C93.6157707,6.58229964 92.7617656,5.72872031 91.7052448,5.72872031 Z" id="Fill-13" fill="#CECDCB"></path>
                    <polygon id="Fill-14" fill="#673AB7" points="61.1368299 15.2765875 108.899978 15.2765875 108.899978 85.9308047 61.1368299 85.9308047"></polygon>
                    <polygon id="Fill-15" fill="#FFC107" points="66.8684077 53.4680563 103.1684 53.4680563 103.1684 80.2020844 66.8684077 80.2020844"></polygon>
                    <polygon id="Fill-16" fill="#FFFFFF" points="66.8684077 21.0053078 103.1684 21.0053078 103.1684 47.7393359 66.8684077 47.7393359"></polygon>
                </g>
            </g>
        </g>
    </g>
</svg>