<?xml version="1.0" encoding="UTF-8"?>
<svg width="24px" height="24px" viewBox="0 0 24 24" version="1.1" xmlns="http://www.w3.org/2000/svg" xmlns:xlink="http://www.w3.org/1999/xlink">
    <!-- Generator: Sketch 48.2 (47327) - http://www.bohemiancoding.com/sketch -->
    <title>Page 1</title>
    <desc>Created with Sketch.</desc>
    <defs>
        <path d="M10.8,18 L13.2,18 L13.2,10.8 L10.8,10.8 L10.8,18 Z M12,0 C5.37,0 0,5.37 0,12 C0,18.63 5.37,24 12,24 C18.63,24 24,18.63 24,12 C24,5.37 18.63,0 12,0 Z M12,21.6 C6.708,21.6 2.4,17.292 2.4,12 C2.4,6.708 6.708,2.4 12,2.4 C17.292,2.4 21.6,6.708 21.6,12 C21.6,17.292 17.292,21.6 12,21.6 Z M10.8,8.4 L13.2,8.4 L13.2,6 L10.8,6 L10.8,8.4 Z" id="path-1"></path>
    </defs>
    <g id="01-icons/general/infos/outline" stroke="none" stroke-width="1" fill="none" fill-rule="evenodd">
        <mask id="mask-2" fill="white">
            <use xlink:href="#path-1"></use>
        </mask>
        <use id="Page-1" fill="#FFC107" xlink:href="#path-1"></use>
    </g>
</svg>