<?xml version="1.0" encoding="UTF-8"?>
<svg width="16px" height="16px" viewBox="0 0 16 16" version="1.1" xmlns="http://www.w3.org/2000/svg" xmlns:xlink="http://www.w3.org/1999/xlink">
    <!-- Generator: Sketch 48.2 (47327) - http://www.bohemiancoding.com/sketch -->
    <title>01-icons/social/instagram</title>
    <desc>Created with Sketch.</desc>
    <defs></defs>
    <g id="Symbols" stroke="none" stroke-width="1" fill="none" fill-rule="evenodd">
        <g id="01-icons/social/instagram" fill="#FFFFFF">
            <path d="M12.2943321,1 L3.70566792,1 C2.21413452,1 1,2.21331138 1,3.70566792 L1,12.2943321 C1,13.7866886 2.21413452,15 3.70566792,15 L12.2943321,15 C13.7858655,15 15,13.7866886 15,12.2943321 L15,3.70566792 C15,2.21331138 13.7858655,1 12.2943321,1 L12.2943321,1 Z M13.070555,2.61418156 L13.3800564,2.61253528 L13.3800564,4.98565381 L11.0143462,4.99306209 L11.0061148,2.61994356 L13.070555,2.61418156 L13.070555,2.61418156 Z M6.00223424,6.56279398 C6.45002352,5.94214487 7.17768109,5.5355127 8,5.5355127 C8.82231891,5.5355127 9.54997648,5.94214487 9.99776576,6.56279398 C10.2899812,6.96777987 10.4644873,7.46331138 10.4644873,8 C10.4644873,9.35818438 9.35900753,10.4636642 8,10.4636642 C6.64181562,10.4636642 5.53633584,9.35818438 5.53633584,8 C5.53633584,7.46331138 5.71084196,6.96777987 6.00223424,6.56279398 L6.00223424,6.56279398 Z M13.6360536,12.2943321 C13.6360536,13.0343368 13.0343368,13.6360536 12.2943321,13.6360536 L3.70566792,13.6360536 C2.96566322,13.6360536 2.36394638,13.0343368 2.36394638,12.2943321 L2.36394638,6.56279398 L4.45472719,6.56279398 C4.27363594,7.00729069 4.17238946,7.49212135 4.17238946,8 C4.17238946,10.1105362 5.88946378,11.8284337 8,11.8284337 C10.1113594,11.8284337 11.8284337,10.1105362 11.8284337,8 C11.8284337,7.49212135 11.7255409,7.00729069 11.546096,6.56279398 L13.6360536,6.56279398 L13.6360536,12.2943321 L13.6360536,12.2943321 Z" id="Shape"></path>
        </g>
    </g>
</svg>