<?xml version="1.0" encoding="UTF-8"?>
<svg width="90px" height="30px" viewBox="0 0 90 30" version="1.1" xmlns="http://www.w3.org/2000/svg" xmlns:xlink="http://www.w3.org/1999/xlink">
    <!-- Generator: Sketch 48.2 (47327) - http://www.bohemiancoding.com/sketch -->
    <title>invision-logo</title>
    <desc>Created with Sketch.</desc>
    <defs></defs>
    <g id="viewport/05-social" stroke="none" stroke-width="1" fill="none" fill-rule="evenodd" transform="translate(-827.000000, -625.000000)">
        <g id="confiance" transform="translate(0.000000, 548.000000)">
            <g id="logos" transform="translate(354.000000, 77.000000)">
                <g id="invision-logo" transform="translate(473.000000, 0.000000)">
                    <path d="M27.4225888,0 L2.72969543,0 C1.22208122,0 0,1.21590909 0,2.71590909 L0,27.2727273 C0,28.7840909 1.22208122,30 2.72969543,30 L27.4111675,30 C28.9187817,30 30.1408629,28.7840909 30.1408629,27.284092 L30.1408629,2.71590909 C30.1522843,1.21590909 28.930203,0 27.4225888,0 Z" id="Fill-1" fill="#FFFFFF"></path>
                    <path d="M42.3388325,23.2840898 L45.2284264,23.2840898 L45.2284264,10.7613636 L42.3388325,10.7613636 L42.3388325,23.2840898 Z M52.8807107,15.8863636 C51.4073604,15.4090909 50.036802,15.0340909 50.036802,14.125 L50.036802,14.0795455 C50.036802,13.3409091 50.6763959,12.8181818 51.8071066,12.8181818 C52.3553299,12.8181818 52.9606599,12.9431818 53.6002538,13.1590909 L53.6002538,13.1590909 C53.6002538,13.1590909 53.6116751,13.1590909 53.6230964,13.1704545 C53.680203,13.1931818 53.7373096,13.2159091 53.7829949,13.2272727 C54.2398477,13.375 55.4733503,13.5681818 56.5126904,11.9545455 C55.1649746,11.0909091 53.4517766,10.5454545 51.8756345,10.5454545 C49.3743655,10.5454545 47.3870558,11.9886364 47.3870558,14.3636364 L47.3870558,14.4090909 C47.3870558,16.8068182 49.465736,17.5681818 51.3274112,18.0909091 C52.8007614,18.5454545 54.1370558,18.8750011 54.1370558,19.8409102 L54.1370558,19.8863636 C54.1370558,20.7159091 53.4175127,21.2386352 52.1840102,21.2386352 C51.3616751,21.2386352 50.4593909,21.0227273 49.5571066,20.6022716 C49.2944162,20.4886352 47.9467005,20.0340898 46.8045685,21.6704523 C48.3692893,22.8863614 50.3451777,23.522725 52.1154822,23.522725 C54.7423858,23.522725 56.786802,22.2159068 56.786802,19.5795443 L56.786802,19.5454545 C56.786802,17.2840909 54.7195431,16.4545455 52.8807107,15.8863636 Z M34.4695431,19.9659091 L31.0774112,10.7613636 L27.9822335,10.7613636 L33.1560914,23.3863625 L35.7601523,23.3863625 L40.9111675,10.7613636 L37.8845178,10.7613636 L34.4695431,19.9659091 Z M70.1954315,10.5 C66.3350254,10.5 63.4682741,13.4659091 63.4682741,17.0681818 C63.4682741,20.6477273 66.30075,23.5681807 70.1497462,23.5681807 C74.0329949,23.5681807 76.8997348,20.6022716 76.8997348,17.0227273 C76.8997462,13.4204545 74.0558376,10.5 70.1954315,10.5 Z M70.1954315,21.0795455 C67.9568528,21.0795455 66.357868,19.2499989 66.357868,17.0227273 C66.357868,14.8181818 67.8312183,13.0113636 70.1497462,13.0113636 C72.4111675,13.0113636 74.0101523,14.8409091 74.0101523,17.0681818 C74.0101523,19.2840909 72.5253807,21.0795455 70.1954315,21.0795455 Z M85.4543147,10.5 C83.501269,10.5 82.3248731,11.5227273 81.5139594,12.7045455 L81.5139594,10.7613636 L78.6243655,10.7613636 L78.6243655,23.2954545 L81.5139594,23.2954545 L81.5139594,16.2272727 C81.5139594,14.2840909 82.678934,13.1136364 84.357868,13.1136364 C86.071066,13.1136364 87.0532995,14.2272727 87.0532995,16.1704545 L87.0532995,23.2840898 L89.9428934,23.2840898 L89.9428934,15.3068182 C89.9428934,12.3977273 88.2982234,10.5 85.4543147,10.5 Z M58.6941624,23.2840898 L61.5837563,23.2840898 L61.5837563,10.7613636 L58.6941624,10.7613636 L58.6941624,23.2840898 Z" id="Fill-3" fill="#FFFFFF"></path>
                    <path d="M10.0736041,9.44318182 C11.0786802,9.44318182 11.9124365,8.65909091 11.9124365,7.63636364 C11.9124365,6.61363636 11.0672577,5.82954545 10.0736041,5.82954545 C9.06852678,5.82954545 8.23477157,6.61363636 8.23477157,7.63636364 C8.23477157,8.65909091 9.07994924,9.44318182 10.0736041,9.44318182 Z" id="Fill-4" fill="#673AB7"></path>
                    <path d="M6.25888325,19.1136364 C6.15609137,19.5681818 6.09898477,20.0681807 6.09898477,20.465908 C6.09898477,22.056817 6.96700508,23.1136352 8.80583756,23.1136352 C10.3362944,23.1136352 11.569797,22.2159091 12.4606599,20.7499989 L11.9124365,22.9204545 L14.9505076,22.9204545 L16.6865482,16 C17.1205584,14.25 17.9543147,13.3409091 19.2335025,13.3409091 C20.2385787,13.3409091 20.8553299,13.9659091 20.8553299,14.9886364 C20.8553299,15.2840909 20.8324873,15.6136364 20.7182741,15.9545455 L19.8274112,19.1363625 C19.6903553,19.590908 19.6332487,20.0568182 19.6332487,20.4886352 C19.6332487,21.9999989 20.5241117,23.1022716 22.3972081,23.1022716 C23.9961929,23.1022716 25.2639594,22.0795443 25.9720812,19.6249977 L24.784264,19.1704523 C24.1903553,20.8181795 23.6763959,21.1136352 23.2652284,21.1136352 C22.8540609,21.1136352 22.6370558,20.840908 22.6370558,20.3068159 C22.6370558,20.0681795 22.6941624,19.7954523 22.7741117,19.465908 L23.642132,16.3636364 C23.8591371,15.6363636 23.9390863,14.9886364 23.9390863,14.3977273 C23.9390863,12.0795455 22.534264,10.875 20.821066,10.875 C19.2220812,10.875 17.6002538,12.3068182 16.7893401,13.8181818 L17.3832487,11.1136364 L12.7461929,11.1136364 L12.0951777,13.5 L14.2652284,13.5 L12.928934,18.818183 C11.8781726,21.1363636 9.95939086,21.1704545 9.71954429,21.1250011 C9.3197981,21.034092 9.06852906,20.8863636 9.06852906,20.375 C9.06852906,20.0795455 9.12563566,19.6590909 9.2626915,19.1363648 L11.2956864,11.1136364 L6.14467005,11.1136364 L5.49365482,13.5 L7.62944162,13.5 L6.25888325,19.1136364 Z" id="Fill-5" fill="#673AB7"></path>
                </g>
            </g>
        </g>
    </g>
</svg>