<?xml version="1.0" encoding="UTF-8"?>
<svg width="16px" height="16px" viewBox="0 0 16 16" version="1.1" xmlns="http://www.w3.org/2000/svg" xmlns:xlink="http://www.w3.org/1999/xlink">
    <!-- Generator: Sketch 48.2 (47327) - http://www.bohemiancoding.com/sketch -->
    <title>01-icons/social/linkedin</title>
    <desc>Created with Sketch.</desc>
    <defs></defs>
    <g id="Symbols" stroke="none" stroke-width="1" fill="none" fill-rule="evenodd">
        <g id="01-icons/social/linkedin" fill="#FFFFFF">
            <path d="M1.35312794,5.48917915 L4.08184384,5.48917915 L4.08184384,14.9991036 L1.35312794,14.9991036 L1.35312794,5.48917915 Z M2.64793039,4.29965425 L2.62817498,4.29965425 C1.64040452,4.29965425 1,3.57267256 1,2.65206813 C1,1.71263926 1.65933678,1 2.66686265,1 C3.67356538,1 4.2925682,1.71084646 4.31232361,2.64937892 C4.31232361,3.56998335 3.67356538,4.29965425 2.64793039,4.29965425 L2.64793039,4.29965425 Z M15,15 L11.905809,15 L11.905809,10.0778589 C11.905809,8.7897298 11.4218015,7.91125624 10.3574788,7.91125624 C9.54339135,7.91125624 9.09066322,8.50377769 8.87993885,9.07657831 C8.80091722,9.28095787 8.81326435,9.56690998 8.81326435,9.85375848 L8.81326435,15 L5.74788335,15 C5.74788335,15 5.78739417,6.28159816 5.74788335,5.48917915 L8.81326435,5.48917915 L8.81326435,6.9816878 C8.9943556,6.32910744 9.97389464,5.39774619 11.5370414,5.39774619 C13.4763641,5.39774619 15,6.76655142 15,9.71123063 L15,15 L15,15 Z" id="Shape"></path>
        </g>
    </g>
</svg>