<?xml version="1.0" encoding="UTF-8"?>
<svg width="123px" height="30px" viewBox="0 0 123 30" version="1.1" xmlns="http://www.w3.org/2000/svg" xmlns:xlink="http://www.w3.org/1999/xlink">
    <!-- Generator: Sketch 48.2 (47327) - http://www.bohemiancoding.com/sketch -->
    <title>mailchimp-logo</title>
    <desc>Created with Sketch.</desc>
    <defs>
        <polygon id="path-1" points="0.000727189441 30 122.998278 30 122.998278 0 0.000727189441 0"></polygon>
    </defs>
    <g id="viewport/05-social" stroke="none" stroke-width="1" fill="none" fill-rule="evenodd" transform="translate(-949.000000, -625.000000)">
        <g id="confiance" transform="translate(0.000000, 548.000000)">
            <g id="logos" transform="translate(354.000000, 77.000000)">
                <g id="mailchimp-logo" transform="translate(595.000000, 0.000000)">
                    <mask id="mask-2" fill="white">
                        <use xlink:href="#path-1"></use>
                    </mask>
                    <g id="Clip-2"></g>
                    <path d="M117.188363,22.0475711 L117.233684,22.0475711 C119.726224,22.0475711 121.475507,20.330756 121.493635,17.8639518 C121.502699,16.6441084 121.149199,15.5326898 120.496674,14.7285 C119.807801,13.8791295 118.847005,13.4182952 117.714082,13.409259 L117.686889,13.409259 C116.155055,13.409259 114.731989,14.5658584 113.34527,16.9513283 L113.236501,17.1410873 L113.163988,16.933256 C112.810488,15.9121988 112.502308,15.0628283 112.311962,14.5568223 C112.185064,14.2044217 112.121615,14.0417711 112.112551,13.9875542 C112.049102,13.7255151 111.8225,13.5719006 111.532448,13.5719006 C111.351166,13.5719006 111.16091,13.6351536 110.988692,13.7435873 C110.80741,13.8520211 110.716769,13.9965904 110.680512,14.1773133 L110.671448,14.2044217 C109.275575,18.5416446 108.124523,20.647003 107.154663,20.647003 C107.009637,20.647003 106.900868,20.6018313 106.819291,20.5114699 C106.565496,20.2313584 106.628945,19.5627018 106.710522,18.632006 C106.773971,17.9543133 106.846483,17.186259 106.819291,16.363997 C106.764906,14.791753 105.903816,13.8520211 104.517097,13.8429849 C102.75866,13.8429849 101.616672,15.7134127 101.090954,16.8248223 L100.936864,17.1591506 L100.900607,16.7886777 C100.77371,15.4061928 100.302376,13.7616596 98.8430538,13.7526235 C97.1300273,13.7526235 95.8338592,15.7495572 95.036308,17.4302259 L94.8187693,17.8820241 L94.8368976,17.3850542 C94.9275387,15.1441536 95.0091157,13.8249127 95.0634097,13.4544398 C95.1177944,13.0839669 95.0906927,12.84 94.9728592,12.6954217 C94.8550258,12.5598886 94.6465512,12.5147078 94.3293073,12.5327801 C93.7854606,12.5689247 93.5044731,12.903253 93.0784598,14.0146627 C92.3895873,15.8399096 90.6221671,20.0958163 89.217266,20.0958163 C88.9362875,20.0958163 88.7187579,19.9964187 88.5556039,19.8157048 C87.9664548,19.138012 88.2021126,17.3218012 88.5284116,14.8007892 L88.5556039,14.6110301 C88.7096938,13.4182952 88.4468346,13.1652922 87.7942366,13.0478223 C87.7217328,13.0387861 87.658284,13.02975 87.5948352,13.02975 C87.0781899,13.02975 86.8334679,13.5267199 86.344024,14.9001777 C85.4829606,17.3489096 84.368102,19.9331657 83.0719702,19.9331657 C83.0266497,19.9331657 82.9813382,19.9331657 82.9269535,19.9241295 C82.2380991,19.8066687 82.2562273,18.7946476 82.2743556,17.5025151 C82.2834197,16.80675 82.2924838,16.0115964 82.1927786,15.3067952 C82.0024413,14.0236988 81.241074,13.2285361 80.2168565,13.2195 C78.1684307,13.2195 76.7907219,15.8308735 76.1562522,17.3850452 L76.0112354,17.7374458 L75.9568508,17.3489096 C75.8752738,16.6712169 75.7574494,15.6049789 75.7121288,14.3399548 L75.7121288,14.3038102 L75.7393121,14.2767018 C79.5642676,9.47864458 81.2773304,6.00886446 81.3045228,3.04509036 C81.322651,1.14755422 80.4434593,0.00903614458 78.9569812,0 C77.869324,0 75.2951887,0.903587349 74.3978688,9.25275 C74.2347148,10.7978855 74.1440828,12.3882018 74.1259545,13.9694819 L74.1259545,13.9965904 L74.1078263,14.0236988 C72.358498,16.5447108 68.6241926,20.8909789 64.9623911,20.8909789 C61.663145,20.8909789 59.0255609,18.2253886 59.0255609,13.5267289 C59.0255609,7.21967169 63.5031144,3.35231928 66.8748643,3.35231928 L66.9020476,3.35231928 C67.6362225,3.36134639 68.2616282,3.56014157 68.7148247,3.9396506 C69.1861404,4.33722289 69.4308714,4.88841867 69.4308714,5.53900301 C69.4218073,6.40644578 69.1408289,6.85824398 68.8689055,7.29196084 C68.7964017,7.40039458 68.7238888,7.51786446 68.66044,7.6353253 C68.5969912,7.75279518 68.5335424,7.92447289 68.6241836,8.0690512 C68.7148247,8.22265663 68.9414184,8.31301807 69.2133327,8.31301807 C70.0200206,8.31301807 71.2255112,7.15642771 71.2436394,5.41249699 C71.2617676,3.58725 69.7118498,1.70778614 66.9654964,1.70778614 C62.8051868,1.70778614 57.1946646,6.27090361 57.1946646,13.6622711 C57.1946646,18.8940452 60.4848376,22.4993675 64.9351987,22.4993675 C68.0984832,22.4993675 71.2255203,20.2403946 73.9899929,16.4724307 L74.162211,16.2465361 L74.171266,16.5266476 C74.2256507,17.9091325 74.33442,18.9934428 74.4069239,19.7886054 C74.4522444,20.2946114 74.4885009,20.6650843 74.4885009,20.8729066 C74.4885009,21.3156669 74.5610138,21.6319229 74.7151037,21.8216765 C74.8691845,22.011431 75.1139155,22.1017898 75.485526,22.1017898 C76.1109407,22.1017898 76.2287651,21.6771036 76.4734961,20.6379759 L76.5459999,20.3397922 C76.8541707,19.0747681 77.9780934,14.9544036 79.682092,14.9544036 C79.9630704,14.9544036 80.171545,15.0357199 80.3256259,15.1983705 C80.6972454,15.5959518 80.6609889,16.4091777 80.6156684,17.3489096 C80.5884761,17.936241 80.5522196,18.5416446 80.6156684,19.1380211 C80.7788224,20.7373735 81.4676768,21.5234919 82.7366162,21.5325289 C84.032748,21.5325289 85.3923195,20.141006 86.1083662,18.8398373 L86.2443279,18.5958614 L86.2987125,18.8669367 C86.4346651,19.5627018 87.0238143,21.8397497 88.8728478,21.8397497 C90.5496632,21.8397497 91.9817929,20.077753 93.5588578,16.4633946 L93.7673324,15.9935331 L93.7582682,16.5085753 C93.7220118,17.8820331 93.6494989,19.5536657 93.6494989,20.8548343 C93.6494989,21.8578229 93.7492041,22.2373301 94.2114738,22.2373301 C94.2477303,22.2373301 94.2839867,22.2463663 94.3202432,22.2463663 C94.7643847,22.2463663 95.0725645,21.9843262 95.2175903,21.4602443 C96.4048983,17.3398735 97.429143,15.4242651 98.4442329,15.4242651 C99.4412852,15.4333012 99.5319263,17.2404849 99.6135033,20.4482259 L99.6225674,20.6741205 C99.6497598,21.7945699 99.6860162,22.2915443 100.383953,22.2915443 C100.909671,22.2915443 101.045633,21.8758925 101.317556,20.8548343 C101.371941,20.6560482 101.426326,20.4482259 101.489775,20.2132861 C102.45048,16.9061566 103.239057,15.5507711 104.227046,15.5507711 C105.070008,15.5598072 105.115329,16.42725 105.133366,16.7163976 C105.169623,17.3308373 105.106174,17.9723855 105.042725,18.5868253 C104.988431,19.1651205 104.924892,19.7524608 104.952175,20.3126837 C105.006469,21.6048163 105.713469,22.327687 106.955253,22.3367223 C108.568574,22.3367223 110.018832,20.457253 111.287808,16.7615783 L111.378449,16.4995392 L111.478063,16.7525422 C111.704666,17.3308373 112.012846,18.1169639 112.284769,19.0566958 L112.293833,19.0928404 L112.275705,19.1289849 C111.043077,21.8578202 110.172922,24.8938798 110.163858,26.5113027 C110.14573,28.6528102 111.11559,30.0353002 112.63827,30.0533731 L112.665462,30.0533731 C113.490296,30.0533731 115.411797,29.719044 115.457118,26.6649145 C115.475246,25.4089265 115.176221,23.637891 114.57799,21.3969904 L114.505477,21.1439855 L114.723015,21.2885602 C115.457118,21.7674578 116.327273,22.0385349 117.188363,22.0475711 Z M75.7121288,11.6743735 C75.7483853,10.9063193 75.811825,10.1653735 75.9024661,9.46057229 C76.5006794,4.91552711 77.7424265,1.73489458 78.9297979,1.73489458 L78.938853,1.73489458 C79.5008189,1.73489458 79.7908614,2.16861145 79.7817973,2.99991867 C79.763669,5.05106024 78.4584732,7.99676205 75.9024661,11.7376175 L75.7030556,12.0267651 L75.7121288,11.6743735 Z M113.508424,28.0293316 C113.318078,28.2823355 113.055219,28.4088398 112.728911,28.4088398 C112.348218,28.4088398 112.067231,28.2733021 111.876884,28.0202982 C111.333128,27.2974265 111.487127,25.6077145 112.37541,22.535513 C112.48418,22.165041 112.592949,21.8036051 112.719847,21.4421702 L112.819552,21.1349503 L112.910193,21.4421702 C113.934438,24.9751988 114.133848,27.1980289 113.508424,28.0293316 Z M113.834732,18.9301898 L113.816604,18.8940452 L113.780348,18.7765753 L113.798476,18.7404398 C114.967656,16.3368886 116.318209,14.9543946 117.487479,14.9543946 L117.496543,14.9543946 C118.819813,14.9634307 119.726224,16.1471386 119.71716,17.8368434 C119.708096,18.9572982 119.20957,19.6078825 118.79262,19.951247 C118.321287,20.3488193 117.686889,20.5747229 117.061466,20.5747229 C115.511503,20.5566506 114.451001,19.6711355 113.834732,18.9301898 Z" id="Fill-1" fill="#FFFFFF" mask="url(#mask-2)"></path>
                    <path d="M39.048829,21.6499925 C40.8615971,21.5054178 42.2936814,19.0476596 42.828455,17.999494 L42.9644167,17.7284187 L43.0188013,18.0266024 C43.2725874,19.4994488 44.0792662,21.9752855 46.5990168,22.0023931 L46.617145,22.0023931 C47.7048113,22.0023931 48.9374943,21.3427726 50.1883055,20.0867892 L50.2789466,19.9964277 L50.3423954,20.1048524 C51.1853306,21.5054196 52.3092533,22.2463617 53.5056798,22.1921476 C55.2731363,22.1017889 56.3426653,20.8548343 56.4423705,19.9873916 C56.4695629,19.7705331 56.4061141,19.5627018 56.2792256,19.4181325 C56.1160806,19.2374096 55.8894778,19.2193373 55.7172688,19.381988 L55.6356917,19.4542771 C55.2278158,19.8518494 54.4573844,20.583759 53.6235133,20.6289398 C52.5992958,20.6831566 51.8470017,20.0687169 51.3575487,18.8127289 L51.3394205,18.758512 L51.3756769,18.7133313 C54.1854701,15.044756 56.1613921,9.45154518 55.9619817,5.70164458 C55.8713496,3.96675904 55.3637775,1.89753614 53.4603592,1.89753614 L53.3153425,1.89753614 C52.5902317,1.93368072 51.9195055,2.27704518 51.3484846,2.92762952 C49.5810371,4.89745482 48.6565158,9.74069277 48.991888,15.2706596 C49.0643918,16.4182139 49.2638023,17.493488 49.5900922,18.4603283 L49.6082204,18.5145452 L49.571964,18.5597259 C48.5296273,19.7795693 47.4963458,20.4482259 46.6715297,20.4482259 C44.6865526,20.4482259 44.7499923,17.1230151 44.9040822,14.3670633 C44.9403387,13.7706958 44.9856592,13.3911958 44.8134411,13.1833645 C44.6865526,13.029759 44.478078,12.9574699 44.1699073,12.9484337 L44.1336508,12.9484337 C43.4266773,12.9484337 43.2816515,13.093003 42.9190961,14.1411687 C42.166802,16.3188163 40.6803239,19.9602831 39.1847907,19.9602831 C38.7678506,19.9602831 38.4506158,19.8157048 38.2421503,19.5446295 C37.5170394,18.6229699 38.0699321,16.3188163 38.5140646,14.475497 C38.5956325,14.1411687 38.6681454,13.8249127 38.7315942,13.5267289 C38.8312994,13.0839669 38.795043,12.7677108 38.6409531,12.5779608 C38.4868722,12.3882018 38.1696374,12.3068855 37.7617614,12.3430301 C37.1182276,12.397238 36.7103516,12.6592861 36.5109502,13.8791295 L36.4746937,14.1321325 L36.3296679,13.9514187 C36.0486895,13.5357651 35.5048609,13.0478223 34.4897076,13.0478223 C34.3990755,13.0478223 34.3084344,13.0478223 34.2177933,13.0568584 C33.1392002,13.1472199 31.9065082,13.8972018 31.0091883,15.0176476 C29.9577785,16.3278524 29.4592704,17.9814217 29.5952321,19.6711355 C29.6042962,19.761488 29.6133604,19.8428133 29.6314795,19.9331747 L29.6405436,19.9783554 L29.6042962,20.0145 C28.9788906,20.7012199 28.3353478,21.0445843 27.700878,21.0445843 C26.7219902,21.0355482 26.1600243,20.3126837 26.1600243,19.1018675 C26.1600243,17.0687982 27.5467972,10.9334277 27.5467972,8.7105994 C27.5467972,6.35222892 26.4863233,5.06009639 24.655427,5.05106024 L24.6282347,5.05106024 C21.9543942,5.05106024 19.8606478,8.07808735 17.8665975,14.3128464 C17.6853243,14.8821145 17.4859139,15.5417349 17.3137048,16.110994 L17.0327264,17.0507259 L17.1142943,16.0748494 C17.2955766,13.9062289 17.4315292,11.7918343 17.494978,9.7949006 C17.5946832,6.78595482 17.1868072,4.84323795 16.2441668,3.86736145 C15.7365856,3.3432741 15.0658685,3.08123494 14.1957318,3.0721988 L14.1685395,3.0721988 C10.8874216,3.0721988 9.31937553,8.58409337 8.17733277,12.4695271 C7.83290558,13.6441898 7.15311621,16.2917078 6.69992421,18.0988825 L6.97184032,17.6651657 C7.17124444,15.3881205 7.7603954,9.67743976 7.71507575,6.57812349 C7.68788432,3.25292169 6.58209347,1.76200301 4.13485211,1.74393072 L4.10766069,1.74393072 C2.80246481,1.74393072 1.89607899,2.39451506 1.36131179,2.93666566 C0.500245532,3.80410843 -0.0254581539,5.07816867 0.00173341534,6.1805512 C0.0198611282,6.84920783 0.42773463,7.4455753 0.744969668,7.4455753 C0.944374422,7.4455753 1.06220425,7.1745 1.10752391,7.0118494 C1.86888756,4.51794578 2.84778447,3.30713855 4.09859657,3.30713855 C4.62430057,3.30713855 5.00498239,3.46074398 5.29502582,3.777 C6.27392273,4.82516566 6.10170913,7.66243373 5.77541016,12.8128916 C5.66664354,14.475497 5.54881371,16.3549608 5.44911119,18.4964639 C5.43098388,18.8669367 5.41285565,19.2193373 5.38566422,19.5536657 C5.28596171,21.0355482 5.21345063,22.2102181 5.77541016,22.3005768 C6.50958239,22.4180431 6.98996673,22.1198584 7.23469141,21.3879515 C7.59724592,20.3126837 8.41299243,17.3669819 9.99010169,11.9906295 C11.5037721,6.83113554 12.645814,4.95167169 14.1050907,4.95167169 C15.7909702,4.95167169 15.9178678,7.84314759 15.6096971,13.9423735 C15.5462483,15.234506 15.4556071,16.6983253 15.3921674,18.2976777 C15.3831033,18.5235723 15.3740392,18.7404307 15.3649751,18.948262 C15.3015263,20.267503 15.2471416,21.3066271 15.6278253,21.7132419 C15.7456497,21.8397443 15.9088037,21.9029964 16.1172692,21.9029964 C16.8514441,21.9029964 17.0689738,21.2614482 17.4315292,20.20425 C17.494978,20.014491 17.5674909,19.8157048 17.6399947,19.6078825 C20.1506903,12.7044578 22.0087789,6.72270181 24.492273,6.72270181 C25.2355121,6.72270181 25.8246612,7.32810542 25.8246612,8.51180422 C25.8246612,11.2316114 24.492273,16.4995301 24.492273,19.1651205 C24.492273,20.1229247 24.7641873,20.9813313 25.2898968,21.5777024 C25.8246612,22.1921431 26.5769644,22.5264714 27.4561561,22.5355075 L27.4742843,22.5355075 C28.3081554,22.5355075 29.178283,22.1288928 30.0574837,21.3337337 L30.1390607,21.2614464 L30.2025004,21.3518051 C30.7825945,22.1288928 31.7161709,22.5445428 32.7222511,22.4632202 C34.272178,22.345753 35.5683097,20.9722952 36.0486895,19.6711265 L36.1393307,19.4181235 L36.2299718,19.6711265 C36.6197105,20.6289398 37.3901419,21.785531 39.048829,21.6499925 Z M53.3153425,3.62339458 L53.3425258,3.62339458 C53.5147439,3.62339458 53.6778889,3.71374699 53.8047864,3.88543373 C54.4211279,4.71673193 54.430192,7.73472289 53.3697181,11.1773946 C52.7624408,13.1472199 51.955762,14.9995753 51.0221766,16.5447108 L50.8771598,16.7886867 L50.8409034,16.4995392 C50.732134,15.6682319 50.6777494,14.8007892 50.6414929,14.0598434 C50.3605145,8.87324096 51.9376338,3.68663855 53.3153425,3.62339458 Z M36.1393307,15.7676295 C35.5955021,17.9452771 34.5622205,20.5656867 32.6860037,20.710256 C32.631619,20.710256 32.5862985,20.7192922 32.5319138,20.7192922 C31.7524183,20.7192922 31.317359,20.2132861 31.235782,19.2103012 C31.1360768,17.9543133 31.6708503,16.490503 32.6134908,15.4784819 C33.2117041,14.8278976 33.8914943,14.475497 34.5168999,14.475497 L34.525964,14.475497 C35.3145237,14.4845331 35.8764805,15.1170452 36.1302665,15.7043765 L36.1393307,15.7314849 L36.1393307,15.7676295 Z" id="Fill-3" fill="#FFFFFF" mask="url(#mask-2)"></path>
                    <path d="M44.8315693,7.80701205 C44.142715,7.80701205 43.5807581,8.34916265 43.5807581,9.01781928 C43.571694,9.6864759 44.1336508,10.2376627 44.8134411,10.2466988 L44.8225052,10.3460964 L44.8225052,10.3460964 L44.8225052,10.2466988 C45.5022955,10.2466988 46.0642523,9.70454819 46.0642523,9.03589157 C46.0733164,8.3581988 45.5113596,7.80701205 44.8315693,7.80701205 Z" id="Fill-4" fill="#FFFFFF" mask="url(#mask-2)"></path>
                    <path d="M88.2927537,7.80701205 C87.6039084,7.80701205 87.0419425,8.34916265 87.0419425,9.01781928 C87.0328875,9.6864759 87.5948352,10.2376627 88.2746255,10.2466988 L88.2836896,10.3460964 L88.2836896,10.3460964 L88.2836896,10.2466988 C88.9634799,10.2466988 89.5254367,9.70454819 89.5254367,9.03589157 C89.5345099,8.3581988 88.9816172,7.80701205 88.2927537,7.80701205 Z" id="Fill-5" fill="#FFFFFF" mask="url(#mask-2)"></path>
                    <path d="M122.146251,20.6741205 C121.674917,20.6741205 121.294225,21.0536205 121.294225,21.5234892 C121.294225,21.9933551 121.674917,22.3728623 122.146251,22.3728623 C122.617585,22.3728623 122.998278,21.9933551 122.998278,21.5234892 C122.998278,21.0536205 122.617585,20.6741205 122.146251,20.6741205 Z M122.146251,22.2463608 C121.74743,22.2463608 121.421122,21.9210678 121.421122,21.5234892 C121.421122,21.1259105 121.74743,20.8006175 122.146251,20.8006175 C122.545072,20.8006175 122.87138,21.1259105 122.87138,21.5234892 C122.87138,21.9210696 122.545072,22.2463608 122.146251,22.2463608 Z" id="Fill-6" fill="#FFFFFF" mask="url(#mask-2)"></path>
                    <path d="M122.51788,21.2975919 C122.51788,21.1259105 122.427239,21.026512 122.2097,21.026512 L121.829007,21.026512 L121.829007,22.0023922 L121.955905,22.0023922 L121.955905,21.5777051 L122.128123,21.5777051 L122.418175,22.0023922 L122.554136,22.0023922 L122.264085,21.5777051 C122.409111,21.5505976 122.51788,21.4783102 122.51788,21.2975919 Z M122.119059,21.469275 L121.964969,21.469275 L121.964969,21.1349476 L122.182508,21.1349476 C122.291277,21.1349476 122.400046,21.1710904 122.400046,21.2975937 C122.400046,21.4602389 122.255021,21.469275 122.119059,21.469275 Z" id="Fill-7" fill="#FFFFFF" mask="url(#mask-2)"></path>
                </g>
            </g>
        </g>
    </g>
</svg>