<?xml version="1.0" encoding="UTF-8"?>
<svg width="103px" height="30px" viewBox="0 0 103 30" version="1.1" xmlns="http://www.w3.org/2000/svg" xmlns:xlink="http://www.w3.org/1999/xlink">
    <!-- Generator: Sketch 48.2 (47327) - http://www.bohemiancoding.com/sketch -->
    <title>tedx-icon</title>
    <desc>Created with Sketch.</desc>
    <defs>
        <polygon id="path-1" points="102.913355 30 0 30 0 15.0001274 0 0.000254716981 102.913355 0.000254716981 102.913355 30"></polygon>
    </defs>
    <g id="viewport/05-social" stroke="none" stroke-width="1" fill="none" fill-rule="evenodd" transform="translate(-493.000000, -625.000000)">
        <g id="confiance" transform="translate(0.000000, 548.000000)">
            <g id="logos" transform="translate(354.000000, 77.000000)">
                <g id="tedx-icon" transform="translate(139.000000, 0.000000)">
                    <mask id="mask-2" fill="white">
                        <use xlink:href="#path-1"></use>
                    </mask>
                    <g id="Clip-2"></g>
                    <polygon id="Fill-1" fill="#FFFFFF" mask="url(#mask-2)" points="8.40397657 7.72653962 0 7.72653962 0 0.0568584906 26.0042232 0.0568584906 26.0042232 7.72653962 17.6002467 7.72653962 17.6002467 29.9997419 8.40397657 29.9997419"></polygon>
                    <polygon id="Fill-3" fill="#FFFFFF" mask="url(#mask-2)" points="27.4190329 0.0568584906 52.6592593 0.0568584906 52.6592593 7.72653962 36.6436082 7.72653962 36.6436082 11.4623264 52.6592593 11.4623264 52.6592593 18.5942774 36.6436082 18.5942774 36.6436082 22.3300613 52.6592593 22.3300613 52.6592593 29.9997419 27.4190329 29.9997419"></polygon>
                    <path d="M54.2155497,0.0568584906 L69.3540313,0.0568584906 C79.3425978,0.0568584906 82.8513324,7.44352642 82.8513324,15 C82.8513324,24.1979547 77.9843843,30.0280429 67.5430706,30.0280429 L54.2155497,30.0280429 L54.2155497,0.0568584906 Z M63.4401052,22.3300642 L67.0620266,22.3300642 C72.8061725,22.3300642 73.6550453,17.6603321 73.6550453,14.8584934 C73.6550453,12.9622981 73.0608146,7.72653962 66.3829341,7.72653962 L63.4401052,7.72653962 L63.4401052,22.3300642 Z" id="Fill-4" fill="#FFFFFF" mask="url(#mask-2)"></path>
                    <polygon id="Fill-5" fill="#FFFFFF" mask="url(#mask-2)" points="96.1222599 18.4527708 93.3209146 13.7830387 90.5761909 18.4527708 83.813392 18.4527708 90.2366305 9.02840377 84.0397657 0.000254716981 90.8025646 0.000254716981 93.2926179 4.47187925 95.8958863 0.000254716981 102.658657 0.000254716981 96.4900887 9.02840377 102.913355 18.4527708"></polygon>
                </g>
            </g>
        </g>
    </g>
</svg>