<?xml version="1.0" encoding="UTF-8"?>
<svg width="106px" height="30px" viewBox="0 0 106 30" version="1.1" xmlns="http://www.w3.org/2000/svg" xmlns:xlink="http://www.w3.org/1999/xlink">
    <!-- Generator: Sketch 48.2 (47327) - http://www.bohemiancoding.com/sketch -->
    <title>trello-icon</title>
    <desc>Created with Sketch.</desc>
    <defs>
        <path d="M76.2946108,14.4006223 C76.189674,14.6296279 75.9314048,14.7478427 75.6213775,14.8734304 C75.05012,15.0759494 75.1389823,15.2658228 74.529641,15.3924051 C73.5267794,15.556962 72.6889351,15.9113924 71.5971986,16.0759494 C71.0386357,16.1518987 70.5181693,16.1518987 70.1119418,16.1518987 C69.9468992,16.1518987 69.8199531,16.278481 69.7437981,16.5949367 C68.70284,20.8354278 67.331822,24.215162 64.843691,26.9366709 C63.8789133,27.9746405 62.6348414,29.3796999 60.9083744,29.3796999 C60.4640757,29.3796999 59.9816805,29.265777 59.5754529,29.0632453 C58.0901835,28.3417291 56.8715135,27.455657 56.4272022,26.5442684 C55.1069753,28.0885658 53.2027837,29.9872929 51.2097425,29.9872929 C50.9685322,29.9872929 50.7273473,29.9493179 50.4861497,29.911343 C49.0008802,29.5948885 47.8710726,28.9113475 47.1474798,28.151857 C46.8428091,27.8354025 46.6396953,27.5569203 46.48736,27.2531253 C45.2178989,28.6202089 43.5803068,29.9999499 41.879229,29.9999499 C41.6380314,29.9999499 41.3968465,29.961975 41.1556362,29.924 C39.6703794,29.6075456 38.5405717,28.9240046 37.8169789,28.1645139 C37.0806915,27.4050228 36.8902723,26.8354051 36.8521885,25.8227506 C35.6842843,26.8354051 34.0593868,27.9619823 31.4189205,29.4556477 C30.8603576,29.7721023 30.3398786,29.8986841 29.6543696,29.8986841 C28.4483816,29.8986841 27.1281547,29.3796999 25.2747416,28.4176772 C24.27188,27.8986911 23.5482872,26.7721139 23.1039758,25.4936367 C22.7866105,24.5695886 22.5834968,23.6075684 22.5834968,22.6835215 C22.5834968,22.126562 22.6596644,21.5949165 22.8246944,21.037957 C23.3197842,19.3291038 24.0687662,17.7341722 25.0081547,16.2151899 C24.6908022,16.1139241 24.3607423,16.0253165 24.1576285,16.0253165 C23.9545147,16.0253165 22.4311614,16.7848101 21.3013411,17.5063241 C17.9626711,19.6328987 14.9413665,22.8354165 13.9004211,27.5695772 C13.7353911,28.2910937 13.4180259,28.8100778 12.8086846,29.3290641 C12.5294031,29.5695686 12.1993432,29.6455185 11.9200618,29.6455185 C11.2726493,29.6455185 10.828338,29.35438 10.1047451,28.5569139 C9.66043377,28.0759025 9.3430685,27.4303367 9.3430685,26.9493253 C9.3430685,25.4303418 10.9552841,24.1898418 11.4376666,22.7847835 C12.3262893,20.2531468 13.1641337,17.7341684 13.8496426,15.164557 C14.0908402,14.2911392 14.2558702,13.3671013 14.2558702,13.1645696 C14.2558702,12.797481 13.8877265,12.6455823 13.8877265,12.240519 C13.8877265,11.6708987 14.8906007,11.1519114 15.9823246,11.1519114 C16.8582527,11.1519114 17.5818455,11.5949494 17.7087916,11.797481 C18.2292707,12.683557 18.3562168,13.4050633 18.3562168,13.9620253 C18.3562168,14.5949367 18.2800491,14.9620253 18.2800491,15 C18.2800491,15.0886076 18.3181329,15.1265823 18.3562168,15.1265823 C18.445079,15.1265823 18.5593305,15.0506329 18.7624443,14.8860759 C20.0445873,13.9240506 22.532731,12.2784937 23.8656525,12.2784937 C24.9954728,12.2784937 26.1887662,12.5822911 27.0392925,13.3164557 C27.8390529,12.3038101 28.7149811,11.3164684 29.6162984,10.354443 C30.5049085,9.43040506 32.0663456,8.46837975 34.1990275,8.46837975 C34.998788,8.46837975 36.0016623,8.63293671 36.890285,8.94939241 C38.1343442,9.39243038 38.5024879,10.5949494 38.5024879,11.6329241 C38.5024879,13.2405063 37.2965126,15.443038 36.369806,16.5696076 C33.881675,19.6075772 30.9873037,22.6581975 27.44552,24.7847722 C27.0392925,25.0252785 27.0012213,25.0632519 27.0012213,25.2657835 C27.0012213,25.5062886 27.3566704,26.2657785 27.7248014,26.4303354 C27.965999,26.5569177 28.2071966,26.6328671 28.4864781,26.6328671 C29.6924661,26.6328671 31.1777356,25.582238 31.6601181,25.3037582 C34.1482618,23.8607266 35.8747162,21.7341519 37.9312304,20.5316241 C37.9820089,20.5063063 38.0327873,20.4809911 38.0708711,20.4556747 C38.2232065,20.0885861 38.3628599,19.734157 38.5024879,19.3670709 C40.2670388,14.9240506 43.7199602,8.62027848 46.7412649,3.53168354 C47.1728817,2.81017722 47.5791092,0.0380253165 49.4705935,0.0380253165 C49.9910726,0.0380253165 50.3973001,5.06329117e-05 50.8416115,5.06329117e-05 C51.6413593,5.06329117e-05 52.3649521,0.316506329 52.529982,0.683594937 C52.7330958,1.12663291 52.8981257,1.48106329 52.8981257,1.92410127 C52.8981257,2.44308861 52.7330958,2.92408861 52.4538144,3.36712658 C48.835863,9.10129114 44.7736129,14.3544304 42.3997207,20.4936494 C41.7142117,22.2657949 40.914464,23.4683215 40.914464,25.9493266 C40.914464,26.6708418 41.1175777,26.8353987 41.2826077,26.8353987 C41.3587626,26.8353987 41.4730268,26.7847671 41.5999729,26.7088177 C43.6437926,25.3543899 44.9513375,22.8987038 46.7031811,22.3923772 C47.0205463,21.3670658 47.4394685,20.3670684 47.8330014,19.3670722 C49.5975523,14.9240506 53.0504738,8.62027848 56.0717784,3.53168354 C56.5033952,2.81017722 56.9096101,0.0380253165 58.8011071,0.0380253165 C59.3215861,0.0380253165 59.7278137,5.06329117e-05 60.172125,5.06329117e-05 C60.9718728,5.06329117e-05 61.6954656,0.316506329 61.847801,0.683594937 C62.0509147,1.12663291 62.2159447,1.48106329 62.2159447,1.92410127 C62.2159447,2.44308861 62.0509147,2.92408861 61.7716333,3.36712658 C58.1536819,9.10129114 54.0914192,14.3544304 51.7175396,20.4936494 C51.0320307,22.2657949 50.2322702,23.4683215 50.2322702,25.9493266 C50.2322702,26.6708418 50.435384,26.8353987 50.6004139,26.8353987 C50.6765816,26.8353987 50.7908331,26.7847671 50.9177792,26.7088177 C52.8727492,25.4176835 54.1421976,23.1392101 55.7671078,22.4809861 C55.9575269,19.468338 57.5443406,16.6708734 59.2199911,14.2025443 C59.4992726,13.7595063 59.9055001,13.4430506 60.1847816,13.0379873 C61.3907696,11.316481 63.1299186,9.2658481 65.1356544,9.2658481 C65.9734987,9.2658481 67.0144568,9.50635443 67.8649957,10.2278734 C68.2331267,10.5443291 68.3473782,10.7088861 68.4743243,11.0253418 C69.0836656,12.5949494 68.4743243,11.0253418 68.4743243,11.0253418 C69.070971,12.5949494 69.3121686,12.8734304 70.2388752,12.8734304 C70.8355219,12.8734304 71.7241447,12.7468481 73.2094014,12.7468481 C74.8790929,12.7468481 76.0442965,13.3090715 76.2946108,13.9111029 L76.2946108,14.4006223 L76.2946108,14.4006223 Z M4.35412455,8.82281013 C3.18622036,8.82281013 4.35412455,8.82281013 4.35412455,8.82281013 C3.18622036,8.82281013 2.01832886,8.65825316 1.44705868,7.94939241 C1.24394491,7.70888608 1.24394491,7.43040506 1.24394491,7.06331646 C1.24394491,6.34179747 1.35819641,5.54434177 1.56131018,5.34181013 C1.76442395,5.13927848 2.00562156,4.89877215 2.48801677,4.89877215 C3.32586108,4.89877215 3.21160958,5.17725316 5.21734539,5.17725316 C7.31195617,5.17725316 10.2063147,4.73421519 11.0060752,4.56965823 C12.8594757,4.20256962 14.8271277,3.92408861 16.9979061,3.92408861 C18.7624443,3.92408861 21.3013665,5.60763291 21.3013665,6.29117722 C21.3013665,7.01268354 21.0093904,7.45572152 20.4508275,7.86078481 C20.2096299,8.02534177 19.524121,8.30382278 19.1178934,8.30382278 C18.6354982,8.30382278 18.3562168,8.02534177 18.0769353,7.74686076 C17.9499892,7.62027848 17.1502414,7.34179747 16.9471277,7.34179747 C15.1825768,7.34179747 13.2530086,7.5823038 11.6407931,7.94939241 C11.7296553,8.06331646 11.7677392,8.18989873 11.7677392,8.2658481 C11.7677392,8.46837975 11.6027092,8.5823038 10.3586501,10.8734304 C7.74357293,15.6835443 6.0551897,20.2911177 4.92536934,26.1898304 C4.79842323,26.8353987 4.7603521,27.6834962 4.7603521,28.480962 C4.7603521,29.40501 4.31604072,29.9619692 3.42741796,29.9619692 C2.81807665,29.9619692 1.9421612,29.6834896 0.850424671,29.0379216 C0.291861796,28.7214671 0.126831856,28.1138734 0.126831856,27.5569152 C0.126831856,26.9493215 0.253777964,26.3543873 0.291861796,26.1898304 C1.78982587,20.2911203 3.47819641,14.9620253 5.92824359,9.70888608 C6.20752503,9.11394937 6.24560886,8.98736709 6.24560886,8.91141772 C6.24560886,8.78483544 6.1694412,8.74686076 6.04249509,8.74686076 C5.92824359,8.74686076 5.3569988,8.82281013 4.35412455,8.82281013 Z M34.1482618,12.075962 C34.1482618,11.8734304 34.1482618,12.075962 34.1482618,12.075962 C34.1482618,11.8734304 34.0720941,11.8354557 33.9324661,11.8354557 C33.7293523,11.8354557 33.1707895,12.1519114 32.2440829,13.075962 C30.5556996,14.7594937 29.0196644,16.4810127 27.7755926,19.0885949 C27.369365,19.9366924 27.3312812,20.0885899 27.3312812,20.2151722 C27.3312812,20.3037785 27.4201562,20.3417532 27.4582273,20.3417532 C27.534395,20.3417532 27.6232572,20.3417532 28.1437363,19.860743 C30.0352333,18.1392291 31.4824062,16.5822785 32.6503104,15.0126582 C33.2596517,14.2025316 33.056538,14.2025316 33.5389332,13.4430506 C34.0213157,12.683557 34.1482618,12.4430506 34.1482618,12.075962 Z M65.0722194,13.1139367 C64.9579679,13.1139367 65.0722194,13.1139367 65.0722194,13.1139367 C64.9579679,13.1139367 64.7167703,13.1519114 64.399405,13.6075949 C62.4190584,16.164557 59.4485322,20.8227633 59.4485322,23.9493329 C59.4485322,24.1518633 59.486616,24.6708494 59.6516333,25.1138861 C59.7785794,25.4429975 60.0959447,25.9619835 60.2990584,25.9619835 C60.540256,25.9619835 60.8195375,25.8354013 61.3019327,25.1138861 C63.4726984,21.8733911 65.6815607,18.6582139 65.6815607,14.7721519 C65.6815607,14.3291139 65.6815607,13.7721519 65.5165308,13.6455696 C65.3261116,13.4810127 65.2372493,13.3670886 65.1991655,13.240519 C65.1483871,13.1519114 65.1103032,13.1139367 65.0722194,13.1139367 Z" id="path-1"></path>
        <path d="M3.17364127,3.79746834e-05 L22.21548,3.79746834e-05 C23.9673363,3.79746834e-05 25.3891327,1.41775949 25.3891327,3.16458228 L25.3891327,22.1518557 C25.3891327,23.8986848 23.9673363,25.3164008 22.21548,25.3164008 L3.17364127,25.3164008 C1.42179133,25.3164008 0,23.8986848 0,22.1518557 L0,3.16458228 C0,1.41775949 1.42179133,3.79746834e-05 3.17364127,3.79746834e-05 Z" id="path-3"></path>
    </defs>
    <g id="viewport/05-social" stroke="none" stroke-width="1" fill="none" fill-rule="evenodd" transform="translate(-354.000000, -625.000000)">
        <g id="confiance" transform="translate(0.000000, 548.000000)">
            <g id="logos" transform="translate(354.000000, 77.000000)">
                <g id="trello-icon">
                    <g id="Group-3" transform="translate(29.705389, 0.000000)">
                        <mask id="mask-2" fill="white">
                            <use xlink:href="#path-1"></use>
                        </mask>
                        <g id="Clip-2"></g>
                        <polygon id="Fill-1" fill="#FFFFFF" mask="url(#mask-2)" points="-29.7053892 30 76.2946108 30 76.2946108 0 -29.7053892 0"></polygon>
                    </g>
                    <g id="Group-6" transform="translate(0.000000, 4.430380)">
                        <mask id="mask-4" fill="white">
                            <use xlink:href="#path-3"></use>
                        </mask>
                        <g id="Clip-5"></g>
                        <polygon id="Fill-4" fill="#FFFFFF" mask="url(#mask-4)" points="0 25.5696203 106 25.5696203 106 -4.43037975 0 -4.43037975"></polygon>
                    </g>
                    <g id="Group-10" transform="translate(3.300599, 7.721519)" fill="#673AB7">
                        <path d="M12.5676012,2.53164558e-05 L17.2645945,2.53164558e-05 C18.1024388,2.53164558e-05 18.7879478,0.68356962 18.7879478,1.51901266 L18.7879478,9.55694937 C18.7879478,10.3923937 18.1024388,11.0759354 17.2645945,11.0759354 L12.5676012,11.0759354 C11.7297696,11.0759354 11.0442606,10.3923937 11.0442606,9.55694937 L11.0442606,1.51901266 C11.0442606,0.68356962 11.7297696,2.53164558e-05 12.5676012,2.53164558e-05 Z" id="Fill-7"></path>
                        <path d="M1.52333552,2.53164558e-05 L6.22032374,2.53164558e-05 C7.05816424,2.53164558e-05 7.74367195,0.68356962 7.74367195,1.51901266 L7.74367195,15.8860443 C7.74367195,16.7214848 7.05816424,17.4050253 6.22032374,17.4050253 L1.52333552,17.4050253 C0.685493749,17.4050253 -1.26946107e-05,16.7214848 -1.26946107e-05,15.8860443 L-1.26946107e-05,1.51901266 C-1.26946107e-05,0.68356962 0.685493749,2.53164558e-05 1.52333552,2.53164558e-05 Z" id="Fill-9"></path>
                    </g>
                </g>
            </g>
        </g>
    </g>
</svg>