<?xml version="1.0" encoding="UTF-8"?>
<svg width="16px" height="16px" viewBox="0 0 16 16" version="1.1" xmlns="http://www.w3.org/2000/svg" xmlns:xlink="http://www.w3.org/1999/xlink">
    <!-- Generator: Sketch 48.2 (47327) - http://www.bohemiancoding.com/sketch -->
    <title>01-icons/social/twitter</title>
    <desc>Created with Sketch.</desc>
    <defs></defs>
    <g id="Symbols" stroke="none" stroke-width="1" fill="none" fill-rule="evenodd">
        <g id="01-icons/social/twitter" fill="#FFFFFF">
            <path d="M13.350766,3.89715441 C13.9440629,3.52275025 14.3993074,2.92907699 14.61296,2.22186913 C14.0574632,2.56940633 13.4436227,2.82074245 12.7886952,2.95681063 C12.266068,2.36747075 11.5191055,2 10.6924341,2 C9.10647414,2 7.82127135,3.3563484 7.82127135,5.02903366 C7.82127135,5.26650296 7.84510184,5.49790553 7.89440629,5.71890799 C5.50807067,5.59237325 3.39208781,4.3876932 1.97458473,2.55380615 C1.72724071,3.00274447 1.58590127,3.52275025 1.58590127,4.07742308 C1.58590127,5.12783475 2.09291542,6.05517839 2.8637084,6.59945111 C2.39285085,6.58385093 1.9499325,6.4460494 1.56207079,6.22071356 L1.56207079,6.25798064 C1.56207079,7.72613029 2.55144685,8.9507439 3.86705406,9.22808031 C3.62546223,9.29914777 3.37236603,9.3346815 3.10940893,9.3346815 C2.92451723,9.3346815 2.74373423,9.31648129 2.56952515,9.28094757 C2.93437812,10.4838943 3.99524564,11.3609707 5.25250924,11.3843709 C4.26888537,12.1973133 3.03052181,12.6809187 1.68533192,12.6809187 C1.45360099,12.6809187 1.22433527,12.6679185 1,12.6393182 C2.2712332,13.4981944 3.78077126,14 5.40288783,14 C10.6866819,14 13.5742795,9.38408205 13.5742795,5.38090423 C13.5742795,5.24916944 13.572636,5.11830131 13.5668838,4.98916655 C14.1281329,4.56189513 14.616247,4.02802253 15,3.42048245 C14.4847684,3.66141846 13.9309151,3.8243536 13.350766,3.89715441 Z" id="Shape"></path>
        </g>
    </g>
</svg>